<svg width="110" height="110" viewBox="0 0 110 110" fill="none" xmlns="http://www.w3.org/2000/svg">
<rect width="110" height="110" rx="55" fill="url(#paint0_linear_43_2698)"/>
<path d="M54.0712 25.0929C53.3676 25.304 52.7344 25.7965 51.3039 27.2387C49.6506 28.9038 48.5718 30.3812 47.6806 32.1753C46.2266 35.1067 45.7459 37.5222 45.7342 41.8139V43.948L44.4443 45.4489C43.729 46.2697 43.1193 47.067 43.0724 47.2195C42.92 47.8175 43.518 48.4038 44.1277 48.2513C44.2802 48.2162 44.714 47.8409 45.0775 47.4071L45.7342 46.6332V52.156V57.6789L42.8379 57.6554L39.9299 57.6202L39.8947 55.5331L39.8713 53.4459L40.9852 52.156C41.9233 51.0773 42.0992 50.8076 42.0992 50.4675C42.0992 50.1861 42.0171 50.0102 41.7943 49.8343C41.4425 49.5529 41.2784 49.5295 40.9031 49.7171C40.5279 49.893 38.4993 52.285 38.2883 52.8009C38.0772 53.2934 38.0303 57.3388 38.2296 58.0306C38.3704 58.5583 38.9918 59.168 39.5312 59.3205C39.7423 59.3908 41.2315 59.4377 42.8262 59.4377H45.7342V61.1966C45.7342 62.4513 45.699 62.9555 45.5934 62.9555C45.3589 62.9555 44.6788 63.5418 44.4795 63.9287C44.2333 64.4095 44.1277 66.4498 44.3153 67.1416C44.4795 67.7162 44.9133 68.279 45.4176 68.537C45.6169 68.6425 46.2384 68.7597 46.8247 68.8066L47.88 68.877L48.4428 70.1551C49.076 71.5857 49.334 71.914 50.0141 72.2306C50.4479 72.4299 50.8583 72.4534 54.9272 72.4534C57.9172 72.4534 59.512 72.4065 59.8168 72.3244C60.4852 72.1133 60.919 71.5739 61.5405 70.1551L62.1151 68.877L63.1704 68.8066C63.7567 68.7597 64.3782 68.6425 64.5775 68.537C65.0817 68.279 65.5156 67.7162 65.6797 67.1416C65.8673 66.4498 65.7618 64.4095 65.5156 63.9287C65.3162 63.5418 64.6361 62.9555 64.4016 62.9555C64.2961 62.9555 64.2609 62.4513 64.2609 61.1966V59.4377H67.1689C68.7636 59.4377 70.2528 59.3908 70.4638 59.3205C71.0032 59.168 71.6247 58.5583 71.7654 58.0306C71.824 57.8079 71.8827 56.6118 71.8827 55.3923C71.8827 53.5279 71.8475 53.0941 71.6716 52.7306C71.5661 52.4961 69.8541 50.4206 67.8724 48.1224L64.2609 43.948V41.8139C64.2609 38.5776 64.0029 36.6545 63.2994 34.5204C62.8186 33.0547 61.8219 31.0848 60.8839 29.7715C59.8872 28.3527 57.2606 25.7144 56.475 25.3274C55.8301 25.0108 54.6927 24.9053 54.0712 25.0929ZM55.6542 26.9104C56.1936 27.1684 58.2104 29.1735 59.0781 30.3226C59.4768 30.8503 59.8051 31.3076 59.8051 31.3428C59.8051 31.3779 57.6476 31.4131 54.9975 31.4131C52.3592 31.4131 50.19 31.3779 50.19 31.3428C50.19 31.1317 51.8081 29.1969 52.7931 28.2354C54.3409 26.7228 54.7982 26.5 55.6542 26.9104ZM61.1067 33.7231C61.5171 34.6729 61.9275 35.9862 62.1854 37.1587C62.4199 38.2375 62.4317 38.6362 62.4669 50.5496L62.5138 62.8382H54.9975H47.4813L47.5282 50.5496C47.5634 38.4838 47.5751 38.2492 47.8213 37.1118C48.1028 35.822 48.4428 34.7315 48.8532 33.7934L49.1346 33.172H54.9975H60.8721L61.1067 33.7231ZM70.1003 55.5331L70.0652 57.6202L67.1689 57.6554L64.2609 57.6789V52.1678V46.6449L67.1923 50.0454L70.1238 53.4576L70.1003 55.5331ZM63.956 64.7847C63.9912 64.8902 64.0264 65.3593 64.0264 65.8283C64.0264 66.4615 63.9795 66.7429 63.8388 66.8719C63.6746 67.0361 62.7131 67.0595 54.9975 67.0595C47.282 67.0595 46.3204 67.0361 46.1563 66.8719C46.0156 66.7429 45.9687 66.4615 45.9687 65.8283C45.9687 65.3593 46.0038 64.8902 46.039 64.7847C46.1094 64.6205 47.0005 64.5971 54.9975 64.5971C62.9945 64.5971 63.8857 64.6205 63.956 64.7847ZM60.1569 68.8653C60.1569 68.9708 59.5237 70.4014 59.4181 70.5421C59.3361 70.6593 58.3042 70.6945 54.9975 70.6945C51.6909 70.6945 50.659 70.6593 50.5769 70.5421C50.4714 70.4014 49.8382 68.9708 49.8382 68.8653C49.8382 68.8418 52.1599 68.8184 54.9975 68.8184C57.8352 68.8184 60.1569 68.8418 60.1569 68.8653Z" fill="white"/>
<path d="M53.508 37.3347C49.8144 38.3666 48.1962 42.6699 50.2834 45.9062C50.8697 46.8209 51.5615 47.4071 52.652 47.9348C53.5197 48.3452 53.5549 48.3569 55.0089 48.3569C56.4629 48.3569 56.4863 48.3569 57.354 47.9231C58.4563 47.3837 59.1364 46.7974 59.7109 45.9062C61.3174 43.4087 60.7662 40.0903 58.4328 38.3079C57.4127 37.5458 56.5919 37.2526 55.2317 37.2057C54.4812 37.1705 53.9184 37.2174 53.508 37.3347ZM56.3691 39.1639C57.1782 39.4805 58.0693 40.2661 58.4914 41.0869C58.7729 41.6029 58.808 41.8139 58.808 42.7872C58.808 43.7839 58.7729 43.9715 58.4797 44.5226C58.081 45.2848 57.3892 45.9649 56.6622 46.3284C56.2049 46.5512 55.9235 46.5981 54.9972 46.5981C53.6839 46.5981 53.0272 46.3401 52.2299 45.5193C51.4208 44.6868 51.1863 44.0887 51.1863 42.7872C51.1863 41.8022 51.2215 41.6029 51.5029 41.0869C52.4527 39.2812 54.5164 38.4721 56.3691 39.1639Z" fill="white"/>
<path d="M35.4622 61.7947C34.9932 62.0292 34.9463 62.3692 34.9463 65.3124V68.1266L35.2394 68.408C35.3919 68.5722 35.6616 68.7012 35.8257 68.7012C35.9899 68.7012 36.2596 68.5722 36.412 68.408L36.7052 68.1266V65.2069C36.7052 62.592 36.6817 62.252 36.5058 62.0409C36.2479 61.7361 35.7905 61.6305 35.4622 61.7947Z" fill="white"/>
<path d="M39.2845 61.8182C38.8507 62.041 38.6982 62.4514 38.6982 63.4363C38.6982 64.433 38.8507 65.0193 39.1673 65.1835C39.519 65.3711 39.9646 65.3242 40.2226 65.0662C40.4337 64.8552 40.4571 64.6793 40.4571 63.5067C40.4571 62.381 40.4219 62.1465 40.2578 61.9941C39.9412 61.7127 39.6129 61.654 39.2845 61.8182Z" fill="white"/>
<path d="M70.1234 61.7478C69.5957 61.9354 69.5371 62.123 69.5371 63.5067C69.5371 64.6792 69.5606 64.8551 69.7716 65.0662C70.0648 65.3593 70.6393 65.3711 70.9325 65.0779C71.2373 64.773 71.3312 64.2219 71.2725 63.1314C71.2373 62.4513 71.1787 62.2051 71.0028 62.0292C70.7331 61.7712 70.3814 61.654 70.1234 61.7478Z" fill="white"/>
<path d="M73.7933 61.783C73.3242 61.9706 73.2891 62.2403 73.2891 65.2421V68.1266L73.5822 68.408C73.7346 68.5722 74.0043 68.7012 74.1685 68.7012C74.3327 68.7012 74.6024 68.5722 74.7548 68.408L75.0479 68.1266V65.3124C75.0479 62.3223 75.001 62.0175 74.4968 61.7947C74.1685 61.6422 74.145 61.6422 73.7933 61.783Z" fill="white"/>
<path d="M36.4235 70.46C35.6731 70.6594 34.606 71.2926 34.1136 71.8437C33.6211 72.4065 33.07 73.4618 33.07 73.8488C33.07 74.0129 32.941 74.1185 32.6361 74.2123C29.8219 75.1152 28.1803 78.0349 28.9073 80.8373C29.5288 83.206 31.7918 85 34.1722 85C34.6764 85 35.0633 84.6248 35.0633 84.144C35.0633 83.5343 34.8405 83.3349 34.008 83.2177C32.554 83.0301 31.5104 82.3148 30.8772 81.0953C30.6075 80.5677 30.5606 80.3449 30.5606 79.4889C30.5606 78.6798 30.6075 78.3867 30.8421 77.9059C31.3814 76.8037 32.4485 75.9946 33.6445 75.7953C34.3363 75.678 34.7116 75.3028 34.7116 74.7048C34.7116 74.1185 35.2158 73.1101 35.6965 72.7466C36.9864 71.7616 38.5576 71.9726 39.6481 73.2742C40.2344 73.9778 40.551 74.0247 41.5594 73.5556C43.5645 72.641 46.1794 73.3563 47.5161 75.1972L47.8444 75.6663L47.5044 76.018C46.9767 76.5809 46.5546 77.3431 46.5546 77.7183C46.5546 77.9528 46.6601 78.1404 46.8595 78.3046C47.434 78.7619 47.821 78.6212 48.3838 77.7652C49.1108 76.6864 50.131 76.147 51.4208 76.147C52.4644 76.1588 53.0976 76.4284 54.0474 77.3079C54.4343 77.6714 54.8682 77.9645 54.9972 77.9645C55.1262 77.9645 55.56 77.6714 55.947 77.3079C56.8968 76.4284 57.53 76.1588 58.5735 76.147C59.8634 76.147 60.8835 76.6864 61.6105 77.7652C62.1734 78.6212 62.5603 78.7619 63.1349 78.3046C63.6743 77.8824 63.4749 77.1554 62.5017 76.0532L62.1499 75.6545L62.4782 75.1972C63.815 73.3563 66.4298 72.641 68.4349 73.5556C69.4434 74.0247 69.76 73.9778 70.3462 73.2742C71.4367 71.9726 73.008 71.7616 74.2978 72.7466C74.7786 73.1101 75.2828 74.1185 75.2828 74.7048C75.2828 75.291 75.658 75.678 76.3381 75.7953C76.6195 75.8422 77.0182 75.9594 77.2293 76.0415C77.7921 76.276 78.1322 76.2408 78.4253 75.936C78.9764 75.3497 78.6598 74.693 77.6514 74.3295C76.9948 74.0833 76.983 74.0716 76.7837 73.4149C76.2209 71.5974 74.5206 70.3897 72.5272 70.4131C71.3664 70.4248 70.4869 70.7414 69.713 71.4215L69.1619 71.9023L68.5053 71.6912C66.4298 71.0463 63.8971 71.5388 62.232 72.9107C61.6926 73.3563 60.9656 74.1654 60.7545 74.5406C60.6607 74.7048 60.5904 74.7048 60.0862 74.5523C59.7696 74.4585 59.066 74.3882 58.5149 74.3999C57.3423 74.4116 56.4629 74.6813 55.5835 75.3145L54.9972 75.7366L54.4109 75.3145C54.0943 75.0917 53.5432 74.7986 53.1797 74.6696C52.0306 74.2709 51.2684 74.2592 49.6033 74.6344C49.3688 74.6813 49.275 74.6344 49.1108 74.3647C48.5011 73.3446 46.8829 72.1251 45.5579 71.7147C44.4674 71.3746 42.6147 71.3512 41.5477 71.6795L40.8207 71.9023L40.2813 71.4215C39.9764 71.1518 39.4371 70.8235 39.0618 70.6945C38.2997 70.4014 37.0802 70.2959 36.4235 70.46Z" fill="white"/>
<path d="M65.2576 76.4988C64.8355 76.9092 64.8824 77.3196 65.3983 77.8238C65.9377 78.3749 66.2543 78.8909 66.2543 79.2309C66.2543 79.3834 66.3364 79.6531 66.4302 79.8289C66.6999 80.3683 67.2041 80.4621 67.7083 80.0635C67.9545 79.8758 68.0132 79.7234 68.0132 79.3247C68.0132 78.3163 67.4034 77.1437 66.5592 76.534C65.9963 76.1353 65.6328 76.1119 65.2576 76.4988Z" fill="white"/>
<path d="M34.3948 77.4954C33.8437 77.7182 33.7616 78.3162 34.1251 79.2895C34.5824 80.509 35.8371 81.5526 36.5524 81.2946C36.951 81.1539 37.209 80.6731 37.1035 80.251C37.0566 80.0751 36.8338 79.8171 36.5876 79.653C36.1302 79.3481 35.6495 78.6211 35.6495 78.2224C35.6495 77.683 34.9342 77.2726 34.3948 77.4954Z" fill="white"/>
<path d="M79.7265 77.8355C79.4685 78.0466 79.4451 78.1404 79.4451 79.2192C79.4451 80.2159 79.4099 80.4504 79.1402 81.025C78.5539 82.2679 77.4752 83.0183 75.986 83.2177C75.1535 83.3349 74.9307 83.5343 74.9307 84.144C74.9307 84.6248 75.3176 85 75.8218 85C77.6628 85 79.7031 83.7688 80.5825 82.1155C81.1922 80.9781 81.4268 79.4303 81.1453 78.4101C80.9343 77.6597 80.2659 77.39 79.7265 77.8355Z" fill="white"/>
<defs>
<linearGradient id="paint0_linear_43_2698" x1="55" y1="0" x2="55" y2="110" gradientUnits="userSpaceOnUse">
<stop stop-color="#577FE3"/>
<stop offset="0.581" stop-color="#345ABB"/>
<stop offset="1" stop-color="#1346C7"/>
</linearGradient>
</defs>
</svg>
