<svg width="35" height="35" viewBox="0 0 35 35" fill="none" xmlns="http://www.w3.org/2000/svg">
<rect width="35" height="35" rx="17.5" fill="#A3F20D"/>
<path d="M25.8918 10.052C25.4608 10.1866 25.4443 10.1988 19.9599 15.647L14.5617 21.0055L12.1191 18.5791C9.84902 16.3321 9.65608 16.1486 9.40157 16.0303C8.74886 15.7286 8.05509 15.8224 7.53785 16.2873C7.12734 16.6543 6.92619 17.2415 7.02471 17.7717C7.12734 18.3181 7.06166 18.2488 10.4689 21.6213C13.4492 24.5738 13.6339 24.7491 13.8843 24.8592C14.2045 24.9979 14.6438 25.0387 14.9394 24.9612C15.4402 24.8266 15.2267 25.0264 21.6266 18.6688C28.2522 12.0788 27.8746 12.4825 27.9772 11.8993C28.1168 11.0878 27.6036 10.3008 26.7785 10.052C26.5486 9.98267 26.1135 9.98267 25.8918 10.052Z" fill="white"/>
</svg>
