<svg width="110" height="110" viewBox="0 0 110 110" fill="none" xmlns="http://www.w3.org/2000/svg">
<rect width="110" height="110" rx="55" fill="url(#paint0_linear_43_2714)"/>
<path d="M45.686 25.1474C45.4281 25.2412 45.0529 25.4523 44.8419 25.6164C44.1267 26.1557 43.9039 26.7302 43.3646 29.3565L42.8604 31.8068L42.0397 32.1234C41.5942 32.2875 41.0549 32.522 40.8439 32.6275C40.6328 32.7331 40.3866 32.8269 40.2928 32.8269C40.1873 32.8269 39.2025 32.2289 38.0887 31.4903C35.9314 30.0599 35.3335 29.8137 34.4072 29.9427C33.5865 30.0482 33.2231 30.2944 31.8044 31.7013C30.3858 33.0848 30.0575 33.5655 29.952 34.4096C29.823 35.3241 30.0692 35.9221 31.4996 38.0793C32.2382 39.1931 32.8362 40.178 32.8362 40.2835C32.8362 40.3773 32.7424 40.6235 32.6369 40.8346C32.5313 41.0456 32.2969 41.5732 32.1327 42.0304L31.8162 42.8511L29.4361 43.3435C28.123 43.6132 26.892 43.9063 26.6926 43.9884C26.1064 44.2346 25.3912 45.0318 25.1568 45.7119C24.9926 46.2043 24.9692 46.6615 25.0043 48.2795C25.0512 50.4836 25.1568 50.8471 25.9892 51.5857C26.6106 52.125 26.8685 52.2071 29.3189 52.6995C30.5148 52.934 31.57 53.1451 31.6755 53.1802C31.7693 53.2037 31.9451 53.5085 32.0624 53.8485C32.1679 54.1768 32.4024 54.7747 32.59 55.1616L32.9065 55.8651L31.5348 57.952C30.7727 59.0893 30.0927 60.25 30.0106 60.5314C29.8582 61.1176 29.9403 61.9735 30.2099 62.5714C30.503 63.2162 32.9065 65.5963 33.5396 65.8776C34.1845 66.1708 35.2397 66.1942 35.861 65.948C36.0955 65.8425 37.1742 65.1742 38.2528 64.459L40.2225 63.1576L41.1253 63.568C41.6294 63.8024 42.2273 64.0487 42.4618 64.119L42.8839 64.2597L43.3294 66.5108C43.8453 69.1604 44.0563 69.7232 44.7481 70.3329C45.4867 70.9777 45.9322 71.0715 48.324 71.0246L50.3874 70.9894L50.9619 70.6377C51.9116 70.0515 52.1226 69.5591 52.6971 66.757L53.1896 64.3066L54.362 63.8376C55.3468 63.4273 55.5461 63.2983 55.722 62.97C55.8861 62.63 55.8979 62.5128 55.7689 62.2079C55.5813 61.739 55.1358 61.5748 54.5496 61.7507C53.3537 62.1141 51.9233 62.7004 51.724 62.8997C51.5599 63.0755 51.3606 63.8024 51.0088 65.5963C50.7392 66.9446 50.4695 68.2342 50.4109 68.4335C50.1999 69.1018 49.9771 69.1722 48.0426 69.1722H46.2957L45.9791 68.8556C45.6977 68.5625 45.6039 68.2577 45.1467 65.948C44.8653 64.5294 44.5722 63.228 44.4901 63.0638C44.3729 62.8293 44.1032 62.6652 43.2474 62.3721C42.6494 62.1493 41.7349 61.7741 41.219 61.5279C40.6094 61.2348 40.1873 61.0941 40.0114 61.141C39.8708 61.1762 38.7218 61.8914 37.4555 62.7238C35.6148 63.9549 35.0872 64.248 34.759 64.248C34.4072 64.248 34.2079 64.1073 33.2348 63.1693C32.0975 62.0673 31.781 61.6452 31.781 61.2114C31.781 61.0824 32.4962 59.91 33.3638 58.5969C34.2314 57.2837 34.9465 56.0996 34.9465 55.9589C34.9465 55.8299 34.6769 55.1265 34.3603 54.4113C34.0321 53.6961 33.7741 53.0864 33.7741 53.0513C33.7741 52.7816 33.2348 51.6795 33.0589 51.5857C32.9417 51.5154 31.6637 51.2223 30.2334 50.9409C28.803 50.6478 27.5133 50.3312 27.3609 50.2374C26.9389 49.9561 26.8568 49.5926 26.8568 47.9746C26.8568 46.7084 26.892 46.427 27.0795 46.1105C27.3375 45.7001 27.1851 45.747 30.9955 44.9732C32.2031 44.727 33.0589 44.4925 33.1996 44.3753C33.3169 44.258 33.5514 43.7422 33.7272 43.2146C33.9031 42.6987 34.2431 41.8546 34.4893 41.3621C34.7472 40.858 34.9465 40.3187 34.9465 40.1663C34.9465 39.9904 34.3017 38.8883 33.352 37.4345C31.9686 35.3124 31.7693 34.949 31.8279 34.6441C31.9217 34.1869 34.1493 31.9241 34.6065 31.8303C35.0286 31.7365 35.2748 31.8655 37.7838 33.5538C39.0852 34.4096 39.9763 34.9372 40.1639 34.9372C40.328 34.9372 40.8673 34.7379 41.3715 34.48C41.8639 34.2338 42.708 33.8938 43.2239 33.7179C43.7515 33.542 44.2674 33.3076 44.3846 33.1786C44.5136 33.0262 44.7832 32.0179 45.1467 30.1889C45.4515 28.6765 45.7681 27.3516 45.8384 27.2695C46.1315 26.9178 46.6474 26.824 48.2419 26.8709C50.3992 26.9178 50.2585 26.7654 50.8916 29.9544C51.1613 31.3027 51.4309 32.5924 51.4895 32.8034C51.6185 33.202 51.8882 33.3896 52.7089 33.6476C52.9668 33.7296 53.7523 34.0579 54.4441 34.3627C55.1475 34.6793 55.8392 34.9372 55.9682 34.9372C56.1089 34.9372 57.2931 34.222 58.6062 33.3545C59.9193 32.4869 61.0917 31.7717 61.2207 31.7717C61.6545 31.7717 62.0766 32.0882 63.1787 33.2255C64.1166 34.1986 64.2573 34.3979 64.2573 34.7496C64.2573 35.0779 63.9642 35.6055 62.7331 37.4462C61.9007 38.7125 61.1855 39.8614 61.1503 40.0021C61.1035 40.178 61.2441 40.6001 61.5373 41.2097C61.7835 41.7256 62.1586 42.6401 62.3814 43.238C62.6745 44.0939 62.8386 44.3636 63.0731 44.4808C63.2373 44.5629 64.5387 44.856 65.9573 45.1374C68.267 45.5946 68.5718 45.6884 68.8649 45.9698L69.1815 46.2863V48.0333C69.1815 49.9678 69.1111 50.1905 68.4429 50.4016C68.2435 50.4602 66.9656 50.7416 65.6056 50.9995C62.8973 51.5388 62.7566 51.6092 62.4986 52.4416C62.4283 52.7113 62.1821 53.3913 61.9593 53.954C61.5255 55.0678 61.5373 55.3844 62.0531 55.7361C62.7449 56.2168 63.2607 55.8065 63.8704 54.294L64.3159 53.1802L66.7546 52.6878C69.5684 52.1133 70.0608 51.9023 70.647 50.9526L70.9988 50.3781L71.0339 48.3147C71.0808 45.9229 70.987 45.4774 70.3422 44.7387C69.7325 44.047 69.1698 43.836 66.5201 43.3201L64.269 42.8746L64.1283 42.4525C64.058 42.218 63.8118 41.6201 63.5773 41.1159L63.1669 40.2132L64.4683 38.2435C65.1835 37.1648 65.8518 36.0862 65.9573 35.8517C66.2035 35.2303 66.1801 34.1752 65.887 33.5303C65.6056 32.8972 63.2256 30.4937 62.5807 30.2006C61.9828 29.931 61.1269 29.8489 60.5407 30.0013C60.2593 30.0834 59.0986 30.7634 57.9613 31.5255L55.8744 32.8972L55.171 32.5806C54.7841 32.3931 54.1861 32.1586 53.8578 32.0531C53.5178 31.9358 53.213 31.7599 53.1896 31.6662C53.1544 31.5606 52.9433 30.5054 52.7089 29.3096C52.2164 26.8592 52.1344 26.6013 51.595 25.9799C50.8447 25.1357 50.5047 25.0302 48.195 25.0068C46.6239 24.9833 46.0377 25.0185 45.686 25.1474Z" fill="white"/>
<path d="M46.2956 37.5165C44.2673 37.88 42.1452 38.9352 40.8438 40.2248C40.2693 40.7759 40.1989 41.1745 40.5858 41.6669C41.0079 42.1945 41.5003 42.1007 42.5204 41.2683C43.4935 40.4945 44.7011 39.8614 45.8501 39.5565C47.0459 39.2283 49.2853 39.2517 50.4225 39.6152C53.1543 40.4593 55.1474 42.2649 56.1674 44.809C56.6481 46.0166 56.8005 47.0484 56.7185 48.5843C56.6599 49.8622 56.4723 50.5891 55.8861 51.9609C55.4991 52.8636 56.2261 53.6257 57.164 53.274C57.6447 53.0864 58.4654 50.7298 58.6061 49.0884C59.0751 43.8945 55.9447 39.2869 50.9501 37.8096C50.106 37.5517 49.5901 37.4813 48.3708 37.4579C47.5384 37.4345 46.6004 37.4579 46.2956 37.5165Z" fill="white"/>
<path d="M47.3745 42.3353C46.0848 42.476 44.9475 43.0271 43.9861 43.9767C42.8606 45.114 42.3213 46.4271 42.3213 48.0685C42.3213 49.6865 42.8606 50.9527 44.0213 52.0899C45.5455 53.5906 47.4683 54.1182 49.4497 53.5906C51.5131 53.0513 53.0607 51.5154 53.6001 49.452C54.1277 47.4471 53.6001 45.5361 52.0994 44.0119C50.8214 42.7105 49.2035 42.136 47.3745 42.3353ZM49.4145 44.434C51.1262 45.0788 52.1931 46.9781 51.818 48.7485C51.6421 49.6278 51.3724 50.1437 50.7628 50.7534C48.3359 53.1686 44.2089 51.4568 44.2089 48.0216C44.2089 47.1306 44.3496 46.685 44.8772 45.8761C45.2758 45.2664 46.1434 44.5864 46.8469 44.3402C47.4448 44.1291 48.711 44.176 49.4145 44.434Z" fill="white"/>
<path d="M38.2531 44.1995C37.7255 44.692 37.3503 46.7554 37.4441 48.5962C37.6669 53.0045 40.5862 56.8032 44.7835 58.1397C46.6594 58.7494 48.8753 58.8197 50.7746 58.3273C51.7477 58.0811 53.7878 57.108 54.2685 56.6507C54.7374 56.2052 54.7726 55.6894 54.3505 55.279C53.9636 54.8804 53.5181 54.9038 52.8146 55.3494C48.8636 57.8701 43.6345 56.9087 40.9848 53.1686C40.34 52.2541 39.9531 51.4921 39.6248 50.4134C39.2731 49.2996 39.2379 47.0251 39.5545 45.8878C39.66 45.4892 39.7538 45.0085 39.7538 44.8209C39.7538 44.094 38.7924 43.6954 38.2531 44.1995Z" fill="white"/>
<path d="M67.7164 54.2706C66.7902 54.6927 66.544 55.1617 66.1219 57.2369L65.8523 58.6086L65.2191 58.8665C64.8674 59.0072 64.5157 59.1245 64.4453 59.1245C64.3633 59.1245 63.8357 58.8079 63.2612 58.421C61.8074 57.4479 61.5494 57.3307 60.8577 57.3307C60.0018 57.3307 59.6267 57.5417 58.548 58.6321C57.4928 59.7107 57.3404 59.9921 57.3404 60.8597C57.3404 61.528 57.4928 61.868 58.5011 63.357L59.2046 64.4004L59.017 64.8225C58.9232 65.057 58.7239 65.5728 58.5949 65.9832C58.3604 66.6632 58.3604 66.757 58.5246 67.0384C58.6184 67.2142 58.8529 67.4253 59.0404 67.5191C59.3336 67.6598 59.4156 67.6598 59.7556 67.4722C60.0605 67.308 60.1894 67.1204 60.3418 66.6632C60.4474 66.3349 60.6936 65.7604 60.8694 65.397C61.397 64.3535 61.3501 64.1659 60.2129 62.4659C59.6618 61.6452 59.2163 60.9066 59.2163 60.8128C59.2163 60.6252 60.6349 59.2066 60.8343 59.2066C60.9163 59.2066 61.655 59.6521 62.4757 60.2031C64.1757 61.3404 64.3633 61.3873 65.4067 60.8597C65.7702 60.6838 66.3564 60.4376 66.6964 60.3204C67.4702 60.0741 67.5406 59.9217 67.9626 57.7996C68.1268 56.932 68.3261 56.1465 68.3847 56.0644C68.4668 55.9706 68.8537 55.9237 69.5337 55.9237C70.2137 55.9237 70.6006 55.9706 70.6827 56.0644C70.7413 56.1465 70.9406 56.932 71.1047 57.7996C71.5268 59.9686 71.5737 60.039 72.4882 60.379C72.8868 60.5197 73.4731 60.7659 73.7779 60.9183C74.6572 61.3638 74.8682 61.3169 76.5683 60.2031C77.4124 59.6521 78.1628 59.2066 78.2448 59.2066C78.4324 59.2066 79.8511 60.6369 79.8511 60.8245C79.8511 60.9066 79.4055 61.6452 78.8545 62.4659C77.7407 64.1308 77.6821 64.3652 78.1276 65.2797C78.28 65.5846 78.5262 66.1708 78.6786 66.5694C79.0069 67.4839 79.089 67.5308 81.258 67.9529C82.1256 68.117 82.9111 68.3163 82.9932 68.375C83.087 68.457 83.1339 68.8439 83.1339 69.5239C83.1339 70.2039 83.087 70.5908 82.9932 70.6729C82.9111 70.7315 82.0201 70.9543 81.0235 71.1536C78.9952 71.564 78.9483 71.5874 78.6083 72.6074C78.5028 72.9357 78.2917 73.4633 78.1393 73.7681C77.6821 74.6826 77.7407 74.9171 78.8545 76.582C79.4055 77.4027 79.8511 78.1413 79.8511 78.2351C79.8511 78.4227 78.4324 79.8413 78.2331 79.8413C78.151 79.8413 77.4124 79.3958 76.5917 78.8447C74.9269 77.7309 74.6924 77.6723 73.7779 78.1296C73.4731 78.282 72.9455 78.493 72.6172 78.5985C71.5972 78.9385 71.5737 78.9854 71.1634 81.0137C70.9641 82.0103 70.7413 82.9014 70.6827 82.9717C70.6006 83.0772 70.2137 83.1241 69.5337 83.1241C68.8537 83.1241 68.4668 83.0772 68.3847 82.9717C68.3261 82.9014 68.1268 82.1158 67.9626 81.2482C67.5406 79.0792 67.4937 78.9972 66.5792 78.6689C66.1805 78.5165 65.5943 78.2703 65.2895 78.1178C64.375 77.6723 64.1405 77.7309 62.4757 78.8447C61.655 79.3958 60.9163 79.8413 60.8225 79.8413C60.7405 79.8413 60.3418 79.5013 59.9315 79.091C59.3922 78.5516 59.2046 78.2703 59.2398 78.1178C59.2749 77.9889 59.7322 77.2502 60.2598 76.4647C61.3384 74.835 61.3853 74.6709 60.8694 73.6509C60.6936 73.2874 60.4474 72.7012 60.3301 72.3612C60.0839 71.5874 59.9315 71.5171 57.8094 71.095C56.9418 70.9308 56.1563 70.7315 56.0742 70.6612C55.9687 70.5791 55.9335 70.2391 55.957 69.477L55.9921 68.4101L56.4259 68.2108C57.2349 67.8239 57.4225 67.1439 56.8714 66.5929C56.5783 66.2997 56.0273 66.2997 55.4059 66.5811C54.3624 67.0618 54.0576 67.7301 54.0576 69.5474C54.0576 71.0481 54.2335 71.5991 54.8549 72.1267C55.3004 72.5019 55.6169 72.6074 57.3052 72.9357L58.6184 73.1936L58.8763 73.8385C59.017 74.1902 59.1342 74.5419 59.1342 74.6123C59.1342 74.6943 58.8177 75.2219 58.4308 75.7964C57.4577 77.2502 57.3404 77.5082 57.3404 78.1999C57.3404 79.0675 57.5749 79.4544 58.7473 80.5917C59.8611 81.6703 60.1543 81.7993 61.1625 81.682C61.5729 81.6351 62.0067 81.4241 63.0502 80.7206L64.3984 79.8296L65.1371 80.1344L65.8757 80.451L66.1219 81.7524C66.4502 83.4407 66.5557 83.7572 66.9309 84.2027C67.4585 84.8241 68.0095 85 69.5337 85C71.0578 85 71.6089 84.8241 72.1365 84.2027C72.5117 83.7572 72.6172 83.4407 72.9455 81.7524L73.2034 80.4392L73.9303 80.1344L74.6572 79.8179L76.0289 80.7324C77.2717 81.5648 77.4593 81.6469 78.0807 81.6937C79.0186 81.7641 79.4055 81.5531 80.6014 80.3103C81.6801 79.1965 81.809 78.9034 81.6918 77.8951C81.6449 77.4847 81.4338 77.0509 80.7304 76.0075L79.8276 74.6474L80.1442 73.9205L80.449 73.1936L81.7621 72.9357C83.4504 72.6074 83.767 72.5019 84.2125 72.1267C84.8339 71.5991 85.0098 71.0481 85.0098 69.5239C85.0098 67.9998 84.8339 67.4487 84.2125 66.9211C83.767 66.546 83.4504 66.4404 81.7621 66.1122L80.4607 65.8659L80.1442 65.1273L79.8393 64.3887L80.7304 63.0404C81.4338 61.9969 81.6449 61.5631 81.6918 61.1528C81.809 60.1445 81.6801 59.8514 80.6014 58.7376C79.4642 57.5651 79.0773 57.3307 78.2097 57.3307C77.5179 57.3307 77.26 57.4479 75.8062 58.421C75.2317 58.8079 74.7041 59.1245 74.622 59.1245C74.5517 59.1245 74.2 59.0072 73.8482 58.8665L73.2034 58.6086L72.9455 57.2955C72.6172 55.6072 72.5117 55.2906 72.1365 54.8451C71.6089 54.2237 71.0578 54.0479 69.5337 54.0479C68.4668 54.0479 68.0916 54.0948 67.7164 54.2706Z" fill="white"/>
<path d="M67.9861 64.4708C67.0365 64.7756 66.4034 65.1859 65.6999 65.9128C64.7385 66.9446 64.2578 68.1287 64.2578 69.5239C64.2578 70.9074 64.7385 72.1033 65.6999 73.1233C67.0951 74.6005 69.1703 75.1633 71.0696 74.5654C72.0193 74.2723 72.9455 73.6626 73.0862 73.2522C73.2152 72.8302 72.9807 72.3378 72.5469 72.1267C72.2421 71.9743 72.1483 71.9977 71.3393 72.3964C69.6979 73.2054 68.291 73.0412 67.1537 71.904C64.5861 69.3363 67.3413 65.0804 70.7413 66.3584C71.8903 66.7922 72.9338 68.1874 72.9338 69.3012C72.9338 70.2977 73.8717 70.8136 74.5166 70.1688C74.7393 69.9577 74.8097 69.7584 74.8097 69.3832C74.8097 68.6563 74.5048 67.5894 74.1062 66.886C73.6959 66.1708 72.6993 65.1977 72.0427 64.8577C70.8117 64.2245 69.2172 64.0838 67.9861 64.4708Z" fill="white"/>
<defs>
<linearGradient id="paint0_linear_43_2714" x1="55" y1="0" x2="55" y2="110" gradientUnits="userSpaceOnUse">
<stop stop-color="#577FE3"/>
<stop offset="0.581" stop-color="#345ABB"/>
<stop offset="1" stop-color="#1346C7"/>
</linearGradient>
</defs>
</svg>
