<svg width="76" height="85" viewBox="0 0 76 85" fill="none" xmlns="http://www.w3.org/2000/svg">
<path d="M48.3795 0.187919C47.5989 0.486845 46.7354 1.23416 46.37 1.93165C45.9382 2.81183 45.1245 7.11304 45.2407 7.96C45.5563 10.3846 48.5787 11.9291 50.7709 10.7998C51.9168 10.2186 52.3651 9.53767 53.2453 7.0134C54.2251 4.22342 54.2916 3.26022 53.6107 2.08112C53.0294 1.0847 52.5146 0.702736 51.2193 0.304168C50.0069 -0.0611868 49.1932 -0.0944004 48.3795 0.187919ZM50.9037 2.81183C51.7341 3.19379 51.7507 3.64218 51.0034 5.88412C50.6214 7.0134 50.173 8.10946 50.0069 8.30875C49.3925 9.07267 47.682 8.49143 47.682 7.52822C47.682 7.32893 47.8646 6.23287 48.0971 5.1036C48.5787 2.71218 48.8278 2.36344 49.8741 2.52951C50.2228 2.57933 50.6712 2.71218 50.9037 2.81183Z" fill="white"/>
<path d="M27.9525 0.453728C26.79 0.885506 25.6442 1.73247 24.9301 2.67906C24.6145 3.09424 23.834 4.55566 23.2029 5.90083C22.5885 7.24599 21.8412 8.72401 21.5588 9.18901C20.7451 10.4844 19.1674 12.0454 17.623 13.0917C15.8958 14.2542 14.5507 15.6658 13.8034 17.1106L13.2553 18.1734L12.5744 17.8247C11.96 17.5257 11.5282 17.4925 7.85805 17.4427C3.05862 17.3763 2.59362 17.4759 1.33149 18.7381C0.252035 19.8175 0.0195367 20.6645 0.0195367 23.5043C0.0195367 24.7332 0.0859648 25.8625 0.185607 26.0285C0.268642 26.1946 0.550961 26.4271 0.83328 26.5267C1.23185 26.6928 1.39792 26.6928 1.81309 26.4769C2.07881 26.3441 2.34452 26.095 2.41095 25.9621C2.46077 25.8126 2.51059 24.7166 2.51059 23.5375C2.51059 19.9338 2.5438 19.9005 7.57573 19.9005C11.5282 19.9005 11.9102 19.9836 12.3918 20.897C12.6077 21.3287 12.6409 23.0061 12.6077 34.6808L12.5578 47.9664L12.0098 48.4978L11.4784 49.0458L7.77501 49.0957C4.13808 49.1455 4.07165 49.1455 3.50701 48.7635C3.19148 48.5476 2.84273 48.1823 2.72648 47.9664C2.56041 47.6509 2.51059 45.4587 2.51059 38.7329V29.9146L2.12863 29.5658C1.61381 29.0842 0.849887 29.0842 0.368284 29.5824L0.00292969 29.981L0.0527507 39.1813C0.102572 48.3151 0.102572 48.3816 0.467926 49.0625C0.966136 49.9924 1.77988 50.773 2.67666 51.1882C3.37415 51.5203 3.7229 51.5369 7.57573 51.5369C11.6777 51.5369 11.7441 51.5369 12.5744 51.1217L13.4214 50.6899L14.4012 51.238C16.0785 52.168 17.0251 52.2842 22.4224 52.2842H27.255V57.8974C27.255 64.0752 27.3215 64.59 28.2349 65.8688C28.5172 66.2341 29.0984 66.7489 29.5302 67.0146L30.3273 67.4796H34.8112C38.8633 67.4796 39.3615 67.4464 39.9262 67.1641C40.2749 66.998 40.5739 66.8818 40.5905 66.915C40.6071 66.9482 40.8562 67.4132 41.1219 67.9446C41.836 69.3396 43.1812 70.7512 44.8751 71.8971C46.4694 72.9599 47.7149 74.1224 48.512 75.2849C48.7943 75.6835 49.6745 77.394 50.4882 79.0879C51.684 81.5624 52.1323 82.3263 52.78 82.974C54.2082 84.4022 56.4502 85.1495 58.36 84.834C61.9803 84.2527 64.5378 80.8483 63.9731 77.3774C63.8071 76.3312 63.5746 75.7665 61.233 70.801L59.838 67.8118L63.641 67.7287C67.8924 67.6291 68.0086 67.5959 68.0086 66.4666C68.0086 66.0348 67.8924 65.7691 67.6267 65.5532C67.2613 65.2543 66.8794 65.2377 62.3457 65.2377H57.4632L57.0646 65.6529C56.8321 65.8688 56.6494 66.2341 56.6494 66.4666C56.6494 66.6991 57.7455 69.2234 59.0907 72.0798C61.3825 76.9788 61.5153 77.3276 61.5153 78.2742C61.5153 79.4201 61.2164 80.2172 60.4857 81.0642C59.2734 82.4259 57.3137 82.7913 55.6032 81.9443C54.4241 81.3797 54.0588 80.8649 52.7302 78.0085C52.1157 76.6965 51.3186 75.1189 50.9366 74.4878C50.0399 72.9599 48.1134 71.0335 46.3033 69.8212C44.626 68.7085 43.8454 67.8616 43.1812 66.4832C42.4837 65.0218 42.3674 63.7597 42.3674 57.5652V51.9687L42.9985 51.6698C43.8454 51.2712 44.8751 50.1917 45.3733 49.2119C45.7054 48.531 45.7719 48.1325 45.7719 46.97C45.7719 45.575 45.5228 44.728 44.8253 43.7814C44.6426 43.5323 44.6758 43.4493 45.0245 43.2002C47.3495 41.6059 47.9972 38.2513 46.4361 35.9429C46.1372 35.4945 46.0874 35.3118 46.2369 35.2454C46.3531 35.2122 51.4515 35.1956 57.5794 35.2122L68.7061 35.262L69.387 35.7104C70.2008 36.2418 70.5993 37.039 70.5993 38.135C70.5993 39.5466 69.6527 40.5597 68.1083 40.8088C66.7299 41.0247 66.2151 41.9214 66.9458 42.8514C67.2447 43.2334 67.4108 43.2832 68.7394 43.3496C70.4665 43.4327 71.1474 43.7648 71.7452 44.8111C72.2434 45.6912 72.177 46.9866 71.6124 47.7837C71.164 48.3982 70.1509 48.9628 69.4701 48.9628C68.2744 48.9628 67.6599 50.308 68.4902 51.0885C68.8058 51.3874 69.0715 51.4539 70.0679 51.4539C71.5127 51.4539 72.177 51.703 72.8745 52.5001C73.7879 53.5463 73.8045 54.9912 72.9077 56.0042C72.2102 56.8179 71.4795 57.1003 70.1343 57.1003C69.221 57.1003 68.8888 57.1667 68.5401 57.449C67.6433 58.1465 68.2411 59.5913 69.4202 59.5913C70.2008 59.5913 71.3134 60.2722 71.712 61.0029C72.4095 62.2484 72.1438 63.6102 70.9979 64.673C70.3336 65.2875 70.2838 65.8189 70.782 66.4666C71.3467 67.1973 72.1106 67.0645 73.0738 66.1012C74.7013 64.4738 75.05 62.0325 73.9706 59.9234L73.4225 58.8938L73.8543 58.5451C74.6681 57.914 75.1164 57.3494 75.5648 56.436C75.9136 55.6887 75.9966 55.2901 75.9966 54.2771C75.9966 52.5001 75.3157 51.1549 73.8543 50.0091L73.4225 49.6603L73.9706 48.6141C74.4522 47.6841 74.502 47.435 74.502 46.1562C74.502 45.0768 74.419 44.5453 74.1532 43.9807C73.8045 43.2168 72.9908 42.2702 72.2933 41.7886L71.8947 41.5229L72.3099 40.8752C72.9575 39.8954 73.1402 39.0816 73.0572 37.6867C72.9409 35.5776 71.9279 34.1328 69.9351 33.2028L69.0217 32.771L58.7751 32.7212C53.1288 32.7045 48.512 32.6547 48.512 32.6215C48.512 32.6049 48.595 32.1565 48.6947 31.6251C49.0268 29.8315 48.1965 27.7224 46.7351 26.6098L46.0542 26.0784L46.4195 25.5303C47.0672 24.5505 47.2665 23.853 47.2665 22.5577C47.2499 21.0132 46.7185 19.7843 45.5892 18.7381C44.0779 17.3431 43.9949 17.3265 37.9333 17.2766C34.9773 17.2434 32.5693 17.1936 32.5693 17.177C32.5693 17.1438 33.3996 15.3834 34.3961 13.2411C36.5882 8.60777 36.7875 8.00992 36.6878 6.28278C36.5384 3.85816 35.16 1.7989 32.9346 0.752655C31.988 0.30426 31.6061 0.22123 30.3273 0.17141C29.1814 0.138191 28.6334 0.20462 27.9525 0.453728ZM31.8386 2.94478C33.4328 3.65888 34.3296 5.20333 34.1968 6.98028C34.1303 7.91027 33.848 8.60777 31.7721 12.992C30.4768 15.7156 29.4139 18.0738 29.3973 18.2232C29.3475 18.8045 29.4306 19.0868 29.7461 19.4023C30.0616 19.7179 30.3107 19.7345 36.1896 19.7345C42.5833 19.7511 43.0981 19.8009 43.8953 20.515C44.3437 20.9136 44.8585 22.0262 44.8585 22.6241C44.8585 22.8898 44.709 23.4378 44.5097 23.8364C44.1112 24.6668 43.0483 25.3809 42.2346 25.3809C41.4706 25.3809 40.823 26.0119 40.8396 26.726C40.8562 27.5564 41.3378 27.8719 42.5999 27.8719C43.9949 27.8719 44.7588 28.121 45.4397 28.7853C46.5026 29.8481 46.5524 31.376 45.5726 32.5385C44.9581 33.2526 44.244 33.5183 42.9155 33.5183C41.2714 33.5183 40.5406 34.1494 40.906 35.2288C41.1053 35.7768 41.371 35.9263 42.4505 36.0924C43.1147 36.192 43.4137 36.3415 43.9617 36.9061C45.1242 38.0686 45.1408 39.6795 43.9783 40.7922C43.2642 41.473 42.7328 41.6557 41.3876 41.6557C40.4908 41.6557 40.1587 41.7222 39.8099 42.0045C38.9464 42.6854 39.4944 44.1468 40.6237 44.1468C40.9226 44.1468 41.4706 44.3129 41.8692 44.5287C42.7162 44.9771 43.3638 46.0234 43.3638 46.97C43.3638 47.9166 42.7162 48.9628 41.8692 49.4112L41.1551 49.7932H29.4306C17.3573 49.7932 17.0749 49.7766 15.7132 49.1123L15.0489 48.7801L15.0821 35.0461C15.1153 25.796 15.1817 20.98 15.3146 20.3157C15.7132 18.1402 16.8258 16.5957 19.101 15.1011C20.7783 14.0051 22.2729 12.5768 23.2694 11.0988C23.6513 10.5342 24.5647 8.80705 25.2954 7.29581C26.0261 5.78458 26.79 4.30655 27.0225 4.02423C27.9691 2.7621 30.3107 2.24728 31.8386 2.94478ZM39.8764 58.1133V63.9423L39.3117 64.507L38.7471 65.0716H34.9939C31.0082 65.0716 30.6263 65.0052 30.128 64.2579C29.8623 63.8759 29.8291 63.2448 29.7793 58.0469L29.7295 52.2842H34.8112H39.8764V58.1133Z" fill="white"/>
<path d="M58.9744 7.87695C58.2437 8.29212 55.3208 11.4641 54.8724 12.3276C53.9258 14.1212 54.8891 16.579 56.8819 17.509C58.4596 18.2397 59.6054 17.974 61.4322 16.4462C64.3717 13.9717 64.9363 13.2078 64.9529 11.7132C64.9529 10.6337 64.5875 9.83658 63.6576 8.88998C62.5947 7.79391 61.864 7.44517 60.6849 7.44517C59.9542 7.44517 59.539 7.56141 58.9744 7.87695ZM61.864 10.5839C62.3788 11.0987 62.4785 11.3146 62.4286 11.763C62.3788 12.228 62.1131 12.5601 60.6019 13.8721C58.5924 15.5992 58.2603 15.7155 57.4631 14.9349C56.5996 14.0714 56.6992 13.8389 59.0242 11.215C60.4358 9.6539 60.851 9.55426 61.864 10.5839Z" fill="white"/>
<path d="M65.7833 18.9871C64.5543 19.4189 63.3586 19.8673 63.1261 19.9835C61.7478 20.6976 60.934 22.4414 61.2828 23.9526C61.5651 25.1815 62.1961 26.1447 63.0265 26.6264C64.1392 27.274 65.0193 27.2906 67.7595 26.726C70.6159 26.1447 71.2636 25.7794 71.9777 24.401C72.5091 23.3382 72.5423 22.6241 72.1105 21.2457C71.5459 19.4355 70.483 18.4889 68.8057 18.3062C68.1747 18.2398 67.5934 18.3727 65.7833 18.9871ZM69.4036 21.1959C69.7191 21.611 69.9682 22.7071 69.852 23.1721C69.7191 23.7035 69.1545 23.9194 66.6634 24.401L64.6208 24.783L64.2222 24.401C63.641 23.853 63.5081 23.1223 63.9067 22.5908C64.1392 22.2753 64.7702 21.9764 66.2981 21.4616C68.4072 20.7309 69.005 20.681 69.4036 21.1959Z" fill="white"/>
<path d="M10.1333 58.246C7.59239 58.7775 6.89489 59.176 6.26383 60.4382C5.76562 61.4512 5.7158 62.3646 6.08115 63.6599C6.62918 65.5365 7.90792 66.5662 9.68487 66.5662C10.3492 66.5662 11.1961 66.3503 12.8568 65.7524C15.4641 64.839 15.8129 64.6397 16.3941 63.743C17.0418 62.7632 17.1912 61.8996 16.8757 60.6873C16.3941 58.7941 15.0988 57.7478 13.2222 57.7811C12.6741 57.7811 11.2791 57.9969 10.1333 58.246ZM13.9695 60.4216C14.4511 60.6707 14.667 61.6837 14.3847 62.2483C14.1854 62.6469 13.8366 62.813 12.1095 63.3942C10.0834 64.0751 9.41916 64.1914 9.0372 63.9423C8.73827 63.7596 8.3231 62.6801 8.3231 62.1155C8.3231 61.3682 8.83791 61.0526 10.6979 60.6541C12.5911 60.2389 13.5045 60.1725 13.9695 60.4216Z" fill="white"/>
<path d="M18.4032 67.3633C17.3735 67.8283 14.0355 70.8176 13.6369 71.6147C13.2052 72.5447 13.1886 73.9895 13.6203 74.8365C14.0521 75.6502 15.3973 76.9456 16.1612 77.2777C16.9916 77.6098 18.2205 77.5932 19.0508 77.2113C19.7981 76.8791 22.7542 73.6906 23.3188 72.6277C24.0495 71.266 23.817 69.7049 22.721 68.4428C22.339 68.0276 21.7412 67.546 21.3592 67.3799C20.5289 66.998 19.2169 66.9814 18.4032 67.3633ZM20.7946 70.037C21.5751 70.8176 21.4588 71.1497 19.6985 73.209C18.2703 74.8365 18.0378 75.0358 17.5728 75.0358C16.7591 75.0358 15.746 73.9563 15.8291 73.1924C15.8623 72.7274 16.1446 72.3952 17.606 71.0999C19.5657 69.3396 19.9642 69.2067 20.7946 70.037Z" fill="white"/>
<path d="M27.8033 73.9729C26.5743 74.4213 25.9267 75.3347 25.0133 77.942C24.0335 80.7652 23.967 81.7284 24.6479 82.8909C24.897 83.3061 25.3288 83.8209 25.6111 84.0202C26.2256 84.452 27.9195 85 28.6668 85C29.9788 85 31.2907 84.1863 31.9052 83.0072C32.2705 82.2931 33.0677 78.4236 33.0677 77.394C33.0677 75.8495 31.955 74.4379 30.3773 73.9563C29.3311 73.6574 28.7166 73.6574 27.8033 73.9729ZM29.8293 76.4308C30.6431 76.7795 30.6929 77.1947 30.1947 79.7356C29.6965 82.2764 29.464 82.6086 28.3845 82.4425C27.4711 82.2931 26.9895 82.0273 26.7736 81.5623C26.6075 81.197 26.6906 80.8316 27.2718 79.0547C27.9527 76.9954 28.4343 76.1983 28.999 76.1983C29.1484 76.1983 29.5138 76.2979 29.8293 76.4308Z" fill="white"/>
</svg>
