<svg width="74" height="85" viewBox="0 0 74 85" fill="none" xmlns="http://www.w3.org/2000/svg">
<path d="M40.8219 0.251999C35.1227 1.01633 29.7891 3.47546 25.3195 7.38016C22.9932 9.44051 19.7199 13.5778 19.7199 14.5083C19.7199 15.4222 20.8498 16.037 21.6141 15.5385C21.8301 15.4056 22.1791 15.0068 22.3951 14.6579C23.1926 13.312 24.9041 11.2849 26.4992 9.75621C30.7196 5.75182 36.236 3.22622 41.9518 2.6779L43.3143 2.54498V13.312C43.3143 23.431 43.2977 24.0956 43.0318 24.1953C39.825 25.2753 37.9973 27.7843 38.2133 30.8084C38.396 33.6497 40.1739 35.8429 43.0318 36.7734C43.2977 36.8565 43.3143 37.571 43.3143 48.5872V60.3013H39.9912C36.2028 60.3013 35.3221 60.1684 34.4249 59.4373C33.6439 58.7893 33.3615 58.1246 33.1787 56.4465C33.0125 55.0341 32.5141 53.7381 31.7497 52.7245C31.5005 52.3922 30.5368 51.5947 29.6229 50.9466C27.2967 49.3183 24.0733 46.0616 22.6609 43.9182C21.3317 41.9243 19.9193 38.9833 19.3212 37.006C18.4405 34.1315 18.1747 32.3536 18.1747 29.3129C18.1581 25.6575 18.4571 23.8464 19.6701 20.141C20.2184 18.4795 20.2683 18.2468 20.0689 17.8647C19.6036 17.0173 18.3242 16.9508 17.9088 17.7484C17.2608 18.9447 16.2639 22.4506 15.8817 24.8267C15.5494 26.8538 15.5992 31.9382 15.9648 33.9654C16.6959 38.0196 18.6732 42.7385 20.9994 46.0118C22.3951 47.9558 25.4856 51.0796 27.3466 52.4088C30.0716 54.3695 30.4205 54.8347 30.6863 56.9117C30.9023 58.6397 31.1017 59.2047 31.8661 60.3179L32.4975 61.265L32.0821 61.6472C31.8661 61.8632 31.5005 62.4115 31.2679 62.8601C30.4371 64.5882 30.57 66.7648 31.6334 68.2935L32.215 69.1409L31.8661 69.5064C30.7196 70.7194 30.3706 73.5441 31.1682 75.1226C31.9824 76.7177 33.4778 77.7312 35.2391 77.8642L36.3025 77.9639L36.4852 78.6783C36.8009 79.9245 37.532 81.2538 38.4293 82.2341C39.5591 83.4304 40.3733 83.9954 41.7358 84.4938C46.2387 86.1388 51.24 83.6298 52.6357 79.0605L52.9681 77.9639L53.9318 77.8642C56.4574 77.6482 58.1854 75.9866 58.5011 73.5108C58.7005 72.0653 58.3017 70.7692 57.2383 69.2406C57.0721 69.008 57.1054 68.8917 57.3878 68.576C58.5343 67.3464 58.85 64.8208 58.0857 63.126C57.554 61.9961 56.7897 61.1986 55.693 60.7001C54.8955 60.3179 54.7293 60.3013 50.4258 60.3013H45.9728V48.5041C45.9728 37.3882 45.9894 36.7069 46.2719 36.7069C46.7704 36.7069 48.1993 35.9426 48.9803 35.2448C50.5255 33.8657 51.3729 31.4065 50.9742 29.3794C50.5089 27.0366 49.1464 25.3584 47.0196 24.4778L46.0559 24.0956L45.9728 12.448L45.8897 0.783707L45.4245 0.384926C45.0257 0.0359955 44.7931 -0.013855 43.7629 0.00276184C43.0983 0.0193787 41.7857 0.119072 40.8219 0.251999ZM43.3143 30.4927V34.2312L42.6497 33.8657C40.1573 32.4533 40.041 28.748 42.4503 27.2194C42.8657 26.9535 43.2312 26.7375 43.2645 26.7375C43.2977 26.7375 43.3143 28.4323 43.3143 30.4927ZM47.3685 27.668C48.4984 28.8145 48.8806 30.7585 48.2326 32.0545C47.8504 32.7856 47.0362 33.6663 46.4381 33.982L45.9728 34.2312V30.476V26.7209L46.4381 26.9701C46.6873 27.103 47.1027 27.4187 47.3685 27.668ZM54.7792 63.0429C55.6598 63.4915 55.9423 64.0399 55.9423 65.286C55.9423 66.1667 55.8758 66.499 55.5933 66.8479C54.9786 67.6289 54.4635 67.7784 52.3865 67.7784C50.6252 67.7784 50.4425 67.8116 50.0271 68.1606C49.7114 68.443 49.5784 68.7089 49.5784 69.091C49.5784 70.0381 49.8941 70.1711 52.2536 70.2708C55.2278 70.4037 55.9423 70.9022 55.9423 72.8462C55.9423 74.0592 55.5933 74.7072 54.7293 75.1059C54.0647 75.3884 53.5164 75.4216 44.7266 75.4216C38.8114 75.4216 35.1892 75.3552 34.807 75.2555C33.4778 74.8899 32.8464 73.1619 33.4778 71.7163C34.076 70.3538 34.0427 70.3538 40.9881 70.304C46.9033 70.2541 47.0528 70.2541 47.4184 69.9052C47.8836 69.4732 47.9169 68.7753 47.4849 68.2603L47.1692 67.8615L40.9549 67.7784C34.3916 67.6953 34.3584 67.6787 33.7104 66.8645C32.7633 65.6682 33.3282 63.4085 34.6741 62.91C34.807 62.8601 39.2767 62.8103 44.6103 62.8103C52.8517 62.7937 54.3638 62.8269 54.7792 63.0429ZM50.2929 78.1134C50.2929 78.6119 49.4289 80.1239 48.7643 80.7885C46.139 83.4138 41.7192 82.9486 39.7419 79.8414C39.4595 79.3762 39.1271 78.7448 39.0274 78.4457L38.8447 77.914H44.5771C49.0301 77.914 50.2929 77.9639 50.2929 78.1134Z" fill="white"/>
<path d="M10.7806 0.70062C10.5646 0.93324 10.415 1.29879 10.415 1.61449C10.415 2.07973 10.7474 2.42866 13.788 5.08718C15.6324 6.71552 17.3937 8.26079 17.6927 8.51002C18.4404 9.10819 19.238 9.1248 19.7032 8.52664C20.1186 7.99493 20.1353 7.66262 19.7863 7.16415C19.5205 6.76537 13.14 1.0994 12.4255 0.61754C11.8274 0.218762 11.2126 0.251994 10.7806 0.70062Z" fill="white"/>
<path d="M52.1368 2.94376C51.7214 3.37577 50.4254 4.87119 49.2623 6.26691C46.9859 8.99189 46.8031 9.37406 47.4678 10.0885C47.8998 10.5538 48.7804 10.5704 49.229 10.1384C49.4284 9.97223 50.4586 8.77589 51.5386 7.47986C52.6186 6.20045 53.5657 5.13704 53.6488 5.13704C53.8316 5.13704 61.6078 9.59006 61.9068 9.87253C62.0896 10.0553 61.9401 10.587 61.0262 13.1126C60.428 14.7908 59.9296 16.3693 59.9296 16.6351C59.9296 16.9675 60.2785 17.5989 61.0428 18.6456C62.0065 19.9915 63.3192 22.434 63.6515 23.5473C63.718 23.7467 63.934 23.9959 64.1334 24.1122C64.3327 24.2285 65.9611 24.5775 67.739 24.9098L70.979 25.5079V30.4761V35.4275L67.6061 36.0423C65.6122 36.3913 64.15 36.7402 64.017 36.8897C63.8841 37.0227 63.5518 37.6873 63.2527 38.3685C62.5881 39.947 62.1229 40.7778 60.9099 42.4726C60.2453 43.3865 59.9296 43.9847 59.9296 44.317C59.9296 44.5828 60.428 46.1613 61.0262 47.8395C61.7075 49.7171 62.0564 50.93 61.9733 51.0131C61.7573 51.2291 53.7817 55.8151 53.6322 55.8151C53.5657 55.8151 52.6851 54.8181 51.6715 53.6052C50.658 52.4088 49.6278 51.2125 49.3786 50.9467C48.797 50.3817 47.9662 50.3319 47.4678 50.8636C46.7865 51.5947 46.9527 51.927 49.794 55.3C52.4026 58.3905 52.818 58.8059 53.3664 58.8059C53.7319 58.8059 64.2663 52.7245 64.6318 52.2925C64.7814 52.1098 64.9143 51.7774 64.9143 51.5614C64.9143 51.3621 64.3826 49.7005 63.7346 47.8727L62.5549 44.5662L63.4853 43.2037C64.0004 42.4394 64.7481 41.1766 65.1303 40.3624L65.8116 38.9169L68.9021 38.3852C70.5969 38.0861 72.2585 37.7704 72.5908 37.6873C73.704 37.4048 73.7206 37.3384 73.7206 30.4927C73.7206 26.9369 73.6542 24.2618 73.5545 24.0125C73.4714 23.7633 73.2222 23.4974 73.0228 23.4144C72.8068 23.3147 71.112 22.9657 69.251 22.6168L65.8448 22.002L64.9974 20.3405C64.5488 19.41 63.801 18.1638 63.369 17.5656C62.937 16.9508 62.5881 16.4025 62.5881 16.3527C62.5881 16.2862 63.1198 14.7908 63.7512 13.0129C64.3992 11.235 64.9143 9.55683 64.9143 9.30759C64.9143 9.04174 64.7648 8.70943 64.5488 8.51004C63.8509 7.91187 53.6654 2.14621 53.2833 2.14621C53.034 2.14621 52.6186 2.44529 52.1368 2.94376Z" fill="white"/>
<path d="M47.8506 18.5957C47.0863 18.9114 46.9035 19.9748 47.5183 20.5564C47.7177 20.7391 48.2494 21.0548 48.698 21.2542C50.7916 22.1515 52.6692 23.9792 53.6827 26.1392C54.4138 27.6679 54.6797 28.831 54.6797 30.476C54.6797 32.1209 54.4138 33.284 53.6993 34.796C52.6526 36.9893 50.9079 38.7007 48.6482 39.7309C48.0666 39.9968 47.4851 40.3291 47.3687 40.4953C47.0697 40.8774 47.0863 41.542 47.3854 41.9741C47.7841 42.539 48.3491 42.5722 49.4789 42.0904C52.2205 40.9439 54.5634 38.7506 55.8428 36.1419C56.8896 34.0151 57.1554 32.8686 57.1554 30.476C57.1554 28.0833 56.8896 26.9368 55.8428 24.81C54.5966 22.2512 52.2372 20.008 49.6285 18.8948C48.4488 18.3963 48.3823 18.3797 47.8506 18.5957Z" fill="white"/>
<path d="M1.17655 20.7559C0.744538 20.922 0.279297 21.5534 0.279297 21.9522C0.279297 22.1017 0.445454 22.4174 0.661459 22.6667C0.993774 23.0488 1.49225 23.1818 5.9785 24.079C8.68687 24.6107 11.0463 25.0095 11.2125 24.9597C11.7442 24.7769 12.0765 24.3615 12.0765 23.8796C12.0765 23.215 11.8439 22.8328 11.2955 22.6168C10.93 22.4673 6.54343 21.57 1.85779 20.6894C1.67502 20.6396 1.35932 20.6894 1.17655 20.7559Z" fill="white"/>
<path d="M11.827 40.3292C11.1125 40.4622 2.67168 43.3865 2.33936 43.6025C1.57504 44.101 1.80766 45.5632 2.6883 45.7792C3.13692 45.8955 11.7771 43.0875 12.7076 42.5225C13.1396 42.2567 13.2393 42.0905 13.2393 41.6419C13.2393 40.7114 12.6577 40.1631 11.827 40.3292Z" fill="white"/>
<path d="M21.1823 55.3498C20.5176 55.8815 14.5526 62.8601 14.4695 63.2257C14.3532 63.7075 14.752 64.4054 15.2837 64.6048C15.9982 64.8706 16.5299 64.4386 19.1551 61.4312C23.658 56.2969 23.5583 56.4631 22.8605 55.5824C22.4783 55.1006 21.6475 54.9843 21.1823 55.3498Z" fill="white"/>
</svg>
