<svg width="82" height="85" viewBox="0 0 82 85" fill="none" xmlns="http://www.w3.org/2000/svg">
<path d="M38.6695 0.095829C33.2862 0.943207 28.9496 3.90072 26.6567 8.23729C25.9589 9.58313 25.0616 12.2416 25.0284 13.1056C24.962 14.7505 27.1718 14.9498 27.4875 13.3216C28.3515 8.98498 31.2757 5.31301 35.2135 3.65149C37.224 2.80411 38.8191 2.50504 41.195 2.50504C43.4879 2.52165 44.9168 2.82073 46.9439 3.75118C50.0509 5.16348 52.8257 8.15422 54.0718 11.444C55.3346 14.8169 55.1851 18.9043 53.6731 22.111C53.4238 22.6593 51.3636 25.9824 49.0873 29.5048L44.9667 35.9016L44.8504 37.1478C44.7673 38.045 44.7341 38.1945 44.7008 37.6462C44.6842 36.8653 45.1162 29.0396 45.2824 27.2119L45.3821 26.1817H46.3125C48.4725 26.1651 50.0011 24.6531 50.0011 22.5098C50.0011 22.1941 49.8017 21.5129 49.5525 21.0144C48.622 19.1867 46.4621 18.572 44.7341 19.6353C43.6873 20.2833 43.0227 21.5129 43.0227 22.7922V23.6895H41.1286H39.251L39.1347 22.6427C38.9852 21.3301 38.6529 20.6655 37.8388 19.9676C36.144 18.5055 33.5686 19.0372 32.5385 21.0809C32.04 22.0445 32.1397 23.7227 32.7545 24.6365C33.3693 25.567 34.632 26.1817 35.9114 26.1817H36.8751V26.7134C36.8751 27.0125 37.0246 29.6543 37.2074 32.5786C37.5895 38.8758 37.5729 38.3109 37.3735 38.3109C37.2738 38.3109 37.2074 37.8124 37.2074 37.1478V35.9847L33.12 29.6211C30.8604 26.1319 28.7668 22.7424 28.4512 22.0778C28.1521 21.4132 27.7533 20.2169 27.5539 19.4193C27.1884 17.8243 26.8561 17.3757 26.0586 17.3757C25.3773 17.3757 24.9121 17.9074 24.9121 18.6883C24.9121 19.5024 25.5933 21.895 26.2247 23.2408C26.4906 23.8058 28.501 27.079 30.7108 30.5017L34.7151 36.7324V37.8955C34.7317 38.5933 34.8148 39.2247 34.9643 39.4739C35.1471 39.773 35.1969 40.5207 35.2135 42.2985C35.2135 45.3059 35.3465 45.8209 36.3766 46.8178C37.44 47.848 38.1711 47.9975 41.6104 47.9311C44.1692 47.8646 44.3021 47.848 45.0664 47.3994C45.4984 47.1502 46.0633 46.6185 46.3125 46.2529C46.7445 45.5883 46.7611 45.472 46.8442 42.7305C46.8941 40.9028 46.9937 39.7564 47.1433 39.5238C47.243 39.3244 47.3427 38.6432 47.3427 38.0118V36.8653L51.2805 30.7343C53.4571 27.3614 55.5174 24.0218 55.8663 23.3073C57.129 20.7652 57.7106 17.1929 57.3284 14.3185C56.2484 6.22685 49.702 0.261982 41.6104 0.0127525C40.5138 -0.0204773 39.1846 0.0127525 38.6695 0.095829ZM36.3766 21.9449C36.4597 22.0445 36.5926 22.4932 36.6425 22.9252L36.7588 23.6895H36.0111C35.0806 23.6895 34.6652 23.3073 34.7483 22.5098C34.8314 21.6624 35.8449 21.3135 36.3766 21.9449ZM47.0768 21.8784C47.9574 22.5762 47.4091 23.6895 46.1796 23.6895H45.515V22.9584C45.515 22.3602 45.5981 22.1609 45.947 21.8784C46.1962 21.679 46.4454 21.5295 46.5119 21.5295C46.5784 21.5295 46.8276 21.679 47.0768 21.8784ZM42.7402 27.5442C42.6904 28.3085 42.5243 31.0168 42.3747 33.5755L42.1089 38.2278L41.0787 38.2776C40.1649 38.3275 40.032 38.2942 40.032 38.0284C40.032 37.8622 39.8824 35.3367 39.6997 32.4124C39.5169 29.4882 39.3674 26.8962 39.3674 26.6304V26.1817H41.112H42.8399L42.7402 27.5442ZM44.3519 42.7803C44.3519 44.7409 44.3519 44.7742 43.9033 45.1231C43.4713 45.4554 43.2885 45.472 40.896 45.4222C37.6228 45.3557 37.7058 45.4222 37.7058 42.6973V40.8031H41.0289H44.3519V42.7803Z" fill="white"/>
<path d="M16.4888 8.00457C16.1565 8.33687 16.09 8.51964 16.1731 8.95163C16.2395 9.23409 16.3725 9.5664 16.4888 9.6827C16.738 9.93193 19.8284 11.0618 20.277 11.0618C20.7423 11.0618 21.4235 10.3307 21.4235 9.84886C21.4235 9.16763 20.9084 8.75225 19.2801 8.1541C17.4192 7.45626 17.0537 7.43965 16.4888 8.00457Z" fill="white"/>
<path d="M62.9285 8.12087C61.2338 8.75225 60.8018 9.08456 60.8018 9.81563C60.8018 10.4138 61.3833 11.0618 61.915 11.0618C62.4134 11.0618 65.2713 9.96516 65.6368 9.63286C66.0688 9.23409 66.0522 8.33687 65.5869 7.90487C65.1051 7.45626 64.6399 7.48949 62.9285 8.12087Z" fill="white"/>
<path d="M14.6774 16.5782C14.3118 16.7443 13.9463 17.3591 13.9463 17.7745C13.9463 17.8908 14.0958 18.1899 14.2952 18.4391C14.6275 18.8711 14.6607 18.8711 16.6878 18.8711C18.7149 18.8711 18.7481 18.8711 19.0804 18.4391C19.6453 17.7246 19.5124 17.0102 18.7481 16.628C18.1998 16.329 15.2423 16.2957 14.6774 16.5782Z" fill="white"/>
<path d="M63.2276 16.7277C62.6793 17.1597 62.6294 18.0403 63.1279 18.5388C63.427 18.8379 63.6762 18.8711 65.454 18.8711C67.2319 18.8711 67.4811 18.8379 67.7802 18.5388C68.2786 18.0403 68.2288 17.1597 67.6805 16.7277C67.2983 16.4287 66.9992 16.3788 65.454 16.3788C63.9088 16.3788 63.6097 16.4287 63.2276 16.7277Z" fill="white"/>
<path d="M18.1832 24.9355C16.4884 25.5835 16.0232 25.9989 16.1727 26.7632C16.2891 27.2949 16.6214 27.6272 17.2029 27.7767C17.3857 27.8266 18.3161 27.5607 19.2798 27.1786C20.6589 26.6635 21.0742 26.4143 21.2238 26.082C21.5062 25.5004 21.473 25.301 21.0742 24.786C20.609 24.2044 20.0275 24.2211 18.1832 24.9355Z" fill="white"/>
<path d="M61.1338 24.6863C60.6685 25.1515 60.6852 26.0654 61.1836 26.4641C61.3996 26.6303 62.3301 27.0291 63.2605 27.3448L64.9387 27.9097L65.4039 27.5774C65.9023 27.1952 66.0851 26.4309 65.8026 25.8826C65.6033 25.5005 62.6956 24.354 61.9645 24.354C61.6821 24.354 61.3165 24.5035 61.1338 24.6863Z" fill="white"/>
<path d="M59.356 41.1187C58.3093 41.3846 57.545 41.9495 52.7764 46.0036L47.9081 50.1076L36.8756 50.1574C27.189 50.2073 25.6936 50.2405 24.6967 50.4897C22.1712 51.1211 19.5958 52.1679 19.1472 52.7494C18.8481 53.1482 18.8813 53.6632 19.2801 54.1617C19.7287 54.7432 20.1607 54.71 21.9219 54.0121C22.7195 53.6965 23.9988 53.2645 24.7631 53.0485C26.1422 52.6829 26.3083 52.6829 36.7427 52.6829H47.31L47.958 53.198C48.7389 53.8128 49.3371 54.9426 49.3371 55.8232C49.3371 56.7703 48.7555 57.8503 47.958 58.382L47.2934 58.8306L40.8134 58.9136L34.3501 58.9967L34.0344 59.3955C33.619 59.8939 33.6357 60.6582 34.051 61.0736C34.3667 61.3893 34.5993 61.4059 40.8633 61.4059C48.1906 61.4059 48.4066 61.3727 49.8687 60.0767L50.6164 59.4287L56.4151 59.3789C61.7154 59.329 62.2803 59.2958 62.9449 59.0133C63.3935 58.814 66.1683 56.5875 69.8402 53.4638C73.2298 50.5894 76.1706 48.1802 76.3866 48.0971C78.3639 47.3328 80.2746 49.3931 79.2943 51.2374C78.8457 52.0516 59.8711 68.052 58.492 68.7831C57.0964 69.5142 56.0164 69.8132 53.7401 70.1289C52.3444 70.3283 51.8293 70.4778 51.5469 70.7437C50.9321 71.3252 51.065 72.2224 51.8127 72.6212C52.1949 72.8206 52.5272 72.804 54.1555 72.6046C56.465 72.3055 58.6083 71.6243 60.1037 70.7437C61.3 70.0292 62.2803 69.2317 71.7676 61.1733C81.3048 53.0817 81.0223 53.3309 81.5374 52.3839C81.9029 51.6528 81.986 51.3039 81.986 50.1906C81.986 49.011 81.9361 48.7617 81.4709 47.9476C79.9589 45.2725 76.6525 44.6412 74.127 46.5685C73.8279 46.8011 73.5621 46.9507 73.5288 46.9341C73.5122 46.9008 73.3128 46.4688 73.0968 45.987C71.8341 43.2123 68.212 42.3815 65.7861 44.2922L65.1548 44.7907L64.9554 44.2092C64.6397 43.2289 63.5763 42.0492 62.596 41.5673C61.6489 41.1021 60.2034 40.9027 59.356 41.1187ZM61.3831 43.7938C61.7486 43.9766 62.1806 44.3421 62.3468 44.6245C62.7123 45.2393 62.7455 46.2362 62.4299 46.851C62.2969 47.1002 59.8711 49.2768 57.0465 51.6694L51.9124 56.0392L51.8127 55.2583C51.6632 54.1118 51.3807 53.3642 50.7327 52.4337C50.417 51.9851 50.1678 51.5863 50.1678 51.5531C50.1678 51.4866 57.5616 45.1728 58.841 44.1593C59.7216 43.4282 60.436 43.3286 61.3831 43.7938ZM70.0396 46.1033C71.0033 46.6848 71.3688 48.0639 70.8205 49.0608C70.5713 49.4928 64.3738 54.9592 62.4963 56.3881L61.9148 56.8367L58.3259 56.8866C55.2022 56.9364 54.7702 56.9032 54.9862 56.7038C55.5179 56.2054 67.215 46.3359 67.6138 46.0701C68.1621 45.6879 69.3916 45.7045 70.0396 46.1033Z" fill="white"/>
<path d="M14.1458 56.3716C12.7335 57.8338 11.6203 59.4454 10.6233 61.4227C9.97534 62.702 8.86212 64.214 4.9077 69.2152C-0.27625 75.7616 -0.375942 75.9111 0.321898 76.6588C0.670818 77.0243 1.53481 77.1573 1.91696 76.8914C2.01665 76.825 4.29294 74.0004 6.9846 70.6275C10.6898 65.9586 12.019 64.1642 12.5009 63.1672C13.3981 61.3063 14.4116 59.7944 15.6578 58.4818C16.2393 57.8504 16.8042 57.1692 16.9205 56.9698C17.3359 56.1722 16.6879 55.2584 15.7076 55.2584C15.3421 55.2584 14.9931 55.5076 14.1458 56.3716Z" fill="white"/>
<path d="M40.381 71.7241C35.1805 72.3721 33.7515 72.6047 33.5023 72.8373C33.3196 72.9868 31.2759 75.3794 28.9664 78.1542C25.3442 82.4741 24.7461 83.2716 24.7461 83.7369C24.7461 84.4015 25.3276 84.9996 25.9756 84.9996C26.5405 84.9996 26.4076 85.1492 31.1097 79.4834L34.9146 74.9308L40.9127 74.2163C44.2191 73.8342 47.1434 73.4354 47.4093 73.3523C48.0074 73.1696 48.3231 72.7542 48.3397 72.1561C48.3397 71.7241 47.8413 71.0428 47.5256 71.0428C47.4425 71.0428 47.2763 71.0096 47.1434 70.9764C47.0271 70.9431 43.9865 71.2754 40.381 71.7241Z" fill="white"/>
</svg>
