<svg width="64" height="85" viewBox="0 0 64 85" fill="none" xmlns="http://www.w3.org/2000/svg">
<path d="M16.2705 0.298935C15.3737 0.74733 15.0748 1.29537 14.8921 2.83985C14.8091 3.60379 14.7094 4.38434 14.6596 4.56702C14.6264 4.79952 14.1116 5.14828 13.0321 5.69632C12.1851 6.12811 11.1222 6.75919 10.7071 7.07473L9.92651 7.67259L8.3322 6.97508C6.57182 6.19453 5.87431 6.16132 5.01073 6.77579C4.37965 7.22419 0.809076 13.4187 0.692824 14.2657C0.559966 15.2954 1.00836 15.9929 2.50302 17.0723L3.815 18.019L3.71536 19.6797C3.66554 20.5931 3.68215 21.8386 3.76518 22.4531L3.89804 23.5658L2.51963 24.5623C0.975149 25.6916 0.543358 26.3558 0.692824 27.4187C0.742646 27.7841 1.5398 29.3618 2.6691 31.3214C4.41287 34.3606 4.62876 34.6595 5.30966 35.0083C6.20646 35.4899 6.62164 35.4401 8.48167 34.6263L9.87668 34.0118L10.9562 34.7758C11.554 35.191 12.6003 35.7888 13.2646 36.1044C14.6264 36.7686 14.7592 36.8849 14.7592 37.6488V38.1969H10.0428C7.4354 38.1969 5.12698 38.2633 4.89448 38.363C4.13054 38.6453 4.04751 39.0439 4.08072 42.1826C4.09733 45.1055 4.32983 47.7959 5.04395 53.4756L5.42592 56.5314L4.79484 57.2289C3.63232 58.491 3.1175 59.8528 3.1175 61.6132C3.10089 64.3867 4.82805 66.8113 7.45201 67.6749L8.24916 67.9406L8.36541 70.0498C8.49827 72.5575 8.76399 73.9525 9.44489 75.6962C10.9063 79.4827 14.4105 82.7544 18.3298 84.0165C20.4888 84.714 22.1495 84.8469 29.8719 84.9631C38.3084 85.096 44.9016 84.8635 46.9443 84.3653C49.3523 83.784 52.4745 82.1067 52.8233 81.2265C53.0392 80.6286 52.624 79.765 52.0261 79.6156C51.5611 79.4993 51.1625 79.6654 49.6513 80.612C48.5054 81.3427 46.5789 81.9738 44.8185 82.2063C42.643 82.472 30.3701 82.6049 25.471 82.389C22.1329 82.2561 20.8541 82.1399 19.8577 81.8908C15.7059 80.8113 12.3346 77.44 11.2551 73.2882C10.8731 71.7935 10.6572 66.2633 10.7403 60.5337L10.8067 57.2123L11.5706 56.6975C12.484 56.0996 13.6964 54.6548 14.3939 53.3428C14.6762 52.8279 15.191 51.516 15.573 50.4531C16.3369 48.2111 16.5528 47.7627 17.2171 47.0652C17.9645 46.2514 18.8945 45.7034 20.057 45.4045C21.8838 44.9395 23.2788 45.3214 25.2883 46.8659C26.9324 48.0949 28.5101 48.8754 30.3701 49.3404C31.5493 49.6393 32.0973 49.6892 33.7746 49.6227C36.764 49.4899 38.5243 48.8422 41.0985 46.8991C42.809 45.6038 43.6394 45.2716 45.1507 45.2716C46.5789 45.2716 47.8078 45.7366 48.8541 46.65C49.7343 47.4306 50.1163 48.1281 50.8802 50.4033C51.2622 51.516 51.8932 53.0106 52.2918 53.7081C52.9727 54.8873 54.567 56.6476 55.3642 57.096C55.6797 57.2621 55.6963 57.478 55.7462 61.7295C55.8126 66.9276 55.5635 71.9098 55.1981 73.3214C55.0486 73.8694 54.6833 74.8659 54.3677 75.5468C53.6536 77.0248 53.637 77.5729 54.2183 78.0379C54.4674 78.2372 54.7829 78.3866 54.949 78.3866C55.796 78.3866 56.7426 76.8422 57.5231 74.1518C57.8719 72.9726 57.9881 72.1589 58.0546 70.2989L58.1542 67.9406L58.9846 67.6749C60.6453 67.1269 62.1068 65.8149 62.8873 64.1375C63.2693 63.3238 63.3357 62.975 63.3357 61.6132C63.3357 60.185 63.2859 59.9359 62.8209 58.9561C62.5386 58.3582 61.9739 57.5444 61.5587 57.1292L60.8114 56.3819L61.4425 53.8244C62.605 49.1411 63.0866 45.5871 63.0866 41.6678C63.0866 38.4128 63.0368 38.3297 61.293 38.2301C60.1471 38.1637 60.1139 38.1471 60.0142 37.6821C59.8648 37.0012 59.3333 36.4199 57.9881 35.4733L56.8422 34.6595L56.9917 33.2977C57.0581 32.5504 57.0581 31.338 56.9751 30.5741L56.8422 29.2123L58.0878 28.2657C59.6987 27.0534 60.1471 26.3891 60.0475 25.459C59.9478 24.446 56.4104 18.3345 55.6299 17.8197C54.8161 17.2716 53.9858 17.3215 52.3915 18.0522C51.6607 18.3843 50.9798 18.65 50.8802 18.65C50.7972 18.65 50.1993 18.2847 49.5516 17.8529C48.9205 17.4211 47.9075 16.8398 47.3096 16.5575C46.7118 16.2752 46.1969 16.0261 46.1637 15.9929C46.1139 15.9597 45.9976 15.1957 45.898 14.2823C45.6821 12.4887 45.433 11.9573 44.6026 11.4591C44.1376 11.1767 43.7557 11.1269 41.5801 11.1269H39.089L37.9265 9.10082C37.2954 7.98813 36.5647 6.94186 36.3322 6.77579C35.5018 6.16132 34.7379 6.21114 32.9941 6.97508L31.3998 7.67259L30.4034 6.92526C29.8553 6.52669 28.809 5.91222 28.0617 5.54685C26.5837 4.84934 26.6501 4.94899 26.4674 2.85646C26.3346 1.46145 25.936 0.730721 25.0558 0.298935C24.5576 0.0332184 23.9597 0 20.6548 0C17.35 0 16.7521 0.0332184 16.2705 0.298935ZM23.8933 2.52431C24.0261 4.05219 24.4081 6.01186 24.6406 6.37722C24.8399 6.67615 25.5208 7.10794 26.6169 7.63937C27.5469 8.08778 28.7592 8.80189 29.3405 9.23368C30.8019 10.3132 31.4662 10.3796 33.3262 9.54922C34.0902 9.21707 34.8043 8.98457 34.9039 9.01778C35.0202 9.0676 35.3523 9.54922 35.6513 10.1139L36.1993 11.1269L35.8173 11.2764C35.6015 11.3594 35.2195 11.6417 34.9704 11.9241C34.5054 12.4057 34.4389 12.6714 34.1068 15.2788C34.0071 16.0261 33.9905 16.0261 32.8114 16.5741C31.9977 16.9561 31.5991 17.0557 31.5493 16.9229C31.516 16.8066 31.1839 16.1257 30.8185 15.3784C29.8221 13.4021 27.9953 11.6085 25.8862 10.5623C22.4983 8.90154 18.9941 8.86832 15.6726 10.4626C12.7165 11.8909 10.6904 14.1993 9.66079 17.3547C8.88024 19.6963 9.07953 24.0308 9.99293 24.6619C10.4912 25.0107 11.2053 24.9774 11.6205 24.5623C11.9194 24.2633 11.9526 24.0806 11.8696 23.3499C11.4544 20.0783 11.6371 18.6334 12.6999 16.5907C15.3903 11.4757 22.299 10.2135 26.6667 14.0498C27.6465 14.8968 28.6264 16.2918 29.0748 17.4875C29.573 18.7995 29.4733 18.8327 27.8126 18.102C26.2349 17.3879 25.4876 17.2882 24.7236 17.6868C24.076 18.019 23.7106 18.5338 21.8174 21.8386C19.4757 25.8908 19.4923 26.4389 21.9004 28.166C22.6311 28.6975 23.229 29.2123 23.229 29.3286C23.229 29.4448 22.847 29.6109 22.3986 29.7105C19.8245 30.2586 16.885 29.478 14.7426 27.6512C13.6465 26.7212 13.2148 26.5883 12.6335 27.0201C12.318 27.2526 12.1685 27.535 12.1353 27.9834C12.0855 28.548 12.1685 28.6809 12.8826 29.3452C13.9621 30.3582 15.656 31.338 17.2005 31.8529C18.3298 32.2182 18.7948 32.2847 20.7877 32.2847C22.9467 32.3013 23.0629 32.3179 23.0629 32.6334C23.0629 32.8161 23.1127 33.3475 23.1626 33.8125L23.2622 34.6595L22.382 35.2906C20.9538 36.3036 20.2563 37.051 20.14 37.6488L20.0404 38.1969H18.662H17.3002L17.1839 37.051C17.0178 35.3736 16.7023 35.0083 14.4769 33.8956C13.4473 33.3808 12.3346 32.7165 11.9858 32.4507C10.6074 31.338 9.9099 31.2882 7.96684 32.1352C7.25272 32.4507 6.58843 32.7165 6.50539 32.7165C6.42236 32.7165 5.6252 31.4709 4.76162 29.943L3.16732 27.1696L4.46269 26.223C6.20646 24.9442 6.37253 24.6619 6.2895 23.1838C6.20646 21.6726 6.20646 19.9952 6.2895 18.484C6.37253 17.0225 6.22307 16.7568 4.52912 15.4946C3.89804 15.0296 3.36661 14.5646 3.33339 14.465C3.25035 14.1993 6.3061 8.96796 6.53861 8.96796C6.65486 8.96796 7.33576 9.23368 8.04988 9.56583C9.86007 10.3962 10.4247 10.3298 12.2017 9.08421C12.949 8.56939 14.1946 7.85527 14.9751 7.48991C16.6691 6.70937 17.0012 6.27757 17.1673 4.7497C17.2171 4.20166 17.3002 3.45433 17.35 3.10558L17.4496 2.4911H20.6715C22.4484 2.4911 23.8933 2.50771 23.8933 2.52431ZM43.3239 13.7343C43.3239 13.8173 43.4069 14.5314 43.5065 15.3618C43.7557 17.4377 43.9715 17.7366 45.898 18.6666C46.745 19.0652 48.057 19.8292 48.8043 20.3274C50.4484 21.4567 50.8138 21.4899 52.79 20.5931C53.8529 20.1115 54.2515 20.0118 54.3843 20.1447C54.484 20.261 55.2479 21.5231 56.0783 22.9513L57.573 25.5753L56.1945 26.5717C54.401 27.8671 54.2017 28.2989 54.4674 30.3914C54.5836 31.4045 54.5836 32.3179 54.4674 33.3808C54.2183 35.5563 54.3843 35.9051 56.1613 37.2337L57.4733 38.1969H49.8505H42.2444L43.1578 37.6821C47.0937 35.5231 47.8245 30.3914 44.6525 27.2194C41.5137 24.0806 36.1329 25.0107 34.14 29.0462C33.6418 30.0593 33.6086 30.242 33.6086 31.8861C33.6086 33.4306 33.6584 33.7295 34.057 34.5931C34.6216 35.8054 35.9834 37.2337 37.0629 37.7817L37.9099 38.1969H30.2871C26.1021 38.1969 22.7308 38.1305 22.8304 38.064C22.9134 37.981 23.5113 37.5326 24.1756 37.0676C24.8233 36.586 25.4045 36.0711 25.4876 35.9051C25.554 35.7556 25.6204 33.9454 25.637 31.9027C25.6703 27.6014 25.7865 27.9335 23.7272 26.4057C23.0795 25.9241 22.5979 25.4923 22.6311 25.4424C22.6643 25.376 23.3784 24.1305 24.2254 22.669C25.0558 21.2076 25.7699 19.9952 25.7865 19.962C25.8197 19.9454 26.5172 20.2277 27.331 20.5931C29.4069 21.5065 29.8719 21.4733 31.4496 20.261C32.2302 19.6631 34.8209 18.2681 35.1364 18.2681C35.3357 18.2681 36.0831 17.4543 36.3156 17.0225C36.3986 16.8398 36.5315 16.1257 36.5979 15.4448C36.7806 13.4187 36.3986 13.618 40.102 13.618C41.879 13.618 43.3239 13.6678 43.3239 13.7343ZM42.0451 28.3653C43.9882 29.395 44.7189 31.7698 43.6892 33.7295C42.3274 36.3535 38.9395 36.8019 37.0131 34.6097C36.2824 33.7627 36.0166 33.0652 36.0166 31.9193C36.0166 28.7639 39.2385 26.8707 42.0451 28.3653ZM60.5955 42.3985C60.5955 45.2384 59.7983 50.5195 58.8019 54.1399C58.4864 55.3523 58.3535 55.4187 57.2408 55.1364C56.2942 54.8706 54.9822 53.5255 54.2349 52.0308C53.9193 51.4163 53.3879 50.0711 53.0558 49.0747C52.325 46.9157 51.7604 45.9691 50.5314 44.8564C49.4021 43.8268 48.223 43.2455 46.5789 42.9134C44.2539 42.4318 42.1281 42.9964 39.9194 44.6903C37.6442 46.4341 35.6679 47.1648 33.2764 47.1648C30.7687 47.1648 29.0083 46.5338 26.6833 44.79C25.0226 43.5444 24.0095 43.0794 22.4484 42.8469C19.4425 42.3819 16.1543 43.8932 14.5101 46.5005C14.2444 46.9157 13.7462 48.1115 13.3974 49.1577C11.9526 53.376 10.3417 55.3024 8.24916 55.3024C7.73434 55.3024 7.80077 55.5682 7.2029 50.5693C6.7379 46.7164 6.35593 41.3523 6.50539 40.9537C6.60504 40.7212 9.37846 40.688 33.6086 40.688H60.5955V42.3985ZM8.28238 61.6132C8.28238 63.6227 8.21595 65.2668 8.14952 65.2668C8.08309 65.2668 7.68451 65.0509 7.26933 64.8018C5.11038 63.4234 5.01073 60.102 7.10326 58.5077C8.31559 57.5776 8.28238 57.4946 8.28238 61.6132ZM58.9182 58.2087C59.1839 58.3416 59.6489 58.7568 59.9644 59.1221C61.2432 60.6002 61.2432 62.6263 59.9644 64.1043C59.4828 64.6856 58.669 65.2668 58.3535 65.2668C58.3037 65.2668 58.2705 63.6227 58.2705 61.6132C58.2705 59.6037 58.3037 57.9596 58.3535 57.9596C58.4199 57.9596 58.669 58.0759 58.9182 58.2087Z" fill="white"/>
<path d="M43.5062 0.315623C43.1409 0.680984 42.161 3.32155 42.0448 4.25156C41.9783 4.7996 42.0282 5.0155 42.3105 5.29782C42.7423 5.72962 43.6723 5.76283 44.0376 5.34765C44.3698 4.98229 45.4825 1.76046 45.4825 1.1626C45.4825 0.232586 44.1539 -0.332063 43.5062 0.315623Z" fill="white"/>
<path d="M49.7179 3.12209C49.5353 3.1553 48.1901 4.01888 46.7286 5.03193C44.0881 6.87535 44.0714 6.89195 44.0216 7.57285C43.9884 8.07107 44.0548 8.32018 44.304 8.53608C44.9682 9.13394 45.4499 8.95126 48.1901 7.07463C49.6183 6.07819 50.8805 5.1814 50.9801 5.04854C51.279 4.68318 51.2292 3.86942 50.8971 3.50406C50.5815 3.1553 50.2162 3.03905 49.7179 3.12209Z" fill="white"/>
<path d="M46.5626 9.88136C46.3301 10.0973 46.1475 10.4792 46.1475 10.7117C46.1475 10.9442 46.3301 11.3262 46.5626 11.5421C46.9446 11.9407 47.0775 11.9573 48.8046 11.9573C49.8177 11.9573 50.7975 11.8742 50.9802 11.7746C51.7773 11.3594 51.7109 10.0308 50.8639 9.64886C50.6314 9.54921 49.6682 9.46617 48.705 9.46617C47.0775 9.46617 46.928 9.49939 46.5626 9.88136Z" fill="white"/>
<path d="M21.1859 57.0296C20.422 57.7437 20.1562 58.4412 20.1562 59.7864C20.1562 62.1612 21.5014 63.5064 23.0459 62.6927C24.2417 62.0782 24.7067 59.5207 23.9095 57.9098C23.295 56.6476 22.0329 56.2324 21.1859 57.0296Z" fill="white"/>
<path d="M43.2412 56.9963C42.1949 57.81 41.8129 60.0852 42.4772 61.5467C43.6563 64.1374 46.3135 62.9251 46.3135 59.7863C46.3135 57.9761 45.4333 56.6309 44.2376 56.6309C43.9387 56.6309 43.4903 56.797 43.2412 56.9963Z" fill="white"/>
<path d="M27.5806 68.1399C27.0657 68.6879 27.1156 69.3854 27.73 70.2988C28.3777 71.2953 29.3576 72.1256 30.5367 72.7069C31.3504 73.1055 31.6328 73.1553 33.1938 73.1553C34.8048 73.1553 35.0207 73.1221 36.0171 72.6404C37.6114 71.8765 39.3386 69.9667 39.3386 68.9702C39.3386 68.4388 38.6244 67.7579 38.093 67.7579C37.6612 67.7579 37.3789 67.9904 36.2164 69.402C34.6221 71.3119 31.4003 71.1624 29.972 69.1197C29.6897 68.7045 29.3243 68.2229 29.1749 68.0568C28.7597 67.6416 28.0124 67.6749 27.5806 68.1399Z" fill="white"/>
</svg>
