<svg width="110" height="110" viewBox="0 0 110 110" fill="none" xmlns="http://www.w3.org/2000/svg">
<rect width="110" height="110" rx="55" fill="url(#paint0_linear_43_2739)"/>
<path fill-rule="evenodd" clip-rule="evenodd" d="M50.2927 25.1108C45.6766 25.7805 41.766 29.1051 40.3788 33.5299C39.3025 36.974 39.8646 40.9324 41.8617 43.8863C42.5075 44.843 43.8469 46.2661 44.7677 46.9358C45.1743 47.2467 45.4015 47.4859 45.3059 47.5098C45.2352 47.5363 45.0145 47.602 44.7593 47.6779C44.6691 47.7047 44.5745 47.7328 44.4807 47.761C43.4164 48.0958 43.0576 48.61 43.4164 49.2678C43.6436 49.7103 44.0263 49.7461 45.1265 49.4233C49.5752 48.1317 54.2511 48.1197 58.5683 49.3635C59.2499 49.5548 59.8957 49.6863 60.0034 49.6505C60.4219 49.495 60.6252 49.2199 60.6252 48.7655C60.6252 48.2154 60.386 48.0121 59.4293 47.749C59.0706 47.6533 58.6998 47.5457 58.6042 47.5098C58.4846 47.4739 58.5922 47.3544 58.9031 47.1391C59.7761 46.5531 60.8405 45.5486 61.4743 44.7114C61.492 44.6881 61.5092 44.6653 61.526 44.6431C61.8312 44.2389 61.9904 44.0282 62.1988 43.9518C62.4259 43.8686 62.7115 43.9448 63.3082 44.1042C63.3341 44.1112 63.3606 44.1182 63.3877 44.1255L63.8063 44.2331L63.6389 45.1539C63.5432 45.7519 63.4954 46.589 63.5312 47.462C63.6149 49.7342 64.2727 51.2649 65.7436 52.6282C67.0591 53.8361 68.6975 54.446 70.6707 54.434C72.3449 54.4221 73.2658 54.0992 74.1388 53.2262C74.5813 52.7717 74.9281 52.2695 75.1553 51.7433C75.3586 51.3008 75.5499 50.9301 75.5978 50.9301C75.7652 50.9301 76.9969 52.7837 77.4753 53.7404C77.7384 54.2666 78.0852 55.0559 78.2407 55.5103C78.5875 56.479 78.9462 57.0172 79.4605 57.3759C79.6757 57.5194 80.5727 57.8782 81.4576 58.1772C82.6774 58.5838 83.1558 58.799 83.4189 59.0741L83.7657 59.4328V62.1714V64.91L83.4069 65.2808C83.1199 65.5797 82.6415 65.783 80.6803 66.4168C79.2452 66.8832 78.133 67.3138 77.8939 67.4931C77.6786 67.6606 77.1405 68.3303 76.7219 68.9761C75.3586 71.0449 73.4212 72.8746 71.173 74.214C69.6063 75.1468 69.2356 75.4219 69.116 75.7328C69.0562 75.9002 68.7094 77.5984 68.3507 79.5118C67.9919 81.4253 67.6571 83.0397 67.6212 83.0995C67.5733 83.1713 66.6047 83.2191 65.2174 83.2191C62.9213 83.2191 62.8855 83.2191 62.7778 82.944C62.718 82.8005 62.5028 81.8199 62.2995 80.7675C61.7972 78.0529 61.5819 77.8376 59.7403 78.0648C57.5039 78.3518 54.8969 78.4355 52.529 78.304C52.4757 78.3007 52.4234 78.2975 52.3719 78.2944C50.8857 78.2032 50.1543 78.1583 49.7269 78.497C49.3128 78.8253 49.1843 79.5138 48.9311 80.8695C48.9227 80.9145 48.9142 80.9602 48.9055 81.0067C48.7022 82.0471 48.4869 82.968 48.4152 83.0636C48.2238 83.2789 43.8469 83.2909 43.6795 83.0756C43.6077 82.9919 43.2729 81.4372 42.9261 79.6314C42.5792 77.8256 42.2205 76.1873 42.1248 76.0079C42.0291 75.8165 41.79 75.5774 41.5867 75.4697C38.5252 73.7835 35.966 71.2243 34.5668 68.414C34.0286 67.3496 33.4068 65.4243 33.1676 64.0849C32.9045 62.6857 32.8686 59.086 33.1078 57.7466C33.933 52.9511 36.1334 49.507 40.032 46.9478C41.204 46.1824 41.3834 45.9193 41.1801 45.3213C41.1203 45.1539 40.905 44.9387 40.7137 44.843C40.3908 44.6875 40.319 44.6995 39.7569 44.9985C37.987 45.9791 35.8942 47.8208 34.6385 49.507C32.9763 51.7313 32.0435 53.9437 31.3738 57.2324C31.2781 57.6988 31.1226 57.5314 31.0509 56.8976C30.7878 54.721 28.8265 52.987 27.1523 53.4414C26.1238 53.7165 25.1073 55.02 25.1073 56.0604C25.1073 57.3042 26.2793 58.3446 28.2525 58.8349L28.8385 58.9784L28.2525 59.5644C27.535 60.3058 26.7576 60.7005 25.6694 60.9158C24.4376 61.1549 24.0669 61.717 24.6529 62.4704C24.892 62.7813 24.9399 62.7933 25.8248 62.7455C26.5902 62.7215 26.8772 62.6378 27.6545 62.2551C28.671 61.7529 29.9985 60.545 30.429 59.7438C30.5845 59.4568 30.7519 59.3013 30.9074 59.3013C31.1346 59.3013 31.1465 59.3611 31.1107 60.1743C31.0509 61.2386 31.2661 63.6663 31.5173 64.91C31.9597 67.0626 32.9045 69.3348 34.1721 71.2602C35.368 73.066 37.8794 75.3621 40.0679 76.6537L40.5941 76.9646L41.1681 80.0022C41.491 81.6764 41.8258 83.2669 41.9215 83.542C42.1368 84.1399 42.7467 84.714 43.3685 84.8933C43.6675 84.989 44.7079 85.0129 46.3343 84.989C48.7142 84.9531 48.8696 84.9412 49.2882 84.6781C49.9698 84.2595 50.1731 83.8051 50.5558 81.8438L50.9026 80.05L51.4288 80.0619C54.9208 80.1696 58.2932 80.0739 60.1469 79.8347C60.2784 79.8108 60.3741 80.0978 60.5295 80.9469C60.984 83.3746 61.1155 83.817 61.4743 84.2356C62.1081 84.9531 62.5147 85.0368 65.4207 84.989L68.0039 84.9531L68.5061 84.6183C68.841 84.403 69.0921 84.1041 69.2356 83.7812C69.3552 83.5061 69.7379 81.7721 70.0847 79.9184L70.7185 76.558L71.3165 76.2231C74.1866 74.6326 76.8176 72.181 78.4679 69.574C78.4876 69.543 78.5062 69.5134 78.5241 69.485C78.6233 69.3273 78.6978 69.209 78.7912 69.1081C79.072 68.805 79.5237 68.6602 81.3335 68.0803C81.4417 68.0456 81.5547 68.0094 81.6729 67.9715C84.3158 67.1224 84.8779 66.7278 85.3801 65.4243C85.5954 64.8622 85.6193 64.5154 85.6193 62.1714C85.6193 59.8275 85.5954 59.4807 85.3801 58.9186C84.9137 57.7108 84.268 57.2205 82.211 56.5508C81.3261 56.2637 80.5487 55.9408 80.4052 55.7854C80.2617 55.6538 79.9508 55.02 79.7236 54.3982C79.0419 52.6282 78.1211 51.1334 76.5306 49.2319L76.1718 48.8014L76.3631 47.737C76.6143 46.3857 76.7219 42.9774 76.5425 42.0207C76.3512 40.9922 75.8489 40.0475 75.3347 39.7485C74.2225 39.1147 71.448 39.7365 67.0352 41.6141C66.1144 42.0087 65.2294 42.4153 65.0978 42.499C64.9065 42.6186 64.7271 42.6426 64.4401 42.5588L64.3999 42.5483C64.1673 42.487 63.7914 42.388 63.5432 42.3316L63.0409 42.2001L63.3399 41.4586C63.7106 40.5497 64.0933 38.7679 64.0933 37.9188C64.0933 37.1654 63.8182 36.8186 63.2203 36.8186C62.6224 36.8186 62.4071 37.1295 62.2995 38.1699C61.8929 41.7576 59.7881 44.8191 56.6429 46.3976L55.7221 46.864L53.8086 46.7205C52.3257 46.6129 51.5006 46.6129 50.1014 46.7325C48.8162 46.8346 48.4457 46.8641 48.1104 46.7691C47.9746 46.7306 47.8445 46.6717 47.6618 46.589L47.6618 46.589C44.9232 45.3333 42.8065 42.8339 41.9454 39.8681C41.7182 39.0549 41.6704 38.6483 41.6823 37.1175C41.6943 35.527 41.7302 35.2041 42.0052 34.2713C42.5553 32.4775 43.3805 31.1022 44.684 29.7987C49.4078 25.063 57.4322 26.0795 60.8644 31.8317C61.558 33.0037 61.9766 33.2189 62.5865 32.7406C63.0768 32.3579 63.005 31.8915 62.2755 30.7195C61.0797 28.7702 58.8792 26.8688 56.7625 25.9838C54.7175 25.1228 52.3855 24.8118 50.2927 25.1108ZM74.641 41.6858C74.7487 42.0087 74.7965 42.81 74.7846 44.4125C74.7846 46.2781 74.7367 46.8999 74.5215 47.9164C74.1866 49.4711 73.6245 51.0257 73.1701 51.6476C72.5124 52.5445 71.1012 52.9033 69.5226 52.5684C67.394 52.114 65.9948 50.8224 65.4686 48.8373C65.1218 47.4859 65.3251 44.7952 65.8154 44.245C66.0426 43.9939 68.4583 42.9057 70.2641 42.2479C71.735 41.7098 73.4571 41.2553 74.0431 41.2434C74.4377 41.2434 74.4975 41.2792 74.641 41.6858ZM28.2884 55.3549C28.683 55.606 29.2929 56.6345 29.2929 57.0411C29.2929 57.2444 29.257 57.2444 28.5275 57.0411C27.5708 56.778 26.9729 56.4312 26.9251 56.1083C26.8772 55.8213 27.4393 55.1157 27.7024 55.1157C27.81 55.1157 28.0611 55.2233 28.2884 55.3549ZM70.1925 57.1128C69.5586 57.926 70.4675 59.7677 71.771 60.3058C72.3809 60.5689 73.4811 60.545 74.0791 60.27C75.3826 59.684 76.2197 57.926 75.574 57.1128C75.0717 56.479 74.0193 56.8617 74.0193 57.6988C74.0193 57.8423 73.8758 58.1293 73.7084 58.3326C73.4572 58.6435 73.3137 58.7033 72.8832 58.7033C72.4527 58.7033 72.3092 58.6435 72.058 58.3326C71.8787 58.1174 71.7471 57.8184 71.7471 57.6151C71.7471 56.8138 70.6947 56.479 70.1925 57.1128ZM51.1459 42.4991C50.7341 42.4991 50.4003 42.1653 50.4003 41.7535V40.0774H49.638C49.2665 40.0774 48.9653 39.7762 48.9653 39.4047C48.9653 39.0332 49.2665 38.732 49.638 38.732H50.4003V34.4783C50.4003 33.0134 51.5879 31.8258 53.0528 31.8258C53.6951 31.8258 54.2053 31.9444 54.5836 32.1816C54.9707 32.41 55.2523 32.7438 55.4282 33.183C55.6042 33.6223 55.6921 34.1537 55.6921 34.7774C55.6921 35.3396 55.591 35.8272 55.3886 36.2401C55.1951 36.6529 54.9047 36.9736 54.5176 37.202C54.1306 37.4216 53.6467 37.5314 53.066 37.5314C52.4174 37.5314 51.8915 38.0573 51.8915 38.7059V38.732H52.8669C53.2384 38.732 53.5396 39.0332 53.5396 39.4047C53.5396 39.7762 53.2384 40.0774 52.8669 40.0774H51.8915V41.7535C51.8915 42.1653 51.5577 42.4991 51.1459 42.4991ZM51.8915 35.7779C51.8915 36.1568 52.1988 36.4641 52.5778 36.4641C53.0088 36.4641 53.3476 36.4158 53.5939 36.3191C53.8402 36.2225 54.0162 36.0556 54.1218 35.8184C54.2273 35.5724 54.2801 35.2298 54.2801 34.7906C54.2801 34.2811 54.2405 33.8902 54.1613 33.6179C54.091 33.3455 53.937 33.1567 53.6995 33.0513C53.4619 32.9458 53.0924 32.8931 52.591 32.8931C52.2047 32.8931 51.8915 33.2063 51.8915 33.5925V35.7779Z" fill="white"/>
<defs>
<linearGradient id="paint0_linear_43_2739" x1="55" y1="0" x2="55" y2="110" gradientUnits="userSpaceOnUse">
<stop stop-color="#577FE3"/>
<stop offset="0.581" stop-color="#345ABB"/>
<stop offset="1" stop-color="#1346C7"/>
</linearGradient>
</defs>
</svg>
