<svg width="160" height="154" viewBox="0 0 160 154" fill="none" xmlns="http://www.w3.org/2000/svg">
<path d="M5.81611 0.487427C4.75366 0.831161 3.8162 1.45613 2.62876 2.61234C-0.214851 5.4872 0.0038887 0.331192 0.0038887 60.7658C0.0038887 119.669 -0.121105 115.794 2.06629 118.357C2.69126 119.107 3.90995 120.075 4.81615 120.544L6.40983 121.388L31.5024 121.482C45.2829 121.513 56.5636 121.669 56.5636 121.794C56.5636 121.95 55.3449 125.138 53.8763 128.919C52.4076 132.669 50.9077 136.512 50.5639 137.387L49.9702 139.043H45.4704C39.4395 139.043 39.6895 138.731 39.6895 146.137C39.6895 151.793 39.9394 153.074 41.0956 153.542C41.7831 153.792 118.217 153.792 118.904 153.542C120.061 153.074 120.311 151.793 120.311 146.137C120.311 138.731 120.561 139.043 114.53 139.043H110.03L109.436 137.387C109.092 136.512 107.592 132.669 106.124 128.919C104.655 125.138 103.436 121.95 103.436 121.794C103.436 121.669 109.342 121.544 116.529 121.544H129.654L130.435 120.825C131.56 119.825 131.654 118.513 130.623 117.482C129.998 116.857 129.591 116.857 69.0005 116.857C11.5346 116.857 7.90975 116.826 6.87855 116.294C6.25358 115.982 5.56612 115.294 5.25363 114.669C4.72241 113.638 4.69116 110.42 4.69116 60.6095C4.69116 8.04956 4.69116 7.64334 5.31613 6.61214C6.59732 4.51849 0.878848 4.67473 80 4.67473C159.121 4.67473 153.403 4.51849 154.684 6.61214C155.309 7.64334 155.309 8.04956 155.309 60.6095C155.309 110.42 155.278 113.638 154.746 114.669C153.778 116.638 152.903 116.857 145.559 116.857C139.466 116.857 139.028 116.888 138.435 117.482C137.497 118.419 137.591 120.075 138.653 120.919C139.466 121.575 139.747 121.575 146.559 121.482C153.528 121.388 153.621 121.388 155.184 120.544C156.09 120.075 157.309 119.107 157.934 118.357C160.121 115.794 159.996 119.669 159.996 60.7658C159.996 0.362442 160.215 5.4872 157.371 2.61234C154.465 -0.262527 162.059 -0.0125427 79.875 0.0187073C16.3468 0.0187073 7.15979 0.0812073 5.81611 0.487427ZM101.624 130.294C103.468 135.012 104.999 138.918 104.999 138.949C104.999 139.012 97.3429 139.043 87.9996 139.043H70.9692L70.3442 139.856C69.5005 140.949 69.5318 141.637 70.438 142.699L71.1879 143.574L93.4056 143.668L115.623 143.73V146.387V149.043H80H44.3767V146.418V143.762L53.3138 143.668L62.2509 143.574L62.8446 142.824C63.6258 141.887 63.5945 140.449 62.8133 139.668C62.2509 139.106 61.7821 139.043 58.5635 139.043C55.7824 139.043 54.97 138.949 55.095 138.637C55.1887 138.449 56.5011 135.012 58.0636 131.075C59.5947 127.106 61.0947 123.356 61.3447 122.7L61.8446 121.544L80.0625 121.607L98.2804 121.7L101.624 130.294Z" fill="#CEDAF8"/>
<path d="M13.5972 10.3305C12.2535 10.7055 10.6911 12.3304 10.3161 13.7366C10.0974 14.5178 10.0349 28.9546 10.0661 56.7658L10.1599 98.6388L11.0348 99.7637C12.7535 102.045 6.53506 101.857 80.0002 101.857C153.465 101.857 147.247 102.045 148.966 99.7637L149.841 98.6388V56.1096C149.841 14.1429 149.841 13.5804 149.216 12.5492C148.872 11.9867 148.091 11.2055 147.497 10.8305L146.403 10.1431H101.155H55.8764L55.1264 11.018C54.2202 12.0805 54.189 12.7679 55.0327 13.8616L55.6577 14.6741L100.406 14.7366L145.153 14.8303L145.247 55.9846L145.31 97.1701H83.5938C49.658 97.1701 21.8781 97.0763 21.8781 96.9201C21.8781 96.5139 23.6905 90.0142 23.9092 89.7017C24.003 89.5142 24.2529 89.358 24.4404 89.358C24.6279 89.358 25.5654 88.983 26.5653 88.5455L28.3465 87.7643L33.4088 90.4204C36.1899 91.9203 38.846 93.1078 39.3147 93.1078C40.0022 93.1078 41.1271 92.1703 44.9394 88.3268C47.5643 85.6706 49.6892 83.2957 49.6892 83.0145C49.6892 82.702 49.1892 81.4833 48.5955 80.2959C48.0018 79.1085 47.5018 77.9835 47.5018 77.796C47.5018 77.6085 48.9393 77.4835 51.3766 77.4835C55.064 77.4835 55.2827 77.5148 55.4702 78.1397C55.8139 79.1709 57.8138 81.2021 59.1888 81.9208C60.9387 82.827 63.751 82.827 65.5009 81.9208C69.8445 79.6709 71.0007 74.2337 67.8758 70.6089C66.3447 68.7965 64.626 68.0152 62.3448 68.0152C59.6575 68.0152 56.9701 69.6089 55.7514 71.9213L55.2827 72.7963H49.9705C45.5957 72.7963 44.627 72.7025 44.502 72.3275C44.3145 71.8276 45.8769 67.5778 46.3456 67.2653C46.5019 67.1715 49.033 66.3278 51.9704 65.4216C54.9077 64.5154 57.5013 63.5467 57.7826 63.2655C58.0951 62.953 58.3138 62.0155 58.3763 60.6093L58.5013 58.422H63.2823H68.0633L68.4383 59.3594C68.9695 60.6718 71.2507 62.6093 72.7506 63.0467C76.3754 64.1404 80.3127 62.2968 81.7814 58.8282C82.3751 57.3908 82.2814 54.4534 81.5939 52.9535C80.9064 51.391 78.9065 49.5474 77.3441 49.0474C74.2505 48.0162 70.407 49.4224 68.657 52.2035L67.7196 53.7347H63.0948H58.4388V51.7348C58.4388 48.7349 58.2513 48.5787 51.6891 46.5475L46.1581 44.7976L45.2519 42.6415C43.8145 39.0791 43.627 39.2041 49.9392 39.1104L55.3139 39.0479L55.5952 39.7979C56.5014 42.1415 59.5012 44.0477 62.3136 44.0477C69.7195 44.0477 72.4381 34.3919 66.1259 30.4546C64.7822 29.6421 64.2823 29.5171 62.3761 29.5171C59.5325 29.5171 57.5951 30.5483 56.1576 32.8295L55.2202 34.3606H51.2204H47.2206L48.5018 31.9232C49.4392 30.0483 49.7205 29.2671 49.533 28.7047C49.2205 27.7359 41.0959 19.5176 39.9709 19.0489C39.1585 18.7051 38.6897 18.8926 33.69 21.4863C28.6277 24.1111 28.2215 24.2674 27.5028 23.8611C27.0653 23.6424 26.0654 23.2049 25.2529 22.9549C23.628 22.3925 23.8467 22.8299 22.5343 17.5802C22.1593 16.174 21.8781 14.9553 21.8781 14.8616C21.8781 14.7678 27.5028 14.6741 34.3775 14.6741C46.4706 14.6741 46.9081 14.6428 47.5018 14.0491C48.6893 12.8617 48.1893 10.9243 46.5331 10.3305C45.3144 9.92431 15.0346 9.89307 13.5972 10.3305ZM17.3158 16.299C17.5658 17.2052 18.222 19.6426 18.722 21.6737C19.2532 23.7049 19.8469 25.5798 20.0344 25.7985C20.2219 26.0173 21.0969 26.4548 21.9718 26.736C22.878 27.0172 24.6279 27.7359 25.8779 28.3297C27.3153 28.9859 28.409 29.3296 28.784 29.2046C29.1277 29.0796 31.5338 27.8922 34.1587 26.5173L38.9085 24.0486L41.6584 26.7985L44.4395 29.5796L41.7521 34.7669L39.0647 39.9854L39.5647 41.1415C39.8459 41.7978 40.5647 43.5789 41.1584 45.1413C41.7521 46.6725 42.4083 48.1412 42.6271 48.3599C42.8145 48.5474 45.3769 49.4849 48.283 50.3911L53.5953 52.0473L53.689 55.9846L53.7828 59.9531L49.158 61.3593C42.6271 63.3905 42.5333 63.453 41.5646 66.0778C41.0959 67.2653 40.4397 68.8589 40.0647 69.5777C39.6897 70.2964 39.3772 71.3276 39.3772 71.8276C39.3772 72.4213 40.3459 74.6712 41.8771 77.5773L44.377 82.3583L41.5646 85.1394L38.7522 87.9205L33.815 85.3581C31.0651 83.952 28.6277 82.7958 28.3777 82.7958C28.1278 82.7958 26.8778 83.2645 25.5966 83.8582C24.3154 84.4519 22.6905 85.1082 21.9718 85.3269C21.2218 85.5144 20.4094 85.9519 20.1594 86.2331C19.8782 86.5456 19.0657 89.0767 18.347 91.8891L17.0033 97.0138L15.8471 97.1076L14.6909 97.2013V88.608C14.6909 80.4521 14.7222 79.9834 15.2534 79.9834C16.5658 79.9834 20.9406 78.671 23.0655 77.6085C29.1277 74.6399 33.5025 69.3902 35.6586 62.4843C36.6273 59.4532 36.6898 53.1722 35.8149 50.0161C33.315 40.8603 26.0029 34.0481 16.8783 32.3607L14.8472 31.9857L14.7534 23.7361C14.7222 19.1739 14.7534 15.299 14.8472 15.0803C14.9097 14.8616 15.4096 14.6741 15.9096 14.6741C16.7846 14.6741 16.9096 14.7991 17.3158 16.299ZM64.0948 34.9543C65.251 36.1418 65.3135 37.5167 64.2198 38.5792C62.5948 40.2353 59.6887 39.0791 59.6887 36.798C59.72 34.2981 62.3448 33.2044 64.0948 34.9543ZM17.847 37.3605C22.8468 38.8292 27.409 42.6415 29.6589 47.235C32.5338 53.016 32.565 59.0157 29.8152 64.6717C28.2528 67.8277 24.5029 71.6401 21.3781 73.2025C19.4407 74.1712 16.0658 75.2961 15.0346 75.2961C14.8159 75.2961 14.6909 74.3587 14.6909 72.5463V69.7964L16.5033 69.2339C20.1281 68.1402 23.378 65.2341 25.0654 61.6718C26.4091 58.7969 26.6278 54.8284 25.6279 51.891C24.0655 47.235 20.6906 43.9852 16.1283 42.6727L14.8472 42.2977L14.7534 39.5791C14.6597 36.8918 14.6909 36.8605 15.4096 36.8605C15.8159 36.8605 16.9096 37.0792 17.847 37.3605ZM16.8783 47.9537C18.0658 48.5787 19.9719 50.6098 20.6906 52.016C21.5968 53.7347 21.7843 56.9533 21.1281 58.9219C20.5031 60.8281 19.0657 62.6093 17.222 63.7654C14.5659 65.4529 14.6909 65.8591 14.6909 55.8908V47.1413L15.4096 47.36C15.7846 47.4537 16.4408 47.735 16.8783 47.9537ZM76.6879 54.0784C78.4691 55.4846 77.2816 58.7344 75.0005 58.7344C73.8443 58.7344 72.1881 57.2658 72.1881 56.2346C72.1881 53.8597 74.813 52.6097 76.6879 54.0784ZM64.3135 73.6087C65.2197 74.6399 65.1885 75.9836 64.251 77.0461C62.1574 79.5147 58.345 76.4523 60.1887 73.7962C61.2199 72.2963 63.0636 72.2338 64.3135 73.6087Z" fill="#CEDAF8"/>
<path d="M88.4999 21.0178C87.6562 21.924 87.6249 23.1114 88.4061 24.0801L88.9999 24.8301L98.4994 24.9238C107.78 25.0176 108.03 24.9863 108.843 24.3613C109.905 23.5176 109.999 21.8615 109.061 20.924C108.468 20.3303 108.03 20.299 98.8119 20.299H89.1561L88.4999 21.0178Z" fill="#CEDAF8"/>
<path d="M88.5929 31.0798C87.5305 32.111 87.5617 33.4859 88.6242 34.3296C89.4054 34.9546 89.8741 34.9858 95.1551 34.9858C100.436 34.9858 100.905 34.9546 101.686 34.3296C102.748 33.4859 102.78 32.111 101.717 31.0798C100.967 30.2986 100.905 30.2986 95.1551 30.2986C89.4054 30.2986 89.3429 30.2986 88.5929 31.0798Z" fill="#CEDAF8"/>
<path d="M109.218 30.6735C108.343 31.1735 108.124 31.5485 108.124 32.7047C108.124 33.3297 108.374 33.9859 108.749 34.3609C109.343 34.9546 109.78 34.9858 123.842 34.9858H138.341L138.998 34.2671C139.966 33.2359 139.904 31.7672 138.873 30.9548C138.06 30.2986 137.748 30.2986 123.936 30.2986C114.03 30.3298 109.655 30.4236 109.218 30.6735Z" fill="#CEDAF8"/>
<path d="M89.1553 40.6111C87.7804 41.1735 87.3741 43.2984 88.4366 44.3609C89.0303 44.9546 89.4678 44.9858 100.405 44.9858C113.217 44.9858 113.123 44.9858 113.123 42.8297C113.123 42.0172 112.904 41.4548 112.467 41.0485C111.842 40.4861 111.123 40.4548 100.811 40.3923C94.78 40.3611 89.5303 40.4548 89.1553 40.6111Z" fill="#CEDAF8"/>
<path d="M120.092 40.6111C118.717 41.1735 118.311 43.2984 119.373 44.3609C119.936 44.9233 120.404 44.9858 123.404 44.9858C126.716 44.9858 126.841 44.9546 127.466 44.1734C128.591 42.7359 128.185 41.236 126.529 40.6423C125.342 40.2361 121.092 40.2048 120.092 40.6111Z" fill="#CEDAF8"/>
<path d="M88.4999 51.3293C87.6562 52.2355 87.6249 53.4229 88.4061 54.3916L88.9999 55.1416L98.4994 55.2353C107.78 55.3291 108.03 55.2978 108.843 54.6729C109.905 53.8292 109.999 52.173 109.061 51.2355C108.468 50.6418 108.03 50.6106 98.8119 50.6106H89.1561L88.4999 51.3293Z" fill="#CEDAF8"/>
<path d="M88.624 61.2661C87.499 62.141 87.499 63.7659 88.624 64.6409C89.4052 65.2659 89.8739 65.2971 95.1549 65.2971C100.436 65.2971 100.905 65.2659 101.686 64.6409C102.748 63.7972 102.78 62.4223 101.717 61.3911C100.967 60.6098 100.905 60.6098 95.2174 60.6098C89.8739 60.6098 89.4052 60.6411 88.624 61.2661Z" fill="#CEDAF8"/>
<path d="M109.218 60.9848C108.343 61.4848 108.124 61.8598 108.124 63.016C108.124 63.6409 108.374 64.2972 108.749 64.6721C109.343 65.2659 109.78 65.2971 123.842 65.2971H138.341L138.998 64.5784C139.966 63.5472 139.904 62.0785 138.873 61.2661C138.06 60.6098 137.748 60.6098 123.936 60.6098C114.03 60.6411 109.655 60.7348 109.218 60.9848Z" fill="#CEDAF8"/>
<path d="M89.1553 70.9216C87.7804 71.4841 87.3741 73.609 88.4366 74.6714C89.0303 75.2651 89.4678 75.2964 100.405 75.2964C113.217 75.2964 113.123 75.2964 113.123 73.1402C113.123 72.3278 112.904 71.7653 112.467 71.3591C111.842 70.7966 111.123 70.7654 100.811 70.7029C94.78 70.6716 89.5303 70.7654 89.1553 70.9216Z" fill="#CEDAF8"/>
<path d="M120.092 70.9216C118.717 71.4841 118.311 73.609 119.373 74.6714C119.936 75.2339 120.404 75.2964 123.404 75.2964C126.716 75.2964 126.841 75.2651 127.466 74.4839C128.529 73.1402 128.279 71.7966 126.841 71.0778C125.873 70.5466 121.248 70.4529 120.092 70.9216Z" fill="#CEDAF8"/>
</svg>
