<svg width="110" height="110" viewBox="0 0 110 110" fill="none" xmlns="http://www.w3.org/2000/svg">
<rect width="110" height="110" rx="55" fill="url(#paint0_linear_43_2726)"/>
<path d="M31.6942 25.2557C27.6089 26.1706 24.3155 29.521 23.1465 33.9479C22.87 34.9974 22.8574 35.132 22.8574 42.5459V50.081L23.2094 51.292C24.0516 54.1849 25.5851 56.4319 27.8603 58.0735L28.4511 58.5041V61.8276C28.4511 64.882 28.4762 65.1914 28.7025 65.5817C28.8282 65.8238 29.0922 66.1199 29.2681 66.241C29.7207 66.5504 30.6006 66.5235 31.1159 66.1737C31.3422 66.0257 32.75 64.5994 34.2333 62.9982L36.9359 60.1053H37.7026H38.4694L38.5448 63.5633C38.6202 67.1559 38.7208 68.0171 39.2613 69.551C39.5756 70.4525 39.7767 70.6544 40.3549 70.6544C40.6817 70.6544 40.8703 70.5602 41.0463 70.3314C41.3354 69.9547 41.3228 69.8067 40.8326 67.9094L40.5057 66.6312L40.5435 59.4998L40.5812 52.3684L40.9206 51.292C41.4234 49.7311 42.077 48.6143 43.2209 47.3764C44.5407 45.9501 45.9234 45.1025 47.7461 44.6046C48.2363 44.47 51.492 44.4297 62.893 44.4297C79.1837 44.4297 77.9645 44.3624 80.0511 45.4388C82.452 46.6902 84.262 49.0853 84.966 51.9647C85.1796 52.8259 85.2048 53.5256 85.2048 59.9035C85.2048 66.8061 85.2048 66.9137 84.9157 67.9633C84.2872 70.2911 82.9925 72.2286 81.1447 73.628C79.7117 74.7044 79.7368 74.6237 79.7368 78.9295C79.7368 80.9343 79.6991 82.5759 79.6363 82.5759C79.586 82.5759 78.1279 81.0554 76.4058 79.1986C74.4071 77.0457 73.0747 75.7271 72.7605 75.5656C72.2828 75.3234 71.7297 75.3099 60.467 75.3099C47.3187 75.3099 47.7964 75.3369 45.8606 74.3815C45.3075 74.099 44.4779 73.5607 44.0128 73.184C43.0198 72.3632 42.5672 72.2825 42.165 72.8341C41.813 73.3051 41.8382 73.7222 42.2278 74.2201C42.7055 74.8255 44.4653 76.0365 45.5715 76.5075C47.6581 77.409 47.0422 77.3686 60.1904 77.4225L72.132 77.4763L75.5259 81.0823C77.3988 83.0737 79.0455 84.7691 79.1963 84.8499C79.9254 85.2535 80.9813 84.8095 81.3961 83.9214C81.5972 83.5043 81.6223 82.993 81.6223 79.6022V75.754L82.1628 75.3772C84.3123 73.8568 85.9087 71.5155 86.7383 68.6226L87.0777 67.4385L87.128 60.482C87.1657 54.602 87.1406 53.3372 86.9646 52.3011C86.1601 47.3091 82.4897 43.3801 77.801 42.4921C77.3862 42.4114 75.7647 42.3441 74.1809 42.3441H71.3149V39.801C71.3149 34.8225 70.8624 32.71 69.2911 30.2207C68.185 28.4581 67.5188 28.0948 66.8274 28.8348C66.4 29.2923 66.488 29.7498 67.2171 30.6917C67.9964 31.7277 68.3987 32.4947 68.8512 33.8402L69.2408 35.0109L69.2786 38.6707L69.3288 42.3441H59.034C52.485 42.3441 48.4626 42.3979 47.9472 42.4921C44.415 43.0976 41.2977 45.6138 39.7013 49.1122C38.8591 50.9825 38.6328 52.1531 38.5448 55.2748L38.4694 57.912L37.4387 57.9793C36.873 58.0197 36.2696 58.1273 36.1062 58.2215C35.9428 58.3157 34.5727 59.6882 33.0769 61.2894L30.3366 64.2092V61.1279C30.3366 58.087 30.3366 58.0331 30.0223 57.4815C29.8338 57.1316 29.4567 56.728 29.0544 56.4589C27.1815 55.1806 25.7234 53.0815 25.032 50.6596C24.7681 49.7177 24.7555 49.4082 24.7052 43.2994C24.6801 39.0475 24.7052 36.5313 24.8058 35.7778C25.2457 32.1987 27.3826 29.1712 30.4623 27.7987C32.2095 27.0049 32.2347 27.0049 47.017 27.0049C60.9321 27.0049 61.548 27.0318 62.9935 27.5565C63.8734 27.8795 64.1626 27.8795 64.5019 27.5431C64.8162 27.2336 64.879 26.5205 64.6276 26.1572C64.5397 26.0361 64.1248 25.8073 63.71 25.6459C61.9879 25 61.9754 25 46.929 25C33.7179 25 32.7123 25.0269 31.6942 25.2557Z" fill="white"/>
<path d="M31.2672 37.4194C30.9153 37.7962 30.8398 37.9845 30.8398 38.442C30.8398 38.8995 30.9153 39.0879 31.2672 39.4646C31.6066 39.8279 31.7952 39.9221 32.1848 39.9221C33.2156 39.9221 33.8567 39.0341 33.5927 37.9711C33.4167 37.3252 32.9516 36.9619 32.2603 36.9619C31.7826 36.9619 31.6318 37.0292 31.2672 37.4194Z" fill="white"/>
<path d="M35.7039 37.231C35.2766 37.5943 35.1006 38.294 35.2514 38.913C35.4148 39.5185 35.9553 39.9221 36.6216 39.9221C37.0489 39.9221 37.2249 39.8414 37.5769 39.4646C37.9288 39.0879 38.0043 38.8995 38.0043 38.442C38.0043 37.9845 37.9288 37.7962 37.5769 37.4194C37.2123 37.0292 37.0615 36.9619 36.5838 36.9619C36.2193 36.9619 35.9176 37.0561 35.7039 37.231Z" fill="white"/>
<path d="M40.1915 37.1099C39.8144 37.3118 39.5127 37.9307 39.5127 38.5093C39.5127 39.209 40.1789 39.9221 40.8325 39.9221C41.7502 39.9221 42.2655 39.3839 42.2781 38.4151C42.2781 37.8903 42.2153 37.7154 41.8884 37.379C41.5742 37.0427 41.3982 36.9619 40.9834 36.9754C40.6943 36.9754 40.3423 37.0427 40.1915 37.1099Z" fill="white"/>
<path d="M52.8996 47.5783C51.1021 48.103 49.7697 48.9642 48.5629 50.377C47.7082 51.3862 46.7906 53.1892 46.5392 54.3867C46.4009 55.0326 46.3255 55.1672 45.9861 55.3152C45.3827 55.5977 44.7165 56.284 44.3897 56.9836C44.1132 57.5757 44.1006 57.7641 44.1006 60.3071C44.1006 62.8099 44.1257 63.0386 44.3771 63.5499C45.433 65.6624 47.771 66.1199 49.3926 64.5187C50.2725 63.6575 50.3856 63.1462 50.3856 60.1726C50.3856 57.6564 50.3856 57.6026 50.0462 56.9298C49.7068 56.2436 49.1412 55.6246 48.6007 55.3555C48.2361 55.1806 48.2864 54.8846 48.94 53.4449C50.2976 50.4174 53.5281 48.7758 56.5826 49.5428C57.7516 49.8388 58.7572 50.4443 59.7503 51.4534C60.4416 52.1397 60.7433 52.5703 61.1204 53.4314C61.862 55.0595 61.862 55.1941 61.2713 55.5305C60.7182 55.8265 60.2405 56.432 59.9388 57.1855C59.7 57.8044 59.6623 62.3927 59.9011 63.227C60.0645 63.819 60.8816 64.882 61.2587 65.0165C61.6484 65.1511 61.5604 65.4337 60.8816 66.1737L60.2656 66.8734L59.8131 66.4563C59.1218 65.797 58.6315 65.5817 57.6637 65.5144C55.4136 65.3664 53.9052 66.9272 54.2697 69.0263C54.3703 69.6049 55.0994 70.5198 55.7781 70.91C56.193 71.1388 56.5072 71.2061 57.362 71.2061C58.3299 71.2061 58.4933 71.1657 59.1218 70.7889C59.6246 70.4795 59.9137 70.1834 60.2028 69.6856C60.4668 69.2146 60.8439 68.811 61.3718 68.4342C62.2517 67.8018 62.7168 67.2367 63.2699 66.1468C63.5464 65.5951 63.7475 65.3395 64.0241 65.2318C64.6526 65.0031 65.2182 64.4514 65.6079 63.7114L65.9724 62.9982V60.2399C65.9724 57.6699 65.9599 57.4411 65.6959 56.9433C65.3439 56.2436 64.7154 55.5977 64.1246 55.3286C63.8607 55.221 63.647 55.0326 63.647 54.9115C63.647 54.4675 62.9808 52.5972 62.5408 51.8302C61.5101 50.0003 59.7503 48.4798 57.8522 47.7936C56.4318 47.2823 54.2446 47.1881 52.8996 47.5783ZM48.0727 57.5353L48.4372 57.9255V60.2668C48.4372 62.8233 48.387 63.0251 47.6956 63.3346C47.218 63.5364 46.7529 63.4288 46.3506 62.9982C46.0489 62.6753 46.0489 62.6349 46.0489 60.2937V57.8986L46.3883 57.5219C46.866 56.9836 47.5573 56.9971 48.0727 57.5353ZM63.6847 57.4949C64.0995 57.939 64.1875 58.5445 64.1372 60.7646C64.0869 62.2851 64.0492 62.5542 63.823 62.8906C63.4836 63.375 62.9054 63.5634 62.39 63.3346C61.7238 63.0386 61.6358 62.6618 61.6358 60.1726V57.9255L62.0003 57.5353C62.5031 57.0106 63.2196 56.9836 63.6847 57.4949ZM58.3676 67.8422C59.1343 68.5822 57.9653 69.5376 56.8089 69.1205C56.017 68.8514 55.8787 68.192 56.5198 67.7615C57.01 67.4251 57.9905 67.4654 58.3676 67.8422Z" fill="white"/>
<path d="M67.8076 51.4399C67.4556 51.9109 67.4808 52.3683 67.8579 52.772L68.1595 53.1084H72.2951C76.2924 53.1084 76.4432 53.0949 76.77 52.8258C77.1974 52.4625 77.2225 51.7898 76.8077 51.3861C76.5186 51.0901 76.4558 51.0901 72.2951 51.0901H68.059L67.8076 51.4399Z" fill="white"/>
<path d="M67.8579 56.0014C67.4808 56.4051 67.4556 56.8626 67.8076 57.3335L68.059 57.6833H71.4278C74.784 57.6833 74.7965 57.6833 75.0605 57.3739C75.4502 56.9298 75.425 56.2974 75.0102 55.9476C74.696 55.6785 74.52 55.665 71.4152 55.665H68.1595L67.8579 56.0014Z" fill="white"/>
<defs>
<linearGradient id="paint0_linear_43_2726" x1="55" y1="0" x2="55" y2="110" gradientUnits="userSpaceOnUse">
<stop stop-color="#577FE3"/>
<stop offset="0.581" stop-color="#345ABB"/>
<stop offset="1" stop-color="#1346C7"/>
</linearGradient>
</defs>
</svg>
