<svg width="100" height="100" viewBox="0 0 100 100" fill="none" xmlns="http://www.w3.org/2000/svg">
<g filter="url(#filter0_d_43_2691)">
<rect x="20.4121" y="24.8607" width="47.2288" height="46.8179" fill="white"/>
<path d="M42.1959 6.10059C32.1671 7.13393 23.249 11.6274 16.3962 19.0799C6.72716 29.5855 3.4885 44.8193 8.0101 58.5345C10.0597 64.7502 13.2983 69.9482 18.039 74.6138C24.3286 80.7982 31.9637 84.5088 41.1008 85.8083C42.9626 86.0744 49.1114 86.0588 51.0358 85.7926C60.2041 84.5244 68.1052 80.6103 74.4574 74.1754C80.7782 67.7719 84.4863 60.1784 85.8005 50.9411C86.0665 49.0936 86.0665 42.9249 85.8005 41.0774C85.0495 35.8011 83.5162 31.0415 81.185 26.8299C79.3545 23.4951 77.2267 20.6456 74.4574 17.843C68.2304 11.5334 60.4858 7.61928 51.5834 6.30413C49.659 6.02231 44.1047 5.89706 42.1959 6.10059ZM64.7258 30.2587C65.4142 30.5562 65.7427 31.2138 65.7427 32.3097C65.7427 33.3117 59.1246 64.7502 58.7804 65.4391C58.2797 66.4098 57.2002 66.7699 56.105 66.3628C55.7295 66.2219 52.1153 63.6072 46.8271 59.6774L45.5128 58.7067L42.681 61.4153C40.6001 63.388 39.6926 64.1709 39.3171 64.2492C39.0355 64.3118 38.7695 64.3274 38.7383 64.2805C38.6913 64.2335 38.8008 61.9633 38.9886 59.2077L39.3171 54.2289L40.428 53.2113C41.0225 52.6476 45.2625 48.8118 49.8311 44.6784C54.4152 40.5294 58.1546 37.0537 58.1546 36.9284C58.1546 36.7562 57.9825 36.6936 57.607 36.7092C57.1532 36.7249 54.8377 38.1183 45.4503 44.0208C39.0825 48.0446 33.7786 51.3325 33.6847 51.3325C33.2623 51.3325 23.3898 48.1542 22.9205 47.8724C21.9191 47.2461 22.1382 46.3224 23.4368 45.5865C23.781 45.3986 26.2686 44.381 28.9753 43.3476C31.682 42.2986 36.7982 40.3259 40.3185 38.9638C43.8544 37.6017 50.144 35.1749 54.3214 33.5622C63.4741 30.0239 63.3802 30.0552 63.834 30.0395C64.0217 30.0395 64.4285 30.1335 64.7258 30.2587Z" fill="#039BE5"/>
</g>
<defs>
<filter id="filter0_d_43_2691" x="0" y="0.000244141" width="100" height="100" filterUnits="userSpaceOnUse" color-interpolation-filters="sRGB">
<feFlood flood-opacity="0" result="BackgroundImageFix"/>
<feColorMatrix in="SourceAlpha" type="matrix" values="0 0 0 0 0 0 0 0 0 0 0 0 0 0 0 0 0 0 127 0" result="hardAlpha"/>
<feOffset dx="4" dy="4"/>
<feGaussianBlur stdDeviation="5"/>
<feComposite in2="hardAlpha" operator="out"/>
<feColorMatrix type="matrix" values="0 0 0 0 0 0 0 0 0 0 0 0 0 0 0 0 0 0 0.1 0"/>
<feBlend mode="normal" in2="BackgroundImageFix" result="effect1_dropShadow_43_2691"/>
<feBlend mode="normal" in="SourceGraphic" in2="effect1_dropShadow_43_2691" result="shape"/>
</filter>
</defs>
</svg>
