<svg width="192" height="50" viewBox="0 0 192 50" fill="none" xmlns="http://www.w3.org/2000/svg">
<path d="M65.5956 18.18C64.3116 18.18 63.1536 17.904 62.1216 17.352C61.0896 16.788 60.2796 16.014 59.6916 15.03C59.1036 14.034 58.8096 12.924 58.8096 11.7C58.8096 10.476 59.1036 9.37197 59.6916 8.38797C60.2796 7.39197 61.0896 6.61797 62.1216 6.06597C63.1536 5.50197 64.3116 5.21997 65.5956 5.21997C66.8796 5.21997 68.0376 5.50197 69.0696 6.06597C70.1016 6.61797 70.9116 7.38597 71.4996 8.36997C72.0876 9.35397 72.3816 10.464 72.3816 11.7C72.3816 12.936 72.0876 14.046 71.4996 15.03C70.9116 16.014 70.1016 16.788 69.0696 17.352C68.0376 17.904 66.8796 18.18 65.5956 18.18ZM65.5956 16.128C66.4356 16.128 67.1916 15.942 67.8636 15.57C68.5356 15.186 69.0636 14.658 69.4476 13.986C69.8316 13.302 70.0236 12.54 70.0236 11.7C70.0236 10.86 69.8316 10.104 69.4476 9.43197C69.0636 8.74797 68.5356 8.21997 67.8636 7.84797C67.1916 7.46397 66.4356 7.27197 65.5956 7.27197C64.7556 7.27197 63.9996 7.46397 63.3276 7.84797C62.6556 8.21997 62.1276 8.74797 61.7436 9.43197C61.3596 10.104 61.1676 10.86 61.1676 11.7C61.1676 12.54 61.3596 13.302 61.7436 13.986C62.1276 14.658 62.6556 15.186 63.3276 15.57C63.9996 15.942 64.7556 16.128 65.5956 16.128ZM83.8109 8.53197C82.6229 7.85997 81.3869 7.45197 80.1029 7.30797V18H77.7629V7.30797C76.4669 7.45197 75.2249 7.85997 74.0369 8.53197L73.2269 6.73197C74.0669 6.22797 74.9669 5.84997 75.9269 5.59797C76.8989 5.34597 77.8949 5.21997 78.9149 5.21997C79.9349 5.21997 80.9309 5.34597 81.9029 5.59797C82.8749 5.84997 83.7809 6.22797 84.6209 6.73197L83.8109 8.53197ZM91.2318 12.69H88.8918V18H86.5878V5.39997H88.8918V10.674H91.3038L94.9218 5.39997H97.4058L93.1038 11.502L97.5678 18H94.9218L91.2318 12.69ZM104.373 5.29197C106.077 5.29197 107.409 5.72397 108.369 6.58797C109.329 7.43997 109.809 8.62797 109.809 10.152C109.809 11.616 109.371 12.768 108.495 13.608C107.619 14.436 106.407 14.85 104.859 14.85C104.259 14.85 103.683 14.784 103.131 14.652C102.579 14.52 101.979 14.298 101.331 13.986V18H99.0264V10.458C99.0264 8.80197 99.4884 7.52997 100.413 6.64197C101.337 5.74197 102.657 5.29197 104.373 5.29197ZM104.445 13.014C105.393 13.014 106.131 12.768 106.659 12.276C107.199 11.784 107.469 11.094 107.469 10.206C107.469 9.30597 107.199 8.60397 106.659 8.09997C106.119 7.58397 105.375 7.32597 104.427 7.32597C103.455 7.32597 102.693 7.59597 102.141 8.13597C101.601 8.67597 101.331 9.43797 101.331 10.422V11.952C101.763 12.3 102.243 12.564 102.771 12.744C103.311 12.924 103.869 13.014 104.445 13.014ZM117.89 9.26997C118.826 9.26997 119.648 9.44397 120.356 9.79197C121.076 10.14 121.634 10.65 122.03 11.322C122.438 11.982 122.642 12.774 122.642 13.698C122.642 15.126 122.162 16.242 121.202 17.046C120.254 17.838 118.91 18.234 117.17 18.234C115.442 18.234 114.122 17.838 113.21 17.046C112.31 16.242 111.86 15.078 111.86 13.554V5.39997H114.164V10.17C115.448 9.56997 116.69 9.26997 117.89 9.26997ZM126.728 5.39997V18H124.424V5.39997H126.728ZM117.26 16.326C118.208 16.326 118.946 16.098 119.474 15.642C120.014 15.186 120.284 14.562 120.284 13.77C120.284 12.942 120.002 12.294 119.438 11.826C118.874 11.358 118.154 11.124 117.278 11.124C116.762 11.124 116.234 11.214 115.694 11.394C115.154 11.574 114.644 11.838 114.164 12.186V13.482C114.164 14.394 114.434 15.096 114.974 15.588C115.514 16.08 116.276 16.326 117.26 16.326ZM139.288 8.53197C138.1 7.85997 136.864 7.45197 135.58 7.30797V18H133.24V7.30797C131.944 7.45197 130.702 7.85997 129.514 8.53197L128.704 6.73197C129.544 6.22797 130.444 5.84997 131.404 5.59797C132.376 5.34597 133.372 5.21997 134.392 5.21997C135.412 5.21997 136.408 5.34597 137.38 5.59797C138.352 5.84997 139.258 6.22797 140.098 6.73197L139.288 8.53197ZM147.861 9.26997C148.797 9.26997 149.619 9.44397 150.327 9.79197C151.047 10.14 151.605 10.65 152.001 11.322C152.409 11.982 152.613 12.774 152.613 13.698C152.613 15.126 152.133 16.242 151.173 17.046C150.225 17.838 148.881 18.234 147.141 18.234C145.413 18.234 144.093 17.838 143.181 17.046C142.281 16.242 141.831 15.078 141.831 13.554V5.39997H144.135V10.17C145.419 9.56997 146.661 9.26997 147.861 9.26997ZM156.699 5.39997V18H154.395V5.39997H156.699ZM147.231 16.326C148.179 16.326 148.917 16.098 149.445 15.642C149.985 15.186 150.255 14.562 150.255 13.77C150.255 12.942 149.973 12.294 149.409 11.826C148.845 11.358 148.125 11.124 147.249 11.124C146.733 11.124 146.205 11.214 145.665 11.394C145.125 11.574 144.615 11.838 144.135 12.186V13.482C144.135 14.394 144.405 15.096 144.945 15.588C145.485 16.08 146.247 16.326 147.231 16.326ZM169.997 16.794C169.433 17.238 168.707 17.58 167.819 17.82C166.931 18.06 165.971 18.18 164.939 18.18C163.727 18.18 162.695 18.024 161.843 17.712C161.003 17.4 160.367 16.968 159.935 16.416C159.503 15.864 159.287 15.228 159.287 14.508C159.287 13.812 159.479 13.206 159.863 12.69C160.247 12.174 160.763 11.796 161.411 11.556C160.919 11.292 160.529 10.926 160.241 10.458C159.965 9.97797 159.827 9.44397 159.827 8.85597C159.827 8.18397 160.025 7.57797 160.421 7.03797C160.829 6.48597 161.435 6.04797 162.239 5.72397C163.043 5.38797 164.033 5.21997 165.209 5.21997C166.001 5.21997 166.775 5.30397 167.531 5.47197C168.287 5.63997 168.947 5.86797 169.511 6.15597L168.845 8.00997C167.789 7.45797 166.607 7.18197 165.299 7.18197C164.267 7.18197 163.487 7.34997 162.959 7.68597C162.443 8.00997 162.185 8.44797 162.185 8.99997C162.185 9.53997 162.377 9.95397 162.761 10.242C163.145 10.518 163.709 10.656 164.453 10.656H167.783V12.6H164.327C163.475 12.6 162.815 12.75 162.347 13.05C161.879 13.338 161.645 13.77 161.645 14.346C161.645 14.922 161.927 15.378 162.491 15.714C163.055 16.05 163.907 16.218 165.047 16.218C165.839 16.218 166.607 16.11 167.351 15.894C168.107 15.678 168.737 15.378 169.241 14.994L169.997 16.794ZM70.5816 27.4V40H68.3316V38.398C67.4796 39.586 66.1596 40.18 64.3716 40.18C62.8836 40.18 61.7136 39.718 60.8616 38.794C60.0096 37.858 59.5836 36.538 59.5836 34.834V27.4H61.9236V34.744C61.9236 35.86 62.1876 36.706 62.7156 37.282C63.2556 37.846 63.9936 38.128 64.9296 38.128C65.9376 38.128 66.7416 37.828 67.3416 37.228C67.9416 36.616 68.2416 35.71 68.2416 34.51V27.4H70.5816ZM87.015 38.02V42.682H84.855V40H74.919L74.901 42.682H72.741L72.759 38.02H74.289V32.854C74.289 31.654 74.517 30.634 74.973 29.794C75.441 28.954 76.095 28.318 76.935 27.886C77.775 27.442 78.753 27.22 79.869 27.22C80.997 27.22 81.981 27.436 82.821 27.868C83.661 28.3 84.309 28.942 84.765 29.794C85.233 30.634 85.467 31.654 85.467 32.854V38.02H87.015ZM83.127 38.02V32.638C83.127 31.534 82.839 30.7 82.263 30.136C81.687 29.56 80.889 29.272 79.869 29.272C78.849 29.272 78.051 29.56 77.475 30.136C76.911 30.7 76.629 31.534 76.629 32.638V38.02H83.127ZM98.9981 38.794C98.4341 39.238 97.7081 39.58 96.8201 39.82C95.9321 40.06 94.9721 40.18 93.9401 40.18C92.7281 40.18 91.6961 40.024 90.8441 39.712C90.0041 39.4 89.3681 38.968 88.9361 38.416C88.5041 37.864 88.2881 37.228 88.2881 36.508C88.2881 35.812 88.4801 35.206 88.8641 34.69C89.2481 34.174 89.7641 33.796 90.4121 33.556C89.9201 33.292 89.5301 32.926 89.2421 32.458C88.9661 31.978 88.8281 31.444 88.8281 30.856C88.8281 30.184 89.0261 29.578 89.4221 29.038C89.8301 28.486 90.4361 28.048 91.2401 27.724C92.0441 27.388 93.0341 27.22 94.2101 27.22C95.0021 27.22 95.7761 27.304 96.5321 27.472C97.2881 27.64 97.9481 27.868 98.5121 28.156L97.8461 30.01C96.7901 29.458 95.6081 29.182 94.3001 29.182C93.2681 29.182 92.4881 29.35 91.9601 29.686C91.4441 30.01 91.1861 30.448 91.1861 31C91.1861 31.54 91.3781 31.954 91.7621 32.242C92.1461 32.518 92.7101 32.656 93.4541 32.656H96.7841V34.6H93.3281C92.4761 34.6 91.8161 34.75 91.3481 35.05C90.8801 35.338 90.6461 35.77 90.6461 36.346C90.6461 36.922 90.9281 37.378 91.4921 37.714C92.0561 38.05 92.9081 38.218 94.0481 38.218C94.8401 38.218 95.6081 38.11 96.3521 37.894C97.1081 37.678 97.7381 37.378 98.2421 36.994L98.9981 38.794ZM111.855 27.4V40H109.605V38.398C108.753 39.586 107.433 40.18 105.645 40.18C104.157 40.18 102.987 39.718 102.135 38.794C101.283 37.858 100.857 36.538 100.857 34.834V27.4H103.197V34.744C103.197 35.86 103.461 36.706 103.989 37.282C104.529 37.846 105.267 38.128 106.203 38.128C107.211 38.128 108.015 37.828 108.615 37.228C109.215 36.616 109.515 35.71 109.515 34.51V27.4H111.855Z" fill="#1E4DC2"/>
<mask id="mask0_43_2801" style="mask-type:luminance" maskUnits="userSpaceOnUse" x="0" y="0" width="50" height="50">
<path d="M50 0H0V50H50V0Z" fill="white"/>
</mask>
<g mask="url(#mask0_43_2801)">
<path d="M1.70919 0.127041C0.879115 0.449307 0.33224 1.02548 0.0978648 1.8165C0.0197398 2.08993 0.000208613 5.1954 0.0197398 13.086C0.0490367 24.8048 0.0197398 24.1603 0.508021 24.8243C0.605677 24.9708 0.605677 25.0294 0.508021 25.1661C0.439662 25.2638 0.312709 25.4981 0.215052 25.6837C0.0588023 26.006 0.0490367 26.797 0.0490367 37.1095C0.0490367 47.881 0.0588023 48.2032 0.234584 48.5743C0.478724 49.0626 0.937709 49.5216 1.42599 49.7657C1.79708 49.9415 2.11935 49.9513 12.8908 49.9513C23.2033 49.9513 23.9943 49.9415 24.3166 49.7853C24.5022 49.6876 24.7365 49.5606 24.8342 49.4923C24.9709 49.3946 25.0295 49.3946 25.176 49.4923C25.2639 49.5606 25.4983 49.6876 25.6838 49.7853C26.0061 49.9415 26.7971 49.9513 37.1096 49.9513C47.8811 49.9513 48.2033 49.9415 48.5744 49.7657C49.0627 49.5216 49.5217 49.0626 49.7658 48.5743C49.9416 48.2032 49.9514 47.881 49.9514 37.1095C49.9514 26.797 49.9416 26.006 49.7854 25.6837C49.6877 25.4981 49.5608 25.2638 49.4924 25.1759C49.3947 25.0294 49.3947 24.9708 49.4924 24.8243C49.5608 24.7364 49.6877 24.5021 49.7854 24.3165C49.9416 23.9942 49.9514 23.2032 49.9514 12.8907C49.9514 2.11923 49.9416 1.79697 49.7658 1.42587C49.5217 0.937588 49.0627 0.478604 48.5744 0.234463C48.2033 0.0586819 47.8811 0.0489162 37.1096 0.0489162C26.7971 0.0489162 26.0061 0.0586819 25.6838 0.214932C25.4983 0.312588 25.2639 0.439541 25.176 0.5079C25.0295 0.605557 24.9709 0.605557 24.8342 0.5079C24.7365 0.439541 24.5022 0.312588 24.3166 0.214932C24.0041 0.0586819 23.1838 0.0489162 12.9885 0.029385C4.73654 0.0196193 1.92404 0.0391506 1.70919 0.127041ZM23.9455 1.83603L24.1701 2.06064L24.219 6.27939C24.2776 10.9864 24.2483 10.8302 24.9807 11.3282C25.3029 11.5626 25.4104 11.5724 26.6506 11.5724C27.383 11.5724 28.0959 11.5431 28.2326 11.504C28.3693 11.4649 28.7795 11.172 29.1408 10.8497C29.883 10.1954 30.4299 9.96103 31.2502 9.96103C32.0412 9.96103 32.6369 10.1954 33.2424 10.7521C33.926 11.3673 34.1994 11.9923 34.1994 12.9103C34.1994 14.1407 33.5354 15.1173 32.3635 15.6349C31.9826 15.8106 31.7678 15.8399 31.1135 15.8009C30.1955 15.7521 29.9026 15.6251 29.1506 14.9415C28.4182 14.2774 28.301 14.2286 27.2365 14.1798C25.8303 14.1114 25.2541 14.2091 24.8342 14.5802C24.2092 15.1271 24.219 15.0685 24.219 19.8731V24.2189H19.9709H15.7229V23.2618C15.7229 22.3146 15.7229 22.295 16.0256 22.0118C16.9729 21.1329 17.4416 19.8829 17.3635 18.4278C17.3244 17.6368 17.2658 17.4122 16.9631 16.7872C15.8889 14.5606 13.2033 13.6036 10.9572 14.6485C10.2736 14.9708 9.37521 15.7618 9.02365 16.3673C7.96896 18.1739 8.26193 20.5567 9.70724 21.963L10.0588 22.3048V23.2618V24.2286L6.0549 24.1993L2.06076 24.17L1.83615 23.9454L1.61154 23.7208L1.59201 13.0079C1.57247 4.54111 1.59201 2.24618 1.68966 2.05087C1.94357 1.54306 1.52365 1.56259 13.008 1.59189L23.7209 1.61142L23.9455 1.83603ZM48.1643 1.83603L48.3889 2.06064V12.8907V23.7208L48.1643 23.9454L47.9397 24.17L43.7209 24.2189C39.0139 24.2774 39.1701 24.2481 38.6721 24.9806C38.4377 25.3028 38.4279 25.4103 38.4279 26.6505C38.4279 27.3829 38.4572 28.0958 38.4963 28.2325C38.5354 28.3692 38.8088 28.7599 39.1115 29.0919C39.8537 29.922 39.9709 30.1856 40.0197 31.1134C40.0588 31.8165 40.0295 31.9825 39.8244 32.4415C38.9553 34.336 36.5627 34.8048 35.0686 33.3692C34.4924 32.8126 34.1799 32.0997 34.1799 31.3087C34.1799 30.4493 34.4045 29.8927 35.01 29.1993C35.3029 28.8771 35.5959 28.5157 35.6545 28.3985C35.801 28.1251 35.8889 26.4845 35.7912 25.7423C35.7424 25.3126 35.6545 25.0978 35.4201 24.8341C34.8733 24.2091 34.9318 24.2189 30.1272 24.2189H25.7815V19.9708V15.7228H26.7385C27.6858 15.7228 27.7053 15.7228 27.9885 16.0255C28.8674 16.9728 30.1174 17.4415 31.5725 17.3634C32.3635 17.3243 32.5881 17.2657 33.2131 16.963C35.4397 15.8888 36.3967 13.2032 35.3518 10.9571C35.0295 10.2735 34.2385 9.37509 33.633 9.02353C31.8264 7.96884 29.4436 8.26181 28.0373 9.70712L27.6955 10.0587H26.7385H25.7815V6.17197C25.7815 2.03134 25.7912 1.93368 26.2697 1.68954C26.4651 1.59189 28.76 1.57236 37.2268 1.59189L47.9397 1.61142L48.1643 1.83603ZM14.2287 16.1231C14.8928 16.4454 15.3029 16.8849 15.635 17.6368C15.8108 18.0177 15.8401 18.2325 15.801 18.8868C15.7522 19.8048 15.6252 20.0978 14.9416 20.8497C14.2776 21.5821 14.2287 21.6993 14.1799 22.7638C14.1115 24.17 14.2092 24.7462 14.5803 25.1661C15.1272 25.7911 15.0686 25.7813 19.8733 25.7813H24.219V30.0294V34.2774H23.2619H22.3049L21.9631 33.9259C20.5568 32.4806 18.174 32.1876 16.3674 33.2423C16.1428 33.3692 15.7326 33.7208 15.4494 34.0235C13.8186 35.7521 13.8186 38.4669 15.4494 40.1954C16.3576 41.1524 17.4026 41.6017 18.7502 41.6017C20.01 41.6017 21.1428 41.1329 21.9631 40.2931L22.3049 39.9415H23.2619H24.2287L24.1994 43.9454L24.1701 47.9396L23.9455 48.1642L23.7209 48.3888H12.8908H2.06076L1.83615 48.1642L1.61154 47.9396V37.1095V26.2794L1.83615 26.0548L2.06076 25.8302L6.27951 25.7813C10.9865 25.7228 10.8303 25.7521 11.3283 25.0196C11.5627 24.6974 11.5725 24.5899 11.5725 23.3497C11.5725 22.6173 11.5432 21.9044 11.5041 21.7677C11.4651 21.631 11.1721 21.2208 10.8498 20.8595C10.1955 20.1173 9.96115 19.5704 9.96115 18.7501C9.96115 17.9786 10.1955 17.3731 10.7131 16.797C11.6701 15.7325 12.9104 15.4981 14.2287 16.1231ZM34.2776 26.7384V27.6954L33.926 28.0372C32.4709 29.4435 32.1877 31.8263 33.2522 33.6427C33.5451 34.1505 34.4533 35.0001 35.0002 35.2735C36.26 35.9181 37.7639 35.9474 39.0432 35.3517C39.7365 35.0294 40.6252 34.2384 40.9865 33.6134C42.0315 31.836 41.7287 29.4239 40.2932 28.0372L39.9416 27.6954V26.7384V25.7716L43.9455 25.8009L47.9397 25.8302L48.1643 26.0548L48.3889 26.2794V37.1095V47.9396L48.1643 48.1642L47.9397 48.3888H37.1096H26.2795L26.0549 48.1642L25.8303 47.9396L25.7815 43.7208C25.7229 39.0138 25.7522 39.17 25.0197 38.672C24.6975 38.4376 24.5901 38.4278 23.3498 38.4278C22.6174 38.4278 21.9045 38.4571 21.7678 38.4962C21.6311 38.5353 21.2404 38.8087 20.9084 39.1114C20.0783 39.8536 19.8147 39.9708 18.8869 40.0196C18.1838 40.0587 18.0178 40.0294 17.5588 39.8243C15.6643 38.9552 15.1955 36.5626 16.6311 35.0685C17.1877 34.4923 17.9006 34.1798 18.6916 34.1798C19.551 34.1798 20.1076 34.4044 20.801 35.0099C21.1233 35.3028 21.4846 35.5958 21.6018 35.6544C21.8752 35.8009 23.5158 35.8888 24.258 35.7911C24.6877 35.7423 24.9026 35.6544 25.1662 35.42C25.7912 34.8731 25.7815 34.9317 25.7815 30.1271V25.7813H30.0295H34.2776V26.7384Z" fill="#1E4DC2"/>
</g>
</svg>
