<svg width="192" height="50" viewBox="0 0 192 50" fill="none" xmlns="http://www.w3.org/2000/svg">
<path d="M65.5956 18.1802C64.3116 18.1802 63.1536 17.9042 62.1216 17.3522C61.0896 16.7882 60.2796 16.0142 59.6916 15.0302C59.1036 14.0342 58.8096 12.9242 58.8096 11.7002C58.8096 10.4762 59.1036 9.37221 59.6916 8.38821C60.2796 7.39221 61.0896 6.61822 62.1216 6.06622C63.1536 5.50222 64.3116 5.22021 65.5956 5.22021C66.8796 5.22021 68.0376 5.50222 69.0696 6.06622C70.1016 6.61822 70.9116 7.38621 71.4996 8.37021C72.0876 9.35422 72.3816 10.4642 72.3816 11.7002C72.3816 12.9362 72.0876 14.0462 71.4996 15.0302C70.9116 16.0142 70.1016 16.7882 69.0696 17.3522C68.0376 17.9042 66.8796 18.1802 65.5956 18.1802ZM65.5956 16.1282C66.4356 16.1282 67.1916 15.9422 67.8636 15.5702C68.5356 15.1862 69.0636 14.6582 69.4476 13.9862C69.8316 13.3022 70.0236 12.5402 70.0236 11.7002C70.0236 10.8602 69.8316 10.1042 69.4476 9.43222C69.0636 8.74822 68.5356 8.22022 67.8636 7.84822C67.1916 7.46422 66.4356 7.27221 65.5956 7.27221C64.7556 7.27221 63.9996 7.46422 63.3276 7.84822C62.6556 8.22022 62.1276 8.74822 61.7436 9.43222C61.3596 10.1042 61.1676 10.8602 61.1676 11.7002C61.1676 12.5402 61.3596 13.3022 61.7436 13.9862C62.1276 14.6582 62.6556 15.1862 63.3276 15.5702C63.9996 15.9422 64.7556 16.1282 65.5956 16.1282ZM83.8109 8.53221C82.6229 7.86021 81.3869 7.45222 80.1029 7.30822V18.0002H77.7629V7.30822C76.4669 7.45222 75.2249 7.86021 74.0369 8.53221L73.2269 6.73221C74.0669 6.22821 74.9669 5.85022 75.9269 5.59822C76.8989 5.34622 77.8949 5.22021 78.9149 5.22021C79.9349 5.22021 80.9309 5.34622 81.9029 5.59822C82.8749 5.85022 83.7809 6.22821 84.6209 6.73221L83.8109 8.53221ZM91.2318 12.6902H88.8918V18.0002H86.5878V5.40022H88.8918V10.6742H91.3038L94.9218 5.40022H97.4058L93.1038 11.5022L97.5678 18.0002H94.9218L91.2318 12.6902ZM104.373 5.29221C106.077 5.29221 107.409 5.72421 108.369 6.58821C109.329 7.44021 109.809 8.62822 109.809 10.1522C109.809 11.6162 109.371 12.7682 108.495 13.6082C107.619 14.4362 106.407 14.8502 104.859 14.8502C104.259 14.8502 103.683 14.7842 103.131 14.6522C102.579 14.5202 101.979 14.2982 101.331 13.9862V18.0002H99.0264V10.4582C99.0264 8.80222 99.4884 7.53022 100.413 6.64222C101.337 5.74222 102.657 5.29221 104.373 5.29221ZM104.445 13.0142C105.393 13.0142 106.131 12.7682 106.659 12.2762C107.199 11.7842 107.469 11.0942 107.469 10.2062C107.469 9.30622 107.199 8.60422 106.659 8.10022C106.119 7.58422 105.375 7.32622 104.427 7.32622C103.455 7.32622 102.693 7.59621 102.141 8.13621C101.601 8.67621 101.331 9.43821 101.331 10.4222V11.9522C101.763 12.3002 102.243 12.5642 102.771 12.7442C103.311 12.9242 103.869 13.0142 104.445 13.0142ZM117.89 9.27022C118.826 9.27022 119.648 9.44421 120.356 9.79221C121.076 10.1402 121.634 10.6502 122.03 11.3222C122.438 11.9822 122.642 12.7742 122.642 13.6982C122.642 15.1262 122.162 16.2422 121.202 17.0462C120.254 17.8382 118.91 18.2342 117.17 18.2342C115.442 18.2342 114.122 17.8382 113.21 17.0462C112.31 16.2422 111.86 15.0782 111.86 13.5542V5.40022H114.164V10.1702C115.448 9.57022 116.69 9.27022 117.89 9.27022ZM126.728 5.40022V18.0002H124.424V5.40022H126.728ZM117.26 16.3262C118.208 16.3262 118.946 16.0982 119.474 15.6422C120.014 15.1862 120.284 14.5622 120.284 13.7702C120.284 12.9422 120.002 12.2942 119.438 11.8262C118.874 11.3582 118.154 11.1242 117.278 11.1242C116.762 11.1242 116.234 11.2142 115.694 11.3942C115.154 11.5742 114.644 11.8382 114.164 12.1862V13.4822C114.164 14.3942 114.434 15.0962 114.974 15.5882C115.514 16.0802 116.276 16.3262 117.26 16.3262ZM139.288 8.53221C138.1 7.86021 136.864 7.45222 135.58 7.30822V18.0002H133.24V7.30822C131.944 7.45222 130.702 7.86021 129.514 8.53221L128.704 6.73221C129.544 6.22821 130.444 5.85022 131.404 5.59822C132.376 5.34622 133.372 5.22021 134.392 5.22021C135.412 5.22021 136.408 5.34622 137.38 5.59822C138.352 5.85022 139.258 6.22821 140.098 6.73221L139.288 8.53221ZM147.861 9.27022C148.797 9.27022 149.619 9.44421 150.327 9.79221C151.047 10.1402 151.605 10.6502 152.001 11.3222C152.409 11.9822 152.613 12.7742 152.613 13.6982C152.613 15.1262 152.133 16.2422 151.173 17.0462C150.225 17.8382 148.881 18.2342 147.141 18.2342C145.413 18.2342 144.093 17.8382 143.181 17.0462C142.281 16.2422 141.831 15.0782 141.831 13.5542V5.40022H144.135V10.1702C145.419 9.57022 146.661 9.27022 147.861 9.27022ZM156.699 5.40022V18.0002H154.395V5.40022H156.699ZM147.231 16.3262C148.179 16.3262 148.917 16.0982 149.445 15.6422C149.985 15.1862 150.255 14.5622 150.255 13.7702C150.255 12.9422 149.973 12.2942 149.409 11.8262C148.845 11.3582 148.125 11.1242 147.249 11.1242C146.733 11.1242 146.205 11.2142 145.665 11.3942C145.125 11.5742 144.615 11.8382 144.135 12.1862V13.4822C144.135 14.3942 144.405 15.0962 144.945 15.5882C145.485 16.0802 146.247 16.3262 147.231 16.3262ZM169.997 16.7942C169.433 17.2382 168.707 17.5802 167.819 17.8202C166.931 18.0602 165.971 18.1802 164.939 18.1802C163.727 18.1802 162.695 18.0242 161.843 17.7122C161.003 17.4002 160.367 16.9682 159.935 16.4162C159.503 15.8642 159.287 15.2282 159.287 14.5082C159.287 13.8122 159.479 13.2062 159.863 12.6902C160.247 12.1742 160.763 11.7962 161.411 11.5562C160.919 11.2922 160.529 10.9262 160.241 10.4582C159.965 9.97822 159.827 9.44421 159.827 8.85622C159.827 8.18422 160.025 7.57822 160.421 7.03822C160.829 6.48622 161.435 6.04822 162.239 5.72422C163.043 5.38822 164.033 5.22021 165.209 5.22021C166.001 5.22021 166.775 5.30422 167.531 5.47222C168.287 5.64022 168.947 5.86822 169.511 6.15622L168.845 8.01022C167.789 7.45822 166.607 7.18222 165.299 7.18222C164.267 7.18222 163.487 7.35021 162.959 7.68621C162.443 8.01021 162.185 8.44822 162.185 9.00022C162.185 9.54022 162.377 9.95421 162.761 10.2422C163.145 10.5182 163.709 10.6562 164.453 10.6562H167.783V12.6002H164.327C163.475 12.6002 162.815 12.7502 162.347 13.0502C161.879 13.3382 161.645 13.7702 161.645 14.3462C161.645 14.9222 161.927 15.3782 162.491 15.7142C163.055 16.0502 163.907 16.2182 165.047 16.2182C165.839 16.2182 166.607 16.1102 167.351 15.8942C168.107 15.6782 168.737 15.3782 169.241 14.9942L169.997 16.7942ZM70.5816 27.4002V40.0002H68.3316V38.3982C67.4796 39.5862 66.1596 40.1802 64.3716 40.1802C62.8836 40.1802 61.7136 39.7182 60.8616 38.7942C60.0096 37.8582 59.5836 36.5382 59.5836 34.8342V27.4002H61.9236V34.7442C61.9236 35.8602 62.1876 36.7062 62.7156 37.2822C63.2556 37.8462 63.9936 38.1282 64.9296 38.1282C65.9376 38.1282 66.7416 37.8282 67.3416 37.2282C67.9416 36.6162 68.2416 35.7102 68.2416 34.5102V27.4002H70.5816ZM87.015 38.0202V42.6822H84.855V40.0002H74.919L74.901 42.6822H72.741L72.759 38.0202H74.289V32.8542C74.289 31.6542 74.517 30.6342 74.973 29.7942C75.441 28.9542 76.095 28.3182 76.935 27.8862C77.775 27.4422 78.753 27.2202 79.869 27.2202C80.997 27.2202 81.981 27.4362 82.821 27.8682C83.661 28.3002 84.309 28.9422 84.765 29.7942C85.233 30.6342 85.467 31.6542 85.467 32.8542V38.0202H87.015ZM83.127 38.0202V32.6382C83.127 31.5342 82.839 30.7002 82.263 30.1362C81.687 29.5602 80.889 29.2722 79.869 29.2722C78.849 29.2722 78.051 29.5602 77.475 30.1362C76.911 30.7002 76.629 31.5342 76.629 32.6382V38.0202H83.127ZM98.9981 38.7942C98.4341 39.2382 97.7081 39.5802 96.8201 39.8202C95.9321 40.0602 94.9721 40.1802 93.9401 40.1802C92.7281 40.1802 91.6961 40.0242 90.8441 39.7122C90.0041 39.4002 89.3681 38.9682 88.9361 38.4162C88.5041 37.8642 88.2881 37.2282 88.2881 36.5082C88.2881 35.8122 88.4801 35.2062 88.8641 34.6902C89.2481 34.1742 89.7641 33.7962 90.4121 33.5562C89.9201 33.2922 89.5301 32.9262 89.2421 32.4582C88.9661 31.9782 88.8281 31.4442 88.8281 30.8562C88.8281 30.1842 89.0261 29.5782 89.4221 29.0382C89.8301 28.4862 90.4361 28.0482 91.2401 27.7242C92.0441 27.3882 93.0341 27.2202 94.2101 27.2202C95.0021 27.2202 95.7761 27.3042 96.5321 27.4722C97.2881 27.6402 97.9481 27.8682 98.5121 28.1562L97.8461 30.0102C96.7901 29.4582 95.6081 29.1822 94.3001 29.1822C93.2681 29.1822 92.4881 29.3502 91.9601 29.6862C91.4441 30.0102 91.1861 30.4482 91.1861 31.0002C91.1861 31.5402 91.3781 31.9542 91.7621 32.2422C92.1461 32.5182 92.7101 32.6562 93.4541 32.6562H96.7841V34.6002H93.3281C92.4761 34.6002 91.8161 34.7502 91.3481 35.0502C90.8801 35.3382 90.6461 35.7702 90.6461 36.3462C90.6461 36.9222 90.9281 37.3782 91.4921 37.7142C92.0561 38.0502 92.9081 38.2182 94.0481 38.2182C94.8401 38.2182 95.6081 38.1102 96.3521 37.8942C97.1081 37.6782 97.7381 37.3782 98.2421 36.9942L98.9981 38.7942ZM111.855 27.4002V40.0002H109.605V38.3982C108.753 39.5862 107.433 40.1802 105.645 40.1802C104.157 40.1802 102.987 39.7182 102.135 38.7942C101.283 37.8582 100.857 36.5382 100.857 34.8342V27.4002H103.197V34.7442C103.197 35.8602 103.461 36.7062 103.989 37.2822C104.529 37.8462 105.267 38.1282 106.203 38.1282C107.211 38.1282 108.015 37.8282 108.615 37.2282C109.215 36.6162 109.515 35.7102 109.515 34.5102V27.4002H111.855Z" fill="white"/>
<mask id="mask0_2001_643" style="mask-type:luminance" maskUnits="userSpaceOnUse" x="0" y="0" width="50" height="50">
<path d="M50 0H0V50H50V0Z" fill="white"/>
</mask>
<g mask="url(#mask0_2001_643)">
<path d="M1.70919 0.126797C0.879115 0.449063 0.33224 1.02523 0.0978648 1.81625C0.0197398 2.08968 0.000208613 5.19515 0.0197398 13.0857C0.0490367 24.8045 0.0197398 24.16 0.508021 24.824C0.605677 24.9705 0.605677 25.0291 0.508021 25.1658C0.439662 25.2635 0.312709 25.4978 0.215052 25.6834C0.0588023 26.0057 0.0490367 26.7967 0.0490367 37.1092C0.0490367 47.8807 0.0588023 48.2029 0.234584 48.574C0.478724 49.0623 0.937709 49.5213 1.42599 49.7654C1.79708 49.9412 2.11935 49.951 12.8908 49.951C23.2033 49.951 23.9943 49.9412 24.3166 49.785C24.5022 49.6873 24.7365 49.5603 24.8342 49.492C24.9709 49.3943 25.0295 49.3943 25.176 49.492C25.2639 49.5603 25.4983 49.6873 25.6838 49.785C26.0061 49.9412 26.7971 49.951 37.1096 49.951C47.8811 49.951 48.2033 49.9412 48.5744 49.7654C49.0627 49.5213 49.5217 49.0623 49.7658 48.574C49.9416 48.2029 49.9514 47.8807 49.9514 37.1092C49.9514 26.7967 49.9416 26.0057 49.7854 25.6834C49.6877 25.4978 49.5608 25.2635 49.4924 25.1756C49.3947 25.0291 49.3947 24.9705 49.4924 24.824C49.5608 24.7361 49.6877 24.5018 49.7854 24.3162C49.9416 23.9939 49.9514 23.2029 49.9514 12.8904C49.9514 2.11898 49.9416 1.79672 49.7658 1.42562C49.5217 0.937344 49.0627 0.47836 48.5744 0.234219C48.2033 0.0584377 47.8811 0.0486721 37.1096 0.0486721C26.7971 0.0486721 26.0061 0.0584378 25.6838 0.214688C25.4983 0.312344 25.2639 0.439297 25.176 0.507656C25.0295 0.605313 24.9709 0.605313 24.8342 0.507656C24.7365 0.439297 24.5022 0.312344 24.3166 0.214688C24.0041 0.0584378 23.1838 0.0486721 12.9885 0.0291409C4.73654 0.0193752 1.92404 0.0389065 1.70919 0.126797ZM23.9455 1.83578L24.1701 2.06039L24.219 6.27914C24.2776 10.9861 24.2483 10.8299 24.9807 11.3279C25.3029 11.5623 25.4104 11.5721 26.6506 11.5721C27.383 11.5721 28.0959 11.5428 28.2326 11.5037C28.3693 11.4646 28.7795 11.1717 29.1408 10.8494C29.883 10.1951 30.4299 9.96078 31.2502 9.96078C32.0412 9.96078 32.6369 10.1951 33.2424 10.7518C33.926 11.367 34.1994 11.992 34.1994 12.91C34.1994 14.1404 33.5354 15.117 32.3635 15.6346C31.9826 15.8103 31.7678 15.8396 31.1135 15.8006C30.1955 15.7518 29.9026 15.6248 29.1506 14.9412C28.4182 14.2771 28.301 14.2283 27.2365 14.1795C25.8303 14.1111 25.2541 14.2088 24.8342 14.5799C24.2092 15.1268 24.219 15.0682 24.219 19.8728V24.2186H19.9709H15.7229V23.2615C15.7229 22.3143 15.7229 22.2947 16.0256 22.0115C16.9729 21.1326 17.4416 19.8826 17.3635 18.4275C17.3244 17.6365 17.2658 17.4119 16.9631 16.7869C15.8889 14.5603 13.2033 13.6033 10.9572 14.6482C10.2736 14.9705 9.37521 15.7615 9.02365 16.367C7.96896 18.1736 8.26193 20.5564 9.70724 21.9627L10.0588 22.3045V23.2615V24.2283L6.0549 24.199L2.06076 24.1697L1.83615 23.9451L1.61154 23.7205L1.59201 13.0076C1.57247 4.54086 1.59201 2.24593 1.68966 2.05062C1.94357 1.54281 1.52365 1.56234 13.008 1.59164L23.7209 1.61117L23.9455 1.83578ZM48.1643 1.83578L48.3889 2.06039V12.8904V23.7205L48.1643 23.9451L47.9397 24.1697L43.7209 24.2186C39.0139 24.2771 39.1701 24.2478 38.6721 24.9803C38.4377 25.3025 38.4279 25.41 38.4279 26.6502C38.4279 27.3826 38.4572 28.0955 38.4963 28.2322C38.5354 28.3689 38.8088 28.7596 39.1115 29.0916C39.8537 29.9217 39.9709 30.1853 40.0197 31.1131C40.0588 31.8162 40.0295 31.9822 39.8244 32.4412C38.9553 34.3357 36.5627 34.8045 35.0686 33.3689C34.4924 32.8123 34.1799 32.0994 34.1799 31.3084C34.1799 30.449 34.4045 29.8924 35.01 29.199C35.3029 28.8768 35.5959 28.5154 35.6545 28.3982C35.801 28.1248 35.8889 26.4842 35.7912 25.742C35.7424 25.3123 35.6545 25.0975 35.4201 24.8338C34.8733 24.2088 34.9318 24.2186 30.1272 24.2186H25.7815V19.9705V15.7225H26.7385C27.6858 15.7225 27.7053 15.7225 27.9885 16.0252C28.8674 16.9725 30.1174 17.4412 31.5725 17.3631C32.3635 17.324 32.5881 17.2654 33.2131 16.9627C35.4397 15.8885 36.3967 13.2029 35.3518 10.9568C35.0295 10.2732 34.2385 9.37484 33.633 9.02328C31.8264 7.96859 29.4436 8.26156 28.0373 9.70687L27.6955 10.0584H26.7385H25.7815V6.17172C25.7815 2.03109 25.7912 1.93343 26.2697 1.68929C26.4651 1.59164 28.76 1.57211 37.2268 1.59164L47.9397 1.61117L48.1643 1.83578ZM14.2287 16.1228C14.8928 16.4451 15.3029 16.8846 15.635 17.6365C15.8108 18.0174 15.8401 18.2322 15.801 18.8865C15.7522 19.8045 15.6252 20.0975 14.9416 20.8494C14.2776 21.5818 14.2287 21.699 14.1799 22.7635C14.1115 24.1697 14.2092 24.7459 14.5803 25.1658C15.1272 25.7908 15.0686 25.781 19.8733 25.781H24.219V30.0291V34.2771H23.2619H22.3049L21.9631 33.9256C20.5568 32.4803 18.174 32.1873 16.3674 33.242C16.1428 33.3689 15.7326 33.7205 15.4494 34.0232C13.8186 35.7518 13.8186 38.4666 15.4494 40.1951C16.3576 41.1521 17.4026 41.6014 18.7502 41.6014C20.01 41.6014 21.1428 41.1326 21.9631 40.2928L22.3049 39.9412H23.2619H24.2287L24.1994 43.9451L24.1701 47.9393L23.9455 48.1639L23.7209 48.3885H12.8908H2.06076L1.83615 48.1639L1.61154 47.9393V37.1092V26.2791L1.83615 26.0545L2.06076 25.8299L6.27951 25.781C10.9865 25.7225 10.8303 25.7518 11.3283 25.0193C11.5627 24.6971 11.5725 24.5896 11.5725 23.3494C11.5725 22.617 11.5432 21.9041 11.5041 21.7674C11.4651 21.6307 11.1721 21.2205 10.8498 20.8592C10.1955 20.117 9.96115 19.5701 9.96115 18.7498C9.96115 17.9783 10.1955 17.3728 10.7131 16.7967C11.6701 15.7322 12.9104 15.4978 14.2287 16.1228ZM34.2776 26.7381V27.6951L33.926 28.0369C32.4709 29.4432 32.1877 31.826 33.2522 33.6424C33.5451 34.1502 34.4533 34.9998 35.0002 35.2732C36.26 35.9178 37.7639 35.9471 39.0432 35.3514C39.7365 35.0291 40.6252 34.2381 40.9865 33.6131C42.0315 31.8357 41.7287 29.4236 40.2932 28.0369L39.9416 27.6951V26.7381V25.7713L43.9455 25.8006L47.9397 25.8299L48.1643 26.0545L48.3889 26.2791V37.1092V47.9393L48.1643 48.1639L47.9397 48.3885H37.1096H26.2795L26.0549 48.1639L25.8303 47.9393L25.7815 43.7205C25.7229 39.0135 25.7522 39.1697 25.0197 38.6717C24.6975 38.4373 24.5901 38.4275 23.3498 38.4275C22.6174 38.4275 21.9045 38.4568 21.7678 38.4959C21.6311 38.535 21.2404 38.8084 20.9084 39.1111C20.0783 39.8533 19.8147 39.9705 18.8869 40.0193C18.1838 40.0584 18.0178 40.0291 17.5588 39.824C15.6643 38.9549 15.1955 36.5623 16.6311 35.0682C17.1877 34.492 17.9006 34.1795 18.6916 34.1795C19.551 34.1795 20.1076 34.4041 20.801 35.0096C21.1233 35.3025 21.4846 35.5955 21.6018 35.6541C21.8752 35.8006 23.5158 35.8885 24.258 35.7908C24.6877 35.742 24.9026 35.6541 25.1662 35.4197C25.7912 34.8728 25.7815 34.9314 25.7815 30.1268V25.781H30.0295H34.2776V26.7381Z" fill="white"/>
</g>
</svg>
