<svg width="528" height="71" viewBox="0 0 528 71" fill="none" xmlns="http://www.w3.org/2000/svg">
<g filter="url(#filter0_d_43_2304)">
<path d="M29.5627 47.729C26.074 47.7841 22.6279 46.8871 19.5376 45.1195C16.6281 43.3888 14.2074 40.8231 12.5373 37.6997C10.8356 34.5264 9.9591 30.9068 10.0022 27.2303C9.95042 23.5725 10.8279 19.9705 12.5373 16.8238C14.1991 13.7252 16.6245 11.198 19.5376 9.52975C22.6132 7.71313 26.066 6.79271 29.5627 6.85738C33.0498 6.79671 36.4924 7.71705 39.559 9.52975C42.4565 11.1931 44.8784 13.6949 46.5593 16.7609C48.2748 19.9279 49.1523 23.5518 49.0944 27.2303C49.1625 30.8633 48.3077 34.4459 46.6246 37.5812C44.9416 40.7165 42.4961 43.2821 39.559 44.9937C36.4881 46.8012 33.0517 47.7415 29.5627 47.729ZM29.5627 41.2838C31.8355 41.3174 34.0778 40.711 36.0733 39.5232C37.9878 38.356 39.5721 36.6378 40.6537 34.5557C41.758 32.3493 42.3235 29.87 42.2958 27.356C42.3307 24.8612 41.7645 22.4001 40.6537 20.2192C39.6096 18.0744 38.0187 16.3054 36.0733 15.126C34.093 13.8898 31.8437 13.2599 29.5627 13.3025C27.2725 13.2589 25.0137 13.8887 23.0233 15.126C21.1024 16.284 19.516 18.0044 18.4429 20.0935C17.3321 22.2744 16.7659 24.7354 16.8008 27.2303C16.7731 29.7442 17.3386 32.2236 18.4429 34.43C19.5326 36.5052 21.115 38.2213 23.0233 39.3974C25.0292 40.5852 27.2808 41.1914 29.5627 41.1581V41.2838ZM82.0218 17.2639C78.7374 15.2005 75.0997 13.895 71.3341 13.4283V47.0373H64.7371V13.4283C60.9623 13.8943 57.3151 15.1997 54.0206 17.2639L51.6871 11.6048C54.0678 10.0383 56.6373 8.84252 59.3212 8.05209C64.9884 6.44227 70.9388 6.44227 76.6059 8.05209C79.3615 8.81677 82.0008 10.0134 84.4417 11.6048L82.0218 17.2639ZM103.397 30.3428H96.6562V47.0373H90.0304V7.4233H96.6562V23.992H103.599L114.027 7.4233H121.201L108.784 26.6015L121.661 47.0373H114.027L103.397 30.3428ZM141.251 7.07746C145.428 6.79647 149.546 8.25737 152.774 11.1646C154.178 12.5821 155.277 14.3202 155.994 16.2549C156.711 18.1897 157.028 20.2733 156.922 22.3571C157.023 24.36 156.736 26.3634 156.081 28.2375C155.426 30.1116 154.417 31.8144 153.12 33.2353C151.698 34.6044 150.042 35.6535 148.247 36.3225C146.453 36.9915 144.555 37.2672 142.662 37.1338C140.984 37.1355 139.312 36.9245 137.679 36.505C135.888 36.0145 134.15 35.319 132.493 34.43V47.0058H125.867V23.3318C125.736 21.139 126.021 18.9401 126.705 16.8733C127.389 14.8066 128.457 12.9165 129.843 11.3218C131.395 9.83059 133.202 8.68813 135.16 7.95983C137.117 7.23153 139.187 6.93168 141.251 7.07746ZM141.452 31.3489C143.775 31.5071 146.065 30.6855 147.848 29.0538C148.637 28.2179 149.253 27.2077 149.656 26.0907C150.058 24.9737 150.237 23.7759 150.181 22.5772C150.247 21.354 150.073 20.1295 149.67 18.9855C149.268 17.8416 148.647 16.8045 147.848 15.9434C146.084 14.241 143.774 13.3705 141.424 13.5226C140.224 13.4441 139.022 13.6291 137.889 14.0665C136.756 14.5039 135.714 15.1849 134.827 16.0692C134.014 17.0302 133.389 18.1608 132.988 19.3928C132.587 20.6248 132.419 21.9326 132.493 23.2375V28.0163C133.763 29.1224 135.208 29.9643 136.757 30.5C138.271 31.0512 139.856 31.3377 141.452 31.3489ZM180.199 19.5904C182.655 19.5272 185.091 20.0868 187.315 21.2253C189.322 22.2693 190.997 23.9444 192.125 26.0356C193.349 28.2978 193.958 30.8927 193.883 33.5182C193.974 35.5029 193.647 37.484 192.928 39.3097C192.209 41.1353 191.117 42.757 189.734 44.0505C186.409 46.7189 182.332 48.0316 178.211 47.7604C174.084 48.1048 169.984 46.7848 166.688 44.0505C165.347 42.6347 164.304 40.9168 163.632 39.0165C162.96 37.1162 162.676 35.079 162.799 33.0466V7.4233H169.425V22.5772C172.77 20.7259 176.45 19.7059 180.199 19.5904ZM205.665 7.4233V47.0373H199.011V7.4233H205.665ZM178.384 41.7869C180.679 41.9472 182.947 41.1744 184.751 39.6175C185.526 38.8975 186.139 37.9932 186.544 36.9739C186.948 35.9547 187.133 34.8478 187.084 33.7383C187.141 32.5866 186.952 31.4363 186.532 30.3779C186.112 29.3195 185.473 28.3819 184.664 27.639C182.899 26.1115 180.693 25.3202 178.442 25.4068C176.883 25.4174 175.336 25.7041 173.861 26.2557C172.282 26.8403 170.795 27.6888 169.454 28.7708V32.8266C169.382 34.0504 169.554 35.2767 169.956 36.4216C170.359 37.5665 170.984 38.603 171.787 39.4603C173.639 41.1145 175.995 41.9453 178.384 41.7869ZM241.761 17.2639C238.475 15.2046 234.838 13.8993 231.074 13.4283V47.0373H224.419V13.4283C220.634 13.8892 216.977 15.1948 213.674 17.2639L211.34 11.6048C213.766 10.0248 216.385 8.82863 219.118 8.05209C224.787 6.45474 230.735 6.45474 236.403 8.05209C239.157 8.82259 241.796 10.0189 244.239 11.6048L241.761 17.2639ZM266.45 19.5904C268.906 19.5272 271.341 20.0868 273.565 21.2253C275.605 22.2536 277.312 23.9303 278.463 26.0356C279.686 28.2978 280.295 30.8927 280.22 33.5182C280.311 35.5029 279.985 37.484 279.265 39.3097C278.546 41.1353 277.454 42.757 276.072 44.0505C272.746 46.7189 268.669 48.0316 264.548 47.7604C260.421 48.1048 256.321 46.7848 253.025 44.0505C251.678 42.6375 250.63 40.9209 249.954 39.0205C249.277 37.12 248.988 35.0814 249.107 33.0466V7.4233H255.733V22.5772C259.087 20.7214 262.777 19.7013 266.536 19.5904H266.45ZM292.002 7.4233V47.0373H285.348V7.4233H292.002ZM264.721 41.7869C267.016 41.9472 269.284 41.1744 271.088 39.6175C271.863 38.8975 272.476 37.9932 272.881 36.9739C273.285 35.9547 273.47 34.8478 273.421 33.7383C273.478 32.5866 273.289 31.4363 272.869 30.3779C272.449 29.3195 271.81 28.3819 271.001 27.639C269.236 26.1115 267.03 25.3202 264.779 25.4068C263.22 25.4174 261.673 25.7041 260.198 26.2557C258.619 26.8403 257.132 27.6888 255.791 28.7708V32.8266C255.719 34.0504 255.891 35.2767 256.294 36.4216C256.696 37.5665 257.321 38.603 258.124 39.4603C259.977 41.1145 262.332 41.9453 264.721 41.7869ZM330.317 43.2331C328.439 44.7317 326.303 45.801 324.037 46.3771C321.329 47.1526 318.539 47.5332 315.74 47.5089C312.707 47.5833 309.686 47.0833 306.81 46.0312C304.668 45.2582 302.764 43.8547 301.307 41.9755C300.077 40.2656 299.426 38.1443 299.464 35.9705C299.426 33.919 300.003 31.9101 301.106 30.2485C302.239 28.6079 303.793 27.3714 305.571 26.6958C304.188 25.8874 303.025 24.6943 302.2 23.2375C301.401 21.7063 300.993 19.9691 301.019 18.2071C300.998 16.1484 301.595 14.1389 302.719 12.4851C304.094 10.6351 305.907 9.23225 307.962 8.42936C310.72 7.29235 313.657 6.75823 316.604 6.85738C318.852 6.84938 321.093 7.11299 323.288 7.64337C325.286 8.09158 327.223 8.82078 329.049 9.81271L326.889 15.6291C323.752 13.9204 320.282 13.0681 316.777 13.1453C314.437 12.9843 312.102 13.5396 310.036 14.7487C309.354 15.1481 308.785 15.7424 308.389 16.468C307.993 17.1935 307.786 18.0229 307.789 18.8673C307.801 19.5983 307.972 20.3157 308.287 20.9606C308.603 21.6055 309.054 22.1596 309.604 22.5772C311.061 23.5609 312.763 24.0226 314.472 23.8977H324.008V30.0599H314.069C312.064 29.9175 310.064 30.4087 308.308 31.4746C307.657 31.8872 307.123 32.4862 306.762 33.2067C306.402 33.9272 306.229 34.7417 306.262 35.5618C306.268 36.452 306.5 37.323 306.932 38.0779C307.364 38.8328 307.98 39.442 308.711 39.8376C310.999 41.0654 313.541 41.6182 316.086 41.441C318.329 41.4489 320.561 41.0994 322.712 40.4035C324.679 39.86 326.529 38.8985 328.156 37.5739L330.317 43.2331ZM399.11 8.11497V47.729H392.628V42.6986C391.304 44.3468 389.691 45.6888 387.883 46.6453C386.076 47.6019 384.111 48.1536 382.106 48.2678C380.1 48.3821 378.093 48.0567 376.204 47.3108C374.316 46.5648 372.583 45.4135 371.109 43.9248C368.447 40.404 367.127 35.9018 367.421 31.3489V8.11497H374.162V31.1917C373.962 34.0727 374.776 36.9286 376.438 39.1774C377.272 40.089 378.272 40.7982 379.374 41.2588C380.477 41.7193 381.655 41.9207 382.834 41.8497C384.106 41.9149 385.377 41.6977 386.571 41.2114C387.764 40.725 388.854 39.9796 389.776 39.0202C390.704 37.8516 391.41 36.4945 391.855 35.0269C392.3 33.5593 392.475 32.0101 392.369 30.4686V8.11497H399.11ZM446.441 41.441V56.0919H440.219V47.729H411.613V56.1548H405.39V41.5039H409.798V25.2496C409.696 21.9137 410.37 18.6041 411.757 15.6291C413.072 13.0415 415.083 10.9565 417.518 9.65551C420.137 8.19469 423.048 7.47063 425.988 7.54905C428.929 7.48166 431.843 8.1823 434.486 9.59263C436.884 10.9144 438.839 13.0264 440.075 15.6291C441.494 18.593 442.189 21.9068 442.091 25.2496V41.441H446.441ZM435.235 41.441V24.5894C435.339 23.1638 435.173 21.7301 434.747 20.3777C434.32 19.0254 433.643 17.7835 432.758 16.7294C430.823 14.9615 428.381 13.9927 425.858 13.9927C423.335 13.9927 420.893 14.9615 418.959 16.7294C418.095 17.7967 417.435 19.0421 417.02 20.392C416.604 21.742 416.44 23.1692 416.539 24.5894V41.441H435.235ZM480.953 43.8619C479.087 45.3627 476.96 46.4324 474.702 47.0058C471.994 47.7814 469.204 48.162 466.405 48.1377C463.372 48.2146 460.35 47.7146 457.475 46.66C455.33 45.8945 453.424 44.4897 451.972 42.6043C450.732 40.8986 450.07 38.7769 450.1 36.5993C450.071 34.5442 450.657 32.535 451.771 30.8773C452.898 29.2298 454.454 27.9916 456.236 27.3246C454.853 26.5162 453.69 25.3231 452.865 23.8662C452.056 22.3382 451.638 20.6008 451.656 18.8359C451.643 16.7736 452.25 14.7637 453.384 13.1139C454.766 11.287 456.579 9.90643 458.627 9.12104C461.386 7.98403 464.322 7.44991 467.269 7.54905C469.469 7.55253 471.661 7.81607 473.809 8.33505C475.805 8.79379 477.74 9.52253 479.57 10.5044L477.64 16.2893C474.487 14.5246 470.986 13.6287 467.442 13.6798C465.102 13.5102 462.765 14.0661 460.701 15.2832C460.015 15.6851 459.443 16.2843 459.047 17.0159C458.651 17.7475 458.446 18.5835 458.454 19.4333C458.417 20.183 458.55 20.9311 458.842 21.6112C459.133 22.2914 459.574 22.8824 460.125 23.3318C461.582 24.3155 463.284 24.7772 464.994 24.6522H474.587V30.7515H464.619C462.614 30.6163 460.616 31.107 458.857 32.1663C458.215 32.5855 457.688 33.1868 457.333 33.9064C456.978 34.626 456.808 35.437 456.841 36.2535C456.843 37.1445 457.074 38.017 457.507 38.7725C457.939 39.5281 458.557 40.1365 459.29 40.5293C461.566 41.7615 464.1 42.3147 466.636 42.1327C468.888 42.1388 471.129 41.7893 473.29 41.0952C475.254 40.5389 477.102 39.5785 478.735 38.2656L480.953 43.8619ZM518 8.11497V47.729H511.518V42.6986C510.194 44.3468 508.581 45.6888 506.773 46.6453C504.966 47.6019 503.001 48.1536 500.996 48.2678C498.99 48.3821 496.983 48.0567 495.094 47.3108C493.206 46.5648 491.473 45.4135 489.999 43.9248C487.337 40.404 486.017 35.9018 486.311 31.3489V8.11497H493.052V31.1917C492.866 34.0709 493.679 36.9212 495.328 39.1774C496.162 40.089 497.162 40.7982 498.264 41.2588C499.367 41.7193 500.545 41.9207 501.724 41.8497C502.996 41.9186 504.269 41.7031 505.462 41.2166C506.656 40.73 507.746 39.9826 508.666 39.0202C509.594 37.8516 510.3 36.4945 510.745 35.0269C511.19 33.5593 511.365 32.0101 511.259 30.4686V8.11497H518Z" fill="white"/>
</g>
<defs>
<filter id="filter0_d_43_2304" x="0" y="0.844727" width="528" height="69.3101" filterUnits="userSpaceOnUse" color-interpolation-filters="sRGB">
<feFlood flood-opacity="0" result="BackgroundImageFix"/>
<feColorMatrix in="SourceAlpha" type="matrix" values="0 0 0 0 0 0 0 0 0 0 0 0 0 0 0 0 0 0 127 0" result="hardAlpha"/>
<feOffset dy="4"/>
<feGaussianBlur stdDeviation="5"/>
<feComposite in2="hardAlpha" operator="out"/>
<feColorMatrix type="matrix" values="0 0 0 0 0.101599 0 0 0 0 0.254483 0 0 0 0 0.635068 0 0 0 1 0"/>
<feBlend mode="normal" in2="BackgroundImageFix" result="effect1_dropShadow_43_2304"/>
<feBlend mode="normal" in="SourceGraphic" in2="effect1_dropShadow_43_2304" result="shape"/>
</filter>
</defs>
</svg>
