<svg width="50" height="50" viewBox="0 0 50 50" fill="none" xmlns="http://www.w3.org/2000/svg">
<path d="M1.70919 0.126797C0.879115 0.449063 0.33224 1.02523 0.0978648 1.81625C0.0197398 2.08968 0.000208613 5.19515 0.0197398 13.0857C0.0490367 24.8045 0.0197398 24.16 0.508021 24.824C0.605677 24.9705 0.605677 25.0291 0.508021 25.1658C0.439662 25.2635 0.312709 25.4978 0.215052 25.6834C0.0588023 26.0057 0.0490367 26.7967 0.0490367 37.1092C0.0490367 47.8807 0.0588023 48.2029 0.234584 48.574C0.478724 49.0623 0.937709 49.5213 1.42599 49.7654C1.79708 49.9412 2.11935 49.951 12.8908 49.951C23.2033 49.951 23.9943 49.9412 24.3166 49.785C24.5022 49.6873 24.7365 49.5603 24.8342 49.492C24.9709 49.3943 25.0295 49.3943 25.176 49.492C25.2639 49.5603 25.4983 49.6873 25.6838 49.785C26.0061 49.9412 26.7971 49.951 37.1096 49.951C47.8811 49.951 48.2033 49.9412 48.5744 49.7654C49.0627 49.5213 49.5217 49.0623 49.7658 48.574C49.9416 48.2029 49.9514 47.8807 49.9514 37.1092C49.9514 26.7967 49.9416 26.0057 49.7854 25.6834C49.6877 25.4978 49.5608 25.2635 49.4924 25.1756C49.3947 25.0291 49.3947 24.9705 49.4924 24.824C49.5608 24.7361 49.6877 24.5018 49.7854 24.3162C49.9416 23.9939 49.9514 23.2029 49.9514 12.8904C49.9514 2.11898 49.9416 1.79672 49.7658 1.42562C49.5217 0.937344 49.0627 0.47836 48.5744 0.234219C48.2033 0.0584377 47.8811 0.0486721 37.1096 0.0486721C26.7971 0.0486721 26.0061 0.0584378 25.6838 0.214688C25.4983 0.312344 25.2639 0.439297 25.176 0.507656C25.0295 0.605313 24.9709 0.605313 24.8342 0.507656C24.7365 0.439297 24.5022 0.312344 24.3166 0.214688C24.0041 0.0584378 23.1838 0.0486721 12.9885 0.0291409C4.73654 0.0193752 1.92404 0.0389065 1.70919 0.126797ZM23.9455 1.83578L24.1701 2.06039L24.219 6.27914C24.2776 10.9861 24.2483 10.8299 24.9807 11.3279C25.3029 11.5623 25.4104 11.5721 26.6506 11.5721C27.383 11.5721 28.0959 11.5428 28.2326 11.5037C28.3693 11.4646 28.7795 11.1717 29.1408 10.8494C29.883 10.1951 30.4299 9.96078 31.2502 9.96078C32.0412 9.96078 32.6369 10.1951 33.2424 10.7518C33.926 11.367 34.1994 11.992 34.1994 12.91C34.1994 14.1404 33.5354 15.117 32.3635 15.6346C31.9826 15.8103 31.7678 15.8396 31.1135 15.8006C30.1955 15.7518 29.9026 15.6248 29.1506 14.9412C28.4182 14.2771 28.301 14.2283 27.2365 14.1795C25.8303 14.1111 25.2541 14.2088 24.8342 14.5799C24.2092 15.1268 24.219 15.0682 24.219 19.8728V24.2186H19.9709H15.7229V23.2615C15.7229 22.3143 15.7229 22.2947 16.0256 22.0115C16.9729 21.1326 17.4416 19.8826 17.3635 18.4275C17.3244 17.6365 17.2658 17.4119 16.9631 16.7869C15.8889 14.5603 13.2033 13.6033 10.9572 14.6482C10.2736 14.9705 9.37521 15.7615 9.02365 16.367C7.96896 18.1736 8.26193 20.5564 9.70724 21.9627L10.0588 22.3045V23.2615V24.2283L6.0549 24.199L2.06076 24.1697L1.83615 23.9451L1.61154 23.7205L1.59201 13.0076C1.57247 4.54086 1.59201 2.24593 1.68966 2.05062C1.94357 1.54281 1.52365 1.56234 13.008 1.59164L23.7209 1.61117L23.9455 1.83578ZM48.1643 1.83578L48.3889 2.06039V12.8904V23.7205L48.1643 23.9451L47.9397 24.1697L43.7209 24.2186C39.0139 24.2771 39.1701 24.2478 38.6721 24.9803C38.4377 25.3025 38.4279 25.41 38.4279 26.6502C38.4279 27.3826 38.4572 28.0955 38.4963 28.2322C38.5354 28.3689 38.8088 28.7596 39.1115 29.0916C39.8537 29.9217 39.9709 30.1853 40.0197 31.1131C40.0588 31.8162 40.0295 31.9822 39.8244 32.4412C38.9553 34.3357 36.5627 34.8045 35.0686 33.3689C34.4924 32.8123 34.1799 32.0994 34.1799 31.3084C34.1799 30.449 34.4045 29.8924 35.01 29.199C35.3029 28.8768 35.5959 28.5154 35.6545 28.3982C35.801 28.1248 35.8889 26.4842 35.7912 25.742C35.7424 25.3123 35.6545 25.0975 35.4201 24.8338C34.8733 24.2088 34.9318 24.2186 30.1272 24.2186H25.7815V19.9705V15.7225H26.7385C27.6858 15.7225 27.7053 15.7225 27.9885 16.0252C28.8674 16.9725 30.1174 17.4412 31.5725 17.3631C32.3635 17.324 32.5881 17.2654 33.2131 16.9627C35.4397 15.8885 36.3967 13.2029 35.3518 10.9568C35.0295 10.2732 34.2385 9.37484 33.633 9.02328C31.8264 7.96859 29.4436 8.26156 28.0373 9.70687L27.6955 10.0584H26.7385H25.7815V6.17172C25.7815 2.03109 25.7912 1.93343 26.2697 1.68929C26.4651 1.59164 28.76 1.57211 37.2268 1.59164L47.9397 1.61117L48.1643 1.83578ZM14.2287 16.1228C14.8928 16.4451 15.3029 16.8846 15.635 17.6365C15.8108 18.0174 15.8401 18.2322 15.801 18.8865C15.7522 19.8045 15.6252 20.0975 14.9416 20.8494C14.2776 21.5818 14.2287 21.699 14.1799 22.7635C14.1115 24.1697 14.2092 24.7459 14.5803 25.1658C15.1272 25.7908 15.0686 25.781 19.8733 25.781H24.219V30.0291V34.2771H23.2619H22.3049L21.9631 33.9256C20.5568 32.4803 18.174 32.1873 16.3674 33.242C16.1428 33.3689 15.7326 33.7205 15.4494 34.0232C13.8186 35.7518 13.8186 38.4666 15.4494 40.1951C16.3576 41.1521 17.4026 41.6014 18.7502 41.6014C20.01 41.6014 21.1428 41.1326 21.9631 40.2928L22.3049 39.9412H23.2619H24.2287L24.1994 43.9451L24.1701 47.9393L23.9455 48.1639L23.7209 48.3885H12.8908H2.06076L1.83615 48.1639L1.61154 47.9393V37.1092V26.2791L1.83615 26.0545L2.06076 25.8299L6.27951 25.781C10.9865 25.7225 10.8303 25.7518 11.3283 25.0193C11.5627 24.6971 11.5725 24.5896 11.5725 23.3494C11.5725 22.617 11.5432 21.9041 11.5041 21.7674C11.4651 21.6307 11.1721 21.2205 10.8498 20.8592C10.1955 20.117 9.96115 19.5701 9.96115 18.7498C9.96115 17.9783 10.1955 17.3728 10.7131 16.7967C11.6701 15.7322 12.9104 15.4978 14.2287 16.1228ZM34.2776 26.7381V27.6951L33.926 28.0369C32.4709 29.4432 32.1877 31.826 33.2522 33.6424C33.5451 34.1502 34.4533 34.9998 35.0002 35.2732C36.26 35.9178 37.7639 35.9471 39.0432 35.3514C39.7365 35.0291 40.6252 34.2381 40.9865 33.6131C42.0315 31.8357 41.7287 29.4236 40.2932 28.0369L39.9416 27.6951V26.7381V25.7713L43.9455 25.8006L47.9397 25.8299L48.1643 26.0545L48.3889 26.2791V37.1092V47.9393L48.1643 48.1639L47.9397 48.3885H37.1096H26.2795L26.0549 48.1639L25.8303 47.9393L25.7815 43.7205C25.7229 39.0135 25.7522 39.1697 25.0197 38.6717C24.6975 38.4373 24.5901 38.4275 23.3498 38.4275C22.6174 38.4275 21.9045 38.4568 21.7678 38.4959C21.6311 38.535 21.2404 38.8084 20.9084 39.1111C20.0783 39.8533 19.8147 39.9705 18.8869 40.0193C18.1838 40.0584 18.0178 40.0291 17.5588 39.824C15.6643 38.9549 15.1955 36.5623 16.6311 35.0682C17.1877 34.492 17.9006 34.1795 18.6916 34.1795C19.551 34.1795 20.1076 34.4041 20.801 35.0096C21.1233 35.3025 21.4846 35.5955 21.6018 35.6541C21.8752 35.8006 23.5158 35.8885 24.258 35.7908C24.6877 35.742 24.9026 35.6541 25.1662 35.4197C25.7912 34.8728 25.7815 34.9314 25.7815 30.1268V25.781H30.0295H34.2776V26.7381Z" fill="white"/>
</svg>
